<?xml version="1.0" encoding="utf-8"?>
<!-- Generator: Adobe Illustrator 27.5.0, SVG Export Plug-In . SVG Version: 6.00 Build 0)  -->
<svg version="1.1" xmlns="http://www.w3.org/2000/svg" xmlns:xlink="http://www.w3.org/1999/xlink" x="0px" y="0px"
	 viewBox="0 0 3000 2000" style="enable-background:new 0 0 3000 2000;" xml:space="preserve">
<g id="BACKGROUND">
	<rect style="fill:#FFFFFF;" width="3000" height="2000"/>
</g>
<g id="OBJECTS">
	<g>
		<g>
			<path style="fill:#E5ECFF;" d="M2717.361,1410.44c62.169-183.34,78.608-386.078,20.635-570.788
				c-35.777-113.991-102.761-222.489-204.738-284.731c-118.462-72.304-269.544-73.17-403.001-35.09
				c-133.457,38.081-253.715,111.19-373.287,181.644c-119.571,70.454-242.633,139.984-378.205,169.664
				c-213.946,46.838-440.833-9.457-654.084,40.454c-296.714,69.446-632.587,170.945-517.898,583.836
				c32.173,115.828,166.801,286.852,205.909,325.961h2085.54C2589.026,1694.275,2667.308,1558.048,2717.361,1410.44z"/>
			<g>
				<path style="fill:#E5ECFF;" d="M503.922,647.363c-29.069,61.803-10.276,147.679,51.173,177.486
					c37.489,18.185,82.023,13.247,122.281,2.503c40.258-10.744,79.494-26.932,121.022-30.326
					c44.607-3.645,93.827,6.689,131.092-18.099c35.136-23.373,46.2-73.253,32.206-113.066
					c-13.994-39.813-48.438-69.762-86.623-87.725c-38.185-17.962-80.299-25.497-121.851-32.858
					C659.804,528.731,548.476,553.302,503.922,647.363z"/>
				<path style="fill:#E5ECFF;" d="M612.488,839.049c-22.074,0-41.392-4.099-58.311-12.306
					c-29.535-14.326-51.073-42.062-60.647-78.097c-9.077-34.168-5.983-71.411,8.488-102.178l0.003-0.006
					c20.756-43.821,57.94-76.189,107.53-93.605c42.92-15.075,94.074-18.502,144.04-9.652c41.142,7.288,83.685,14.824,122.379,33.026
					c43.617,20.517,74.768,52.1,87.714,88.932c15.193,43.224,0.995,92.886-33.027,115.516
					c-27.191,18.088-60.86,17.847-93.432,17.605c-12.805-0.092-26.047-0.19-38.654,0.841c-28.881,2.36-57.23,11.139-84.646,19.628
					c-11.764,3.643-23.929,7.41-36.005,10.633C653.79,835.825,632.055,839.049,612.488,839.049z M505.825,648.265
					c-14.054,29.883-17.052,66.076-8.226,99.3c9.254,34.833,30,61.607,58.415,75.39c30.969,15.022,70.49,15.795,120.819,2.363
					c11.997-3.202,24.121-6.956,35.846-10.587c27.633-8.557,56.206-17.405,85.547-19.803c12.793-1.046,26.128-0.948,39.028-0.854
					c31.932,0.235,64.952,0.474,91.07-16.9c32.467-21.597,45.961-69.151,31.386-110.616c-12.569-35.758-42.945-66.484-85.533-86.518
					c-38.188-17.963-80.45-25.45-121.322-32.689c-49.262-8.726-99.662-5.36-141.91,9.478
					C562.44,573.865,526.089,605.482,505.825,648.265L505.825,648.265z"/>
			</g>
		</g>
		<g>
			<g>
				<path style="fill:#FBC343;" d="M1602.298,1775.895v6.95c0,21.332-17.422,38.754-38.753,38.754h-369.526
					c-21.331,0-38.753-17.422-38.753-38.754v-6.95c0-21.332,17.422-38.754,38.753-38.754h369.526
					C1584.876,1737.141,1602.298,1754.563,1602.298,1775.895z"/>
				<path style="fill:#FBC343;" d="M1666.097,1691.437v6.95c0,21.332-17.422,38.754-38.752,38.754h-369.526
					c-21.331,0-38.753-17.422-38.753-38.754v-6.95c0-21.331,17.422-38.754,38.753-38.754h369.526c4.729,0,9.266,0.869,13.464,2.413
					C1655.528,1660.598,1666.097,1674.835,1666.097,1691.437z"/>
				<path style="fill:#FBC343;" d="M1687.573,1609.392v6.95c0,21.332-17.47,38.754-38.752,38.754h-369.574
					c-4.681,0-9.218-0.869-13.416-2.413c-14.768-5.502-25.336-19.739-25.336-36.341v-6.95c0-21.331,17.47-38.754,38.753-38.754
					h369.574C1670.103,1570.638,1687.573,1588.061,1687.573,1609.392z"/>
				<path style="fill:#FBC343;" d="M1665.309,1524.934v6.95c0,21.332-17.47,38.754-38.753,38.754h-369.574
					c-21.283,0-38.753-17.422-38.753-38.754v-6.95c0-21.332,17.47-38.754,38.753-38.754h369.574
					C1647.839,1486.18,1665.309,1503.603,1665.309,1524.934z"/>
				<rect x="1502.56" y="1568.225" style="fill:#E49B31;" width="123.996" height="4.827"/>
				<rect x="1480.844" y="1734.727" style="fill:#E49B31;" width="82.701" height="4.827"/>
			</g>
			<path style="opacity:0.3;fill:#B25834;" d="M1448.349,1570.638v1.158c0,27.026-3.33,54.198-10.231,80.886
				c-0.096,0.531-0.241,1.11-0.386,1.641c-0.048,0.241-0.145,0.531-0.193,0.772c-7.915,29.777-19.738,57.335-34.795,82.045
				c-20.752,34.073-47.536,62.74-78.519,84.458h-130.205c-21.331,0-38.753-17.422-38.753-38.754v-6.95
				c0-21.332,17.422-38.754,38.753-38.754h63.799c-21.331,0-38.753-17.422-38.753-38.754v-6.95
				c0-21.331,17.422-38.754,38.753-38.754h8.011c-14.768-5.502-25.336-19.739-25.336-36.341v-6.95
				c0-21.331,17.47-38.754,38.753-38.754h-54.437c-21.283,0-38.753-17.422-38.753-38.754v-6.95c0-21.332,17.47-38.754,38.753-38.754
				h212.102C1444.343,1513.448,1448.252,1541.922,1448.349,1570.638z"/>
		</g>
		<g>
			<path style="fill:#FF9064;" d="M1395.906,1629.372c-16.601,57.094-47.053,104.824-84.6,138.463
				c-37.546,33.638-82.186,53.088-127.261,53.619l-307.657-1.013c-103.131-0.386-196.756-60.279-240.431-153.713l-2.172-4.633
				c-22.586-48.31-29.583-100.77-22.248-151.059c8.59-59.217,37.015-115.297,83.297-157.864l161.574-148.646l305.195-4.923
				l166.834,166.889c4.006,4.005,7.915,8.156,11.583,12.403C1400.057,1447.04,1421.484,1541.44,1395.906,1629.372z"/>
			<path style="fill:#FF9064;" d="M856.394,1205.12l-38.251-151.833c93.576,29.435,229.506-25.714,366.233-4.898l-22.788,153.058
				L856.394,1205.12z"/>
			<g>
				<path style="fill:#FFFFFF;" d="M984.074,1674.613v-47.335c-33.41-1.502-65.825-10.474-84.762-21.435l14.959-58.337
					c20.927,11.448,50.358,21.922,82.753,21.922c28.416,0,47.861-10.961,47.861-30.894c0-18.958-15.954-30.935-52.834-43.398
					c-53.362-17.944-89.755-42.87-89.755-91.22c0-43.885,30.913-78.27,84.255-88.744v-47.376h48.856v43.885
					c33.41,1.502,55.859,8.444,72.3,16.442l-14.452,56.348c-12.97-5.48-35.906-16.969-71.792-16.969
					c-32.415,0-42.888,13.965-42.888,27.93c0,16.442,17.456,26.915,59.837,42.87c59.33,20.948,83.26,48.35,83.26,93.25
					c0,44.372-31.421,82.248-88.74,92.235v50.827H984.074z"/>
			</g>
			<path style="fill:#B25834;" d="M1172.409,1222.412H839.876c-10.163,0-18.477-8.315-18.477-18.477v-5.367
				c0-10.163,8.315-18.478,18.477-18.478h332.533c10.163,0,18.478,8.315,18.478,18.478v5.367
				C1190.886,1214.098,1182.571,1222.412,1172.409,1222.412z"/>
			<path style="opacity:0.3;fill:#B25834;" d="M1395.906,1629.372c-16.601,57.094-47.053,104.824-84.6,138.463
				c-37.546,33.638-82.186,53.088-127.261,53.619l-307.657-1.013c-103.131-0.386-196.756-60.279-240.431-153.713l-2.172-4.633
				c-22.586-48.31-29.583-100.77-22.248-151.059c110.821,219.269,324.258,306.638,519.421,225.703
				c168.765-69.979,191.881-275.557,209.062-357.844C1400.057,1447.04,1421.484,1541.44,1395.906,1629.372z"/>
		</g>
		<g>
			<g>
				<path style="fill:#FBC343;" d="M2137.926,1821.591h-379.375c-18.611,0-33.838-15.227-33.838-33.838v-16.782
					c0-18.611,15.227-33.838,33.838-33.838h379.375c18.611,0,33.838,15.227,33.838,33.838v16.782
					C2171.764,1806.363,2156.537,1821.591,2137.926,1821.591z"/>
				<path style="fill:#FBC343;" d="M2154.012,1737.133h-379.375c-18.611,0-33.838-15.227-33.838-33.838v-16.782
					c0-18.611,15.227-33.838,33.838-33.838h379.376c18.611,0,33.838,15.227,33.838,33.838v16.782
					C2187.851,1721.906,2172.624,1737.133,2154.012,1737.133z"/>
				<path style="fill:#FBC343;" d="M2127.729,1652.675h-379.375c-18.611,0-33.838-15.227-33.838-33.838v-16.781
					c0-18.611,15.227-33.838,33.838-33.838h379.375c18.611,0,33.838,15.227,33.838,33.838v16.781
					C2161.567,1637.448,2146.34,1652.675,2127.729,1652.675z"/>
				<path style="fill:#FBC343;" d="M2165.603,1522.521v6.95c0,21.332-17.47,38.754-38.753,38.754h-369.574
					c-18.629,0-34.313-13.32-37.981-30.984c-0.482-2.509-0.772-5.116-0.772-7.77v-6.95c0-21.332,17.47-38.754,38.753-38.754h369.574
					C2148.133,1483.767,2165.603,1501.19,2165.603,1522.521z"/>
				<path style="fill:#FBC343;" d="M2139.591,1438.063v6.95c0,21.332-17.422,38.754-38.753,38.754h-369.526
					c-21.331,0-38.753-17.422-38.753-38.754v-6.95c0-21.331,17.422-38.754,38.753-38.754h369.526
					C2122.169,1399.309,2139.591,1416.732,2139.591,1438.063z"/>
				<path style="fill:#FBC343;" d="M2172.021,1353.606v6.95c0,21.332-17.422,38.754-38.753,38.754h-369.526
					c-21.331,0-38.753-17.422-38.753-38.754v-6.95c0-21.332,17.422-38.754,38.753-38.754h369.526
					C2154.6,1314.852,2172.021,1332.274,2172.021,1353.606z"/>
				<path style="fill:#FBC343;" d="M2172.021,1269.148v6.95c0,21.332-17.422,38.754-38.753,38.754h-369.526
					c-21.331,0-38.753-17.422-38.753-38.754v-6.95c0-21.332,17.422-38.754,38.753-38.754h369.526
					C2154.6,1230.394,2172.021,1247.816,2172.021,1269.148z"/>
				
					<rect x="2091.734" y="1268.394" transform="matrix(0.0129 -0.9999 0.9999 0.0129 751.7806 3392.448)" style="fill:#E49B31;" width="4.825" height="94.114"/>
				<rect x="1834.505" y="1396.889" style="fill:#E49B31;" width="266.335" height="4.827"/>
				<rect x="1989.985" y="1481.346" style="fill:#E49B31;" width="110.855" height="4.827"/>
				<rect x="1844.156" y="1565.804" style="fill:#E49B31;" width="201.328" height="4.827"/>
				<rect x="1763.723" y="1312.431" style="fill:#E49B31;" width="194.894" height="4.827"/>
				<rect x="2019.746" y="1650.262" style="fill:#E49B31;" width="103.071" height="4.827"/>
				<rect x="1882.205" y="1734.719" style="fill:#E49B31;" width="250.808" height="4.827"/>
			</g>
			<path style="opacity:0.15;fill:#102048;" d="M1935.307,1230.394v306.847h-216.011c-0.482-2.509-0.772-5.116-0.772-7.77v-6.95
				c0-21.332,17.47-38.754,38.753-38.754h-25.964c-21.331,0-38.753-17.422-38.753-38.754v-6.95
				c0-21.331,17.422-38.754,38.753-38.754h32.431c-21.331,0-38.753-17.422-38.753-38.754v-6.95
				c0-21.332,17.422-38.754,38.753-38.754c-21.331,0-38.753-17.422-38.753-38.754v-6.95c0-21.332,17.422-38.754,38.753-38.754
				H1935.307z"/>
		</g>
		<g>
			<g>
				<g>
					<rect x="1290.024" y="1631.882" style="fill:#1F3C88;" width="387.478" height="45.462"/>
					<polygon style="fill:#102048;" points="1361.159,1631.882 1349.287,1677.344 1290.024,1677.344 1290.024,1631.882 					"/>
					<polygon style="fill:#102048;" points="1677.503,1631.882 1677.503,1677.344 1618.191,1677.344 1606.319,1631.882 					"/>
				</g>
				<g>
					<polygon style="fill:#1F3C88;" points="1367.578,1461.856 1341.18,1551.333 1261.502,1821.405 1219.661,1821.405 
						1286.743,1551.333 1308.942,1461.856 					"/>
					<polygon style="fill:#102048;" points="1308.942,1461.856 1367.578,1461.856 1341.18,1551.333 1286.743,1551.333 					"/>
				</g>
				<g>
					<polygon style="fill:#1F3C88;" points="1744.632,1821.405 1702.742,1821.405 1623.114,1551.333 1596.716,1461.856 
						1655.303,1461.856 1677.551,1551.333 					"/>
					<polygon style="fill:#102048;" points="1677.551,1551.333 1623.114,1551.333 1596.716,1461.856 1655.303,1461.856 					"/>
				</g>
			</g>
			<rect x="1074.069" y="393.863" style="fill:#7D69ED;" width="816.153" height="1110.673"/>
			<g>
				<rect x="1052.958" y="370.84" style="fill:#1F3C88;" width="858.374" height="76.999"/>
				<rect x="1052.958" y="394.48" style="fill:#102048;" width="858.374" height="14.722"/>
			</g>
			<g>
				<path style="fill:#102048;" d="M1519.14,1342.602h-73.99c-41.506,0-75.153-33.647-75.153-75.153v-10.914h224.295v10.914
					C1594.293,1308.955,1560.646,1342.602,1519.14,1342.602z"/>
				<path style="fill:#FBC343;" d="M1717.824,812.519c0-133.328-110.705-240.798-245.205-235.499
					c-119.942,4.726-218.359,100.861-225.697,220.676c-3.118,50.91,9.95,98.58,34.536,138.388
					c40.163,65.03,63.147,139.189,63.147,215.622v2.675h275.081v-2.694c0-75.988,22.179-150.072,62.463-214.503
					C1704.753,901.031,1717.824,858.309,1717.824,812.519z"/>
				<path style="fill:#102048;" d="M1413.387,1132.304l-24.142-239.156v-0.121c0-11.31,9.201-20.511,20.51-20.511
					c11.309,0,20.51,9.201,20.51,20.511v39.439c0,8.649,7.036,15.685,15.684,15.685c8.648,0,15.685-7.036,15.685-15.685v-39.439
					c0-11.31,9.201-20.511,20.511-20.511c11.31,0,20.511,9.201,20.511,20.511v40.882c0,8.649,7.036,15.685,15.684,15.685
					s15.684-7.036,15.684-15.685v-40.882c0-11.31,9.201-20.511,20.511-20.511s20.511,9.201,20.511,20.511l-0.018,0.292
					l-28.957,237.829l-4.791-0.584l28.939-237.678c-0.076-8.584-7.083-15.544-15.684-15.544c-8.648,0-15.684,7.037-15.684,15.686
					v40.882c0,11.31-9.201,20.511-20.511,20.511c-11.31,0-20.511-9.201-20.511-20.511v-40.882c0-8.649-7.036-15.686-15.684-15.686
					c-8.648,0-15.685,7.037-15.685,15.686v39.439c0,11.31-9.201,20.511-20.51,20.511c-11.309,0-20.51-9.201-20.51-20.511v-39.439
					c0-8.649-7.036-15.686-15.685-15.686c-8.609,0-15.621,6.973-15.684,15.568l24.117,238.91L1413.387,1132.304z"/>
				<g>
					<path style="fill:#1F3C88;" d="M1627.877,1183.339h-291.464c-12.748,0-23.178-10.43-23.178-23.178v-6.732
						c0-12.748,10.43-23.178,23.178-23.178h291.464c12.748,0,23.178,10.43,23.178,23.178v6.733
						C1651.055,1172.909,1640.625,1183.339,1627.877,1183.339z"/>
					<path style="fill:#1F3C88;" d="M1627.877,1236.427h-291.463c-12.748,0-23.178-10.43-23.178-23.178v-6.732
						c0-12.748,10.43-23.178,23.178-23.178h291.464c12.748,0,23.178,10.43,23.178,23.177v6.732
						C1651.055,1225.997,1640.625,1236.427,1627.877,1236.427z"/>
					<path style="fill:#1F3C88;" d="M1627.877,1289.514h-291.464c-12.748,0-23.178-10.43-23.178-23.178v-6.732
						c0-12.748,10.43-23.178,23.178-23.178h291.464c12.748,0,23.178,10.43,23.178,23.178v6.733
						C1651.055,1279.084,1640.625,1289.514,1627.877,1289.514z"/>
				</g>
				<rect x="1554.44" y="1180.926" style="fill:#3A6BEA;" width="70.071" height="4.827"/>
				<rect x="1339.778" y="1180.926" style="fill:#3A6BEA;" width="151.924" height="4.827"/>
				<rect x="1457.317" y="1234.013" style="fill:#3A6BEA;" width="167.195" height="4.827"/>
				<rect x="1339.778" y="1234.013" style="fill:#3A6BEA;" width="61.436" height="4.827"/>
			</g>
		</g>
		<g>
			<g>
				<g>
					<path style="fill:#102048;" d="M694.238,1661.215l14.85,119.763l158.108-29.711c-18.747-24.921-53.397-36.742-94.018-43.643
						l-5.374-68.213L694.238,1661.215z"/>
					<polygon style="fill:#FFFFFF;" points="738.098,1714.319 733.847,1687.166 771.305,1675.875 772.697,1680.496 
						739.266,1690.572 742.145,1708.966 772.886,1705.229 773.469,1710.02 					"/>
					<path style="fill:#FFFFFF;" d="M799.479,1737.662l-4.026-2.662c8.226-12.446,18.801-18.722,19.248-18.982l2.44,4.164
						C817.04,1720.242,807.058,1726.195,799.479,1737.662z"/>
				</g>
				<g>
					<path style="fill:#102048;" d="M482.669,1689.879l-21.315,131.513h165.29c-11.707-28.905-42.15-49.241-79.629-66.359
						l14.478-61.534L482.669,1689.879z"/>
					<polygon style="fill:#FFFFFF;" points="546.68,1757.422 511.394,1752.48 514.271,1725.146 553.371,1723.871 553.528,1728.693 
						518.63,1729.832 516.681,1748.346 547.35,1752.642 					"/>
					<path style="fill:#FFFFFF;" d="M564.705,1790.825l-3.206-3.608c11.151-9.91,22.984-13.254,23.482-13.391l1.284,4.652
						l-0.642-2.326l0.645,2.325C586.156,1778.509,574.978,1781.694,564.705,1790.825z"/>
				</g>
				<path style="fill:#1F3C88;" d="M774.498,1654.888l-91.088,25.363c-7.339,2.044-14.672-3.271-15.015-10.882l-8.644-191.876
					l-4.826-52.605l-5.019-54.584c0,0-20.848-21.09-52.169-60.134c-15.492-19.305-33.589-43.049-52.941-70.848
					c-16.649-23.793-25.288-44.594-29.1-62.161c-5.791-26.351-0.772-45.462,4.247-56.611c3.378-7.577,6.805-11.486,6.805-11.486
					l83.007-40.202l14.816-7.191l44.11,71.862l1.062,1.786l94.59,154.051c17.18,22.683,26.929,50.095,27.942,78.57l-3.177,267.965
					C788.99,1644.774,783.042,1652.509,774.498,1654.888z"/>
				<path style="fill:#102048;" d="M659.75,1477.493l-4.826-52.605l-5.019-54.584c0,0-20.848-21.09-52.169-60.134l2.365-27.075
					C600.101,1283.095,728.617,1360.217,659.75,1477.493z"/>
				<path style="fill:#1F3C88;" d="M654.924,1424.888c-0.627,3.909-1.399,7.818-2.316,11.679l-61.881,256.669
					c-2.059,8.542-9.702,14.562-18.489,14.562h-90.865c-11.876,0-20.847-10.764-18.707-22.445l52.161-284.836
					c0,0-32.141-57.914-65.923-154.437c-9.604-27.461-12.306-49.854-11.244-67.807c2.558-45.173,28.908-62.499,28.908-62.499
					l53.375,4.778l36.726,3.282l17.808,45.318l72.39,184.214C655.793,1376.144,658.544,1400.806,654.924,1424.888z"/>
				<path style="fill:#3A6BEA;" d="M653.187,1433.094c-0.172,0-0.347-0.026-0.521-0.077c-0.957-0.287-1.501-1.296-1.214-2.253
					c13.353-44.514-13.328-105.056-41.576-169.154c-1.934-4.389-3.873-8.788-5.804-13.193l-0.473-1.079l26.533-29.022
					c0.675-0.738,1.82-0.789,2.557-0.114c0.738,0.674,0.789,1.818,0.115,2.557l-24.944,27.284c1.773,4.042,3.552,8.08,5.328,12.109
					c28.525,64.726,55.468,125.861,41.731,171.654C654.685,1432.587,653.966,1433.094,653.187,1433.094z"/>
				<path style="fill:#3A6BEA;" d="M499.964,1709.994c-0.128,0-0.258-0.015-0.389-0.042c-0.976-0.214-1.595-1.179-1.381-2.155
					l54.643-249.806c7.915-36.183,3.006-74.222-13.823-107.112c-24.8-48.467-55.494-119.274-60.886-181.364
					c-3.251-37.44,4.193-53.83,4.512-54.51c0.423-0.905,1.499-1.295,2.407-0.87c0.904,0.424,1.293,1.499,0.872,2.402l0,0
					c-0.074,0.161-7.404,16.494-4.141,53.161c5.464,61.406,35.893,131.525,60.458,179.533c17.21,33.634,22.23,72.534,14.137,109.534
					L501.73,1708.57C501.545,1709.416,500.796,1709.994,499.964,1709.994z"/>
				<path style="opacity:0.6;fill:#102048;" d="M670.078,1135.077c0,0-0.097,0.096-0.338,0.241
					c-3.378,2.22-34.361,21.621-95.265,33.831c-17.18,3.426-36.774,6.274-58.78,8.011c-23.261,1.834-49.225,2.413-78.036,1.11
					c2.558-45.173,28.908-62.499,28.908-62.499l53.375,4.778c3.378-7.577,6.805-11.486,6.805-11.486l83.007-40.202l58.925,64.671
					L670.078,1135.077z"/>
			</g>
			<g>
				<path style="fill:#F9B384;" d="M855.975,761.243c-4.199,7.239-9.025,15.299-14.623,24.324l-37.015-2.413l-3.668-9.556
					l-9.169-23.793c0,0,1.255-2.799,3.234-7.191c0.048,0,0.048-0.048,0.048-0.048c7.818-17.036,27.122-58.011,31.272-55.115
					c5.26,3.62,3.62,16.891,3.62,16.891S853.417,654.054,855.83,675c0,0,18.097-12.886,12.885,10.424c0,0,16.071-6.805,6.805,16.506
					C875.52,701.93,899.216,687.21,855.975,761.243z"/>
				<path style="fill:#E28B6D;" d="M855.975,761.243c-4.199,7.239-9.025,15.299-14.623,24.324l-37.015-2.413l-3.668-9.556
					l-5.936-30.984v-0.048h0.048L855.975,761.243z"/>
				<path style="fill:#F9B384;" d="M309.335,765.876l-12.885,33.397l-36.967,2.413c-4.199-6.757-7.963-12.982-11.389-18.726
					C200.413,702.605,225.267,718,225.267,718c-9.218-23.31,6.853-16.457,6.853-16.457c-5.212-23.359,12.885-10.473,12.885-10.473
					c2.413-20.897,26.109,29.343,26.109,29.343s-1.593-13.272,3.62-16.892C279.993,699.902,309.335,765.876,309.335,765.876z"/>
				<path style="fill:#E28B6D;" d="M309.335,765.876l-12.885,33.397l-36.967,2.413c-4.199-6.757-7.963-12.982-11.389-18.726
					L309.335,765.876z"/>
				<path style="fill:#86A7FF;" d="M851.873,785.181c-17.856,47.393-72.631,107.189-115.148,148.839
					c-30.404,29.778-54.582,50.24-54.582,50.24s-0.627,4.247-1.544,11.052c-3.571,26.206-11.679,90.635-6.901,101.156
					c6.032,13.272,21.717,24.131,3.619,36.196c-18.097,12.065-126.682,14.479-196.659,8.446s-45.847-21.718-32.575-42.229
					c13.271-20.511,18.097-114.621,18.097-114.621c-97.726-2.815-220.789-171.731-220.789-171.731l63.944-46.653
					c109.791,150.817,255.777,123.067,255.777,123.067l16.891,4.247c0,0,71.57,18.291,212.73-150.624L851.873,785.181z"/>
				<path style="fill:#1F3C88;" d="M569.888,948.098c-17.422,0-31.049-10.93-31.26-11.103c-0.772-0.634-0.885-1.773-0.252-2.545
					c0.633-0.772,1.773-0.886,2.547-0.254c1.231,1.006,30.457,24.344,57.093-2.292c0.707-0.707,1.854-0.707,2.559-0.001
					c0.707,0.707,0.707,1.853,0.001,2.559C590.272,944.767,579.501,948.098,569.888,948.098z"/>
				<path style="opacity:0.6;fill:#1F3C88;" d="M466.18,984.26c0,0,14.478,3.419,25.336,4.022c0,0-16.288,23.729-27.749,26.745
					L466.18,984.26z"/>
				<path style="opacity:0.6;fill:#1F3C88;" d="M736.725,934.019c-30.404,29.778-54.582,50.24-54.582,50.24l2.847-28.233
					C696.042,953.228,713.801,947.147,736.725,934.019z"/>
				<path style="fill:#1F3C88;" d="M341.142,919.668c-0.852,0-1.61-0.604-1.775-1.472c-0.187-0.981,0.457-1.929,1.439-2.116
					c15.814-3.012,26.782-19.858,26.891-20.028c0.54-0.841,1.659-1.085,2.5-0.547c0.841,0.539,1.087,1.657,0.548,2.498
					c-0.477,0.747-11.897,18.324-29.262,21.631C341.368,919.657,341.254,919.668,341.142,919.668z"/>
				<path style="fill:#1F3C88;" d="M785.472,881.911c-0.164,0-0.33-0.022-0.495-0.069c-17.004-4.83-26.823-23.35-27.233-24.137
					c-0.462-0.886-0.118-1.978,0.768-2.44c0.886-0.465,1.978-0.119,2.441,0.766c0.093,0.179,9.527,17.93,25.012,22.329
					c0.962,0.273,1.52,1.274,1.247,2.235C786.986,881.392,786.261,881.911,785.472,881.911z"/>
			</g>
			<g>
				<path style="fill:#F9B384;" d="M595.954,831.32v68.812c0,14.614-12.838,26.476-28.652,26.476
					c-15.814,0-28.652-11.863-28.652-26.476V831.32H595.954z"/>
				<path style="fill:#102048;" d="M595.954,847.825v39.757c-23.908-4.943-39.861-34.772-39.861-34.772L595.954,847.825z"/>
				<path style="fill:#F9B384;" d="M604.369,776.893c0,0,19.938,85.032-15.043,88.111c-44.77,3.94-57.306-35.101-57.306-35.101
					l-1.433-42.981l26.862-23.281L604.369,776.893z"/>
				<path style="fill:#102048;" d="M543.094,815.495c13.573-1.357-0.452-13.121,8.076-18.187c3.341-1.984,9.34,0.361,11.831-2.626
					c3.916-4.696,1.932-7.363,5.882-12.065c3.167-3.77,9.94-1.242,12.709,1.237c8.26,7.395,21.837,7.626,30.634,0.884
					c8.797-6.743,12.182-19.544,8.322-29.946c-2.058-5.547-6.149-10.514-11.641-12.693c-5.492-2.18-12.368-1.121-16.328,3.27
					c-1.984,2.2-3.273,5.159-5.868,6.585c-3.881,2.133-8.7-0.153-12.161-2.919c-3.931-3.142-7.36-6.978-11.751-9.435
					c-4.391-2.456-10.267-3.227-14.223-0.117c-3.971,3.122-5.126,9.37-9.793,11.295c-2.755,1.136-5.868,0.354-8.822-0.041
					c-2.953-0.395-6.439-0.16-8.202,2.246c-3.733,5.094,4.276,12.929,0.72,18.148c-2.249,3.3-7.134,2.661-11.121,2.525
					c-5.365-0.183-11.051,1.459-14.56,5.529c-3.509,4.069-4.066,10.826-0.332,14.69c2.816,2.914,7.674,4.141,8.82,8.03
					c0.988,3.355-1.418,6.635-2.747,9.87c-2.661,6.475-0.757,14.432,4.223,19.347c4.98,4.915,12.638,6.738,19.428,5.073
					c5.827-1.429,11.991-5.656,14.828-11.079c1.532-2.928-0.195-4.824-1.362-7.527C538.294,814.431,539.657,815.839,543.094,815.495
					z"/>
				
					<ellipse transform="matrix(0.9201 -0.3917 0.3917 0.9201 -281.0417 275.5298)" style="fill:#F9B384;" cx="534.706" cy="826.5" rx="15.58" ry="18.535"/>
				<path style="fill:#102048;" d="M540.28,832.652c-0.6,0-1.121-0.448-1.196-1.06c-0.486-3.969-1.701-6.651-3.714-8.203
					c-1.904-1.467-4.586-1.94-8.194-1.448c-0.659,0.086-1.268-0.373-1.359-1.032c-0.09-0.66,0.372-1.269,1.032-1.359
					c4.287-0.584,7.552,0.046,9.993,1.928c2.551,1.966,4.068,5.179,4.636,9.822c0.081,0.661-0.39,1.263-1.051,1.344
					C540.379,832.649,540.329,832.652,540.28,832.652z"/>
				<g>
					<path style="fill:#102048;" d="M604.91,812.826c0,1.891-1.533,3.424-3.424,3.424c-1.891,0-3.424-1.533-3.424-3.424
						c0-1.891,1.533-3.424,3.424-3.424C603.377,809.402,604.91,810.935,604.91,812.826z"/>
					<path style="fill:#102048;" d="M583.296,814.753c0,1.891-1.533,3.424-3.424,3.424c-1.891,0-3.424-1.533-3.424-3.424
						c0-1.891,1.533-3.424,3.424-3.424C581.763,811.328,583.296,812.862,583.296,814.753z"/>
					<path style="fill:#102048;" d="M595.351,836.365c-0.226,0-0.43-0.003-0.607-0.007c-0.666-0.016-1.193-0.569-1.178-1.235
						c0.016-0.666,0.591-1.158,1.235-1.178c2.015,0.044,4.214-0.232,4.87-0.602c-0.5-2.78-4.058-6.507-7.502-10.115l-0.759-0.797
						c-0.46-0.483-0.441-1.246,0.042-1.706c0.483-0.457,1.246-0.441,1.706,0.042l0.757,0.794c3.993,4.184,7.765,8.136,8.189,11.739
						c0.068,0.574-0.117,1.133-0.52,1.576C600.406,836.17,597.184,836.365,595.351,836.365z M599.707,833.583h0.012H599.707z"/>
					<path style="fill:#102048;" d="M589.63,846.278c-3.177,0-6.479-1.185-9.163-3.471c-0.507-0.432-0.568-1.193-0.136-1.701
						c0.432-0.508,1.194-0.567,1.701-0.136c3.733,3.181,8.854,3.821,12.45,1.556c0.564-0.356,1.308-0.186,1.664,0.378
						c0.355,0.564,0.186,1.309-0.378,1.664C593.942,845.717,591.815,846.278,589.63,846.278z"/>
					
						<ellipse transform="matrix(0.9988 -0.0498 0.0498 0.9988 -40.5945 29.1304)" style="opacity:0.4;fill:#EB5D60;" cx="564.132" cy="828.993" rx="8.219" ry="8.22"/>
					<path style="fill:#102048;" d="M570.542,811.423c-0.322,0-0.643-0.128-0.88-0.381c-0.456-0.487-0.431-1.25,0.055-1.706
						c7.828-7.336,15.862-2.455,15.944-2.406c0.565,0.353,0.736,1.098,0.384,1.663c-0.354,0.563-1.097,0.735-1.66,0.385
						c-0.275-0.169-6.579-3.918-13.017,2.118C571.134,811.315,570.837,811.423,570.542,811.423z"/>
					<path style="fill:#102048;" d="M595.728,807.952c-0.31,0-0.62-0.119-0.855-0.356c-0.469-0.472-0.469-1.232,0.001-1.702
						c0.061-0.06,6.133-5.991,14.203-2.04c0.598,0.294,0.846,1.016,0.553,1.614c-0.293,0.598-1.015,0.847-1.614,0.553
						c-6.495-3.183-11.24,1.386-11.439,1.582C596.342,807.836,596.035,807.952,595.728,807.952z"/>
				</g>
			</g>
		</g>
		<g>
			<g>
				<path style="fill:#102048;" d="M2428.823,1710.789c-52.957,48.42-85.706,59.572-103.051,60.971
					c-14.78,30.513-29.337,49.838-29.337,49.838c82.042,2.413,112.204-53.088,112.204-53.088l16.891,54.294h22.923
					L2428.823,1710.789z"/>
				<path style="fill:#F9B384;" d="M2325.778,1771.744c7.721-15.975,15.54-34.941,21.331-55.935
					c-25.191-95.654-42.517-177.989-54.099-248.547c-3.378-20.366-6.274-39.719-8.687-58.155
					c-3.571-26.882-6.274-51.785-8.156-74.757l93.865-27.943c0,0,10.859,246.134,57.912,399.365l0.869,5.019
					C2375.871,1759.196,2343.103,1770.345,2325.778,1771.744z"/>
				<path style="fill:#102048;" d="M2655.989,1241.817c57.106,39.516,74.692,68.008,79.754,84.07
					c31.975,7.36,53.348,16.925,53.348,16.925c-15.425-77.925-74.293-94.407-74.293-94.407l47.577-27.651l-4.946-21.628
					L2655.989,1241.817z"/>
				<path style="fill:#F9B384;" d="M2735.745,1325.903c-16.746-3.861-36.34-7.143-57.381-8.06
					c-54.003,42.326-93.094,65.298-119.781,77.701c-2.316,1.062-4.633,1.979-6.998,2.751c-19.111,6.274-39.959,3.041-56.03-8.156
					c-5.791-4.006-11.003-9.025-15.25-15.009c-12.402-17.422-23.357-37.499-33.444-59.072c0,0,70.17,5.116,204.573-72.344
					l4.537-1.882C2713.111,1281.31,2730.678,1309.832,2735.745,1325.903z"/>
				<path style="fill:#ED7545;" d="M2551.634,1292.313c-33.3,18.629-66.357,30.743-97.678,38.368
					c-29.246,7.191-56.947,10.376-81.849,11.245c-42.083,1.544-76.106-3.571-95.941-7.577
					c-15.154-182.188,16.65-245.12,16.65-245.12l89.667-32.963l35.326,6.274l75.285,13.417c1.979,12.789,4.102,24.999,6.274,36.679
					c21.379,114.283,50.335,175.624,52.169,179.485C2551.585,1292.265,2551.634,1292.313,2551.634,1292.313z"/>
				<path style="fill:#BA5C36;" d="M2499.368,1112.635c-106.992,25.82-206.552-23.407-206.552-23.407l124.993-26.689l75.285,13.417
					C2495.073,1088.746,2497.197,1100.956,2499.368,1112.635z"/>
				<path style="fill:#BA5C36;" d="M2348.221,1314.173c-43.625,0-74.271-5.121-74.611-5.179c-0.985-0.168-1.647-1.102-1.479-2.087
					c0.168-0.985,1.114-1.651,2.087-1.481c0.378,0.064,38.293,6.389,89.813,4.9c47.478-1.377,116.562-9.868,176.053-42.507
					c0.872-0.478,1.975-0.161,2.457,0.717c0.481,0.876,0.16,1.976-0.717,2.457c-60.147,32.999-129.871,41.572-177.771,42.953
					C2358.617,1314.103,2353.327,1314.173,2348.221,1314.173z"/>
				<path style="fill:#BA5C36;" d="M2388.128,1168.258c-0.85,0-1.608-0.603-1.775-1.468c-5.996-31.179-6.065-65.155-6.065-65.495
					c0-1,0.81-1.809,1.81-1.809c1,0,1.81,0.81,1.81,1.809c0,0.337,0.072,33.979,6,64.811c0.189,0.982-0.454,1.93-1.435,2.119
					C2388.356,1168.247,2388.242,1168.258,2388.128,1168.258z"/>
				<path style="opacity:0.4;fill:#EB5D60;" d="M2551.585,1398.296c-19.111,6.274-39.959,3.041-56.03-8.156
					c4.826-9.894,15.009-16.65,26.736-16.65C2537.059,1373.489,2549.269,1384.204,2551.585,1398.296z"/>
				<path style="opacity:0.4;fill:#EB5D60;" d="M2313.809,1438.884c0,13.32-8.735,24.565-20.8,28.377
					c-3.378-20.366-6.274-39.719-8.687-58.155C2300.682,1409.3,2313.809,1422.523,2313.809,1438.884z"/>
			</g>
			<path style="fill:#102048;" d="M2488.091,882.88c14.93-11,26.485-26.519,32.745-43.975c1.843-5.138,3.172-11.087,0.518-15.858
				c-2.768-4.975-8.976-6.938-14.662-7.221c-5.686-0.284-11.462,0.653-17.04-0.487c-5.578-1.14-11.197-5.238-11.496-10.924
				c-0.322-6.103,5.457-11.252,5.219-17.359c-0.214-5.484-5.266-9.611-10.434-11.459c-5.168-1.848-10.801-2.203-15.876-4.293
				c-5.075-2.09-11.184-12.636-10.622-18.095l-63.888,57.975c0,0,29.208,92.434,30.317,92.434S2488.091,882.88,2488.091,882.88z"/>
			<g>
				<path style="fill:#F9B384;" d="M2733.332,817.999c-4.681,4.247-9.749,8.784-15.299,13.61l-42.42-11.583l-8.397-25.868
					l-3.234-10.039c0,0,40.973-37.982,56.705-50.771c5.26-4.295,1.062,15.443,0.724,17.036c1.834-1.979,37.836-41.794,36.34-21.621
					c0,0,23.647-7.867,12.74,13.272c0,0,20.076-2.558,4.536,17.615C2775.029,759.65,2807.604,750.867,2733.332,817.999z"/>
				<path style="fill:#E28B6D;" d="M2733.332,817.999c-4.681,4.247-9.749,8.784-15.299,13.61l-42.42-11.583l-8.397-25.868
					l7.625-18.243L2733.332,817.999z"/>
				<path style="fill:#1F3C88;" d="M2718.034,831.608c0,0-91.066,73.792-185.559,110.76c-21.041,8.204-42.227,14.623-62.593,18.002
					c-11.148,1.834-22.103,2.799-32.624,2.606l-49.128-101.784c130.302,20.511,286.712-85.279,286.712-85.279L2718.034,831.608z"/>
				<path style="fill:#102048;" d="M2532.474,942.369c-21.041,8.204-42.227,14.623-62.593,18.002l9.121-23.166
					C2479.003,937.205,2500.864,944.058,2532.474,942.369z"/>
				<path style="fill:#1F3C88;" d="M2493.094,1075.957c-110.998,45.849-200.279,13.272-200.279,13.272
					c-10.713-22.442-16.505-56.852-19.642-89.863c-1.689-18.05-2.558-35.714-2.992-50.771c-0.82-25.53-0.29-43.58-0.29-43.58
					l118.237-43.821l98.933,47.055C2501.54,985.466,2493.094,1075.957,2493.094,1075.957z"/>
				<path style="fill:#F9B384;" d="M2125.113,738.126l-6.804,12.162l-12.451,22.249l-44.64,2.509
					c-4.536-6.274-8.639-12.162-12.403-17.567c-59.215-85.52-28.811-69.256-28.811-69.256c-11.148-24.227,8.253-17.133,8.253-17.133
					c-6.322-24.179,12.403-6.563,12.403-6.563c0.804-24.935,34.65,26.206,34.65,26.206s-0.145-23.359,4.344-17.567
					c8.928,11.535,27.219,38.175,37.643,53.522C2122.024,733.541,2125.113,738.126,2125.113,738.126z"/>
				<path style="fill:#E28B6D;" d="M2118.309,750.287l-12.451,22.249l-44.64,2.509c-4.536-6.274-8.639-12.162-12.403-17.567
					l68.481-30.791L2118.309,750.287z"/>
				<path style="fill:#102048;" d="M2296.049,960.515c0,0-7.094,23.117-22.875,38.851c-1.689-18.05-2.558-35.714-2.992-50.771
					L2296.049,960.515z"/>
				<path style="fill:#1F3C88;" d="M2061.232,775.032c0,0,130.842,194.75,250.888,197.766l79.629-114.018
					c-129.296,30.365-274.478-132.116-274.478-132.116L2061.232,775.032z"/>
				<path style="fill:#3A6BEA;" d="M2386.317,917.798c-5.185,0-9.726-0.881-13.495-2.07c-10.906-3.44-18.377-10.514-18.984-12.338
					c-0.317-0.948,0.197-1.973,1.145-2.289c0.887-0.297,1.843,0.136,2.22,0.97c0.79,1.175,8.477,8.909,21.369,11.384
					c13.161,2.527,26.773-1.338,40.453-11.487c0.804-0.595,1.936-0.428,2.532,0.375c0.595,0.802,0.427,1.936-0.376,2.531
					C2407.896,914.731,2395.989,917.798,2386.317,917.798z M2357.27,902.243c0.001,0.001,0.001,0.002,0.001,0.003
					C2357.271,902.245,2357.271,902.244,2357.27,902.243z"/>
			</g>
			<g>
				<path style="fill:#F9B384;" d="M2417.294,794.914v67.662c0,16.15-13.044,29.194-29.193,29.194
					c-16.149,0-29.193-13.044-29.193-29.194v-67.662H2417.294z"/>
				<path style="fill:#102048;" d="M2395.865,817.098c0,0-16.371,27.153-36.958,34.03v-37.403L2395.865,817.098z"/>
				<path style="fill:#F9B384;" d="M2344.104,745.369c0,0-21.444,69.51,1.479,77.645c22.923,8.134,50.282-5.916,50.282-5.916
					l21.444-24.403l2.218-51.024L2344.104,745.369z"/>
				<path style="fill:#102048;" d="M2447.097,767.083l-25.351,24.134c0,0-27.885-16.593-22.758-31.071
					c-24.733-25.337-37.854,2.413-56.102-10.859c0,0,6.051-51.015,67.399-35.715c33.947,8.467,37.342,46.217,37.342,46.217
					L2447.097,767.083z"/>
				<path style="fill:#F9B384;" d="M2430.181,796.361c-3.542,7.518-11.671,11.134-18.156,8.079
					c-6.485-3.056-8.872-11.628-5.33-19.145s11.671-11.135,18.156-8.079C2431.337,780.272,2433.723,788.844,2430.181,796.361z"/>
				<g>
					<path style="fill:#102048;" d="M2343.85,768.772c-0.285,1.734,0.889,3.371,2.623,3.656c1.734,0.285,3.371-0.889,3.656-2.623
						c0.285-1.734-0.889-3.371-2.623-3.656C2345.772,765.863,2344.135,767.038,2343.85,768.772z"/>
					<path style="fill:#102048;" d="M2363.377,773.798c-0.285,1.734,0.889,3.371,2.623,3.656c1.734,0.285,3.371-0.889,3.656-2.623
						c0.285-1.734-0.889-3.371-2.623-3.656C2365.299,770.89,2363.662,772.064,2363.377,773.798z"/>
					<path style="fill:#102048;" d="M2349.779,791.892c-0.052,0-0.104-0.003-0.157-0.011c-1.487-0.209-5.056-0.859-6.049-2.39
						c-0.302-0.466-0.387-1.007-0.238-1.523c0.933-3.243,4.993-6.301,9.292-9.538l0.801-0.603c0.495-0.374,1.198-0.274,1.57,0.219
						c0.374,0.494,0.275,1.197-0.219,1.571l-0.803,0.605c-3.707,2.793-7.538,5.677-8.418,8.153c0.547,0.438,2.51,1.024,4.375,1.287
						c0.614,0.086,1.041,0.653,0.955,1.266C2350.809,791.487,2350.329,791.892,2349.779,791.892z"/>
					<path style="fill:#102048;" d="M2354.803,801.91c-2.743,0-5.37-0.893-7.359-2.655c-0.463-0.411-0.505-1.12-0.095-1.583
						c0.412-0.464,1.119-0.505,1.583-0.096c2.955,2.62,7.748,2.805,11.649,0.451c0.53-0.321,1.219-0.149,1.54,0.381
						c0.319,0.53,0.149,1.219-0.381,1.539C2359.561,801.261,2357.14,801.91,2354.803,801.91z"/>
					<path style="opacity:0.4;fill:#EB5D60;" d="M2372.374,790.087c-0.99,6.017,3.085,11.698,9.102,12.687
						c6.017,0.99,11.697-3.085,12.687-9.102c0.99-6.017-3.085-11.698-9.102-12.687
						C2379.044,779.995,2373.364,784.07,2372.374,790.087z"/>
					<path style="fill:#102048;" d="M2375.756,772.684c-0.336,0-0.67-0.151-0.89-0.438c-5.031-6.554-11.547-3.934-11.612-3.906
						c-0.569,0.24-1.227-0.03-1.466-0.602c-0.238-0.571,0.031-1.228,0.603-1.467c0.083-0.034,8.186-3.295,14.254,4.61
						c0.377,0.492,0.285,1.195-0.207,1.573C2376.234,772.609,2375.994,772.684,2375.756,772.684z"/>
					<path style="fill:#102048;" d="M2353.188,765.705c-0.349,0-0.692-0.162-0.91-0.466c-0.169-0.229-3.838-5.107-10.249-3.175
						c-0.594,0.178-1.219-0.158-1.397-0.751c-0.179-0.593,0.158-1.218,0.75-1.397c7.996-2.407,12.67,3.949,12.716,4.013
						c0.36,0.503,0.245,1.204-0.258,1.565C2353.642,765.636,2353.413,765.705,2353.188,765.705z"/>
				</g>
				<path style="fill:#102048;" d="M2415.275,795.69c-0.554,0-1.02-0.43-1.056-0.99c-0.012-0.193-0.267-4.753,2.631-7.91
					c1.688-1.839,4.059-2.803,7.049-2.869c0.626,0.018,1.07,0.451,1.081,1.036c0.013,0.584-0.451,1.069-1.034,1.081
					c-2.385,0.052-4.245,0.783-5.527,2.172c-2.287,2.481-2.088,6.318-2.086,6.357c0.034,0.583-0.409,1.084-0.992,1.12
					C2415.319,795.689,2415.296,795.69,2415.275,795.69z"/>
			</g>
		</g>
		<rect x="125" y="1818.978" style="fill:#102048;" width="2748.504" height="4.827"/>
	</g>
</g>
</svg>
