<?xml version="1.0" standalone="no"?>
<!DOCTYPE svg PUBLIC "-//W3C//DTD SVG 20010904//EN"
 "http://www.w3.org/TR/2001/REC-SVG-20010904/DTD/svg10.dtd">
<svg version="1.0" xmlns="http://www.w3.org/2000/svg"
 width="1501.000000pt" height="1126.000000pt" viewBox="0 0 1501.000000 1126.000000"
 preserveAspectRatio="xMidYMid meet">

<g transform="translate(0.000000,1126.000000) scale(0.100000,-0.100000)"
fill="#000000" stroke="none">
<path d="M7480 9595 c-11 -13 -11 -19 3 -32 21 -21 49 -9 45 19 -4 28 -30 35
-48 13z"/>
<path d="M3085 9458 c-3 -7 -4 -1129 -3 -2493 l3 -2480 4418 -3 4417 -2 1
1977 c0 1088 3 2203 5 2478 2 274 1 507 -2 517 -5 17 -187 18 -4420 18 -3523
0 -4416 -3 -4419 -12z m3765 -49 c0 -5 -7 -9 -15 -9 -8 0 -15 7 -15 15 0 9 6
12 15 9 8 -4 15 -10 15 -15z m-1715 -168 c-3 -6 -11 -11 -17 -11 -6 0 -6 6 2
15 14 17 26 13 15 -4z m35 -16 c0 -2 -9 -9 -20 -15 -12 -6 -20 -7 -20 -1 0 5
8 12 18 14 9 3 18 5 20 6 1 0 2 -1 2 -4z m190 -157 c0 -4 -10 -13 -22 -19 -21
-11 -22 -11 -9 4 11 14 11 20 0 34 -13 15 -12 15 9 2 12 -8 22 -17 22 -21z
m710 22 c0 -5 -4 -10 -10 -10 -5 0 -10 5 -10 10 0 6 5 10 10 10 6 0 10 -4 10
-10z m5550 -34 c0 -2 -9 -6 -20 -9 -11 -3 -20 -1 -20 4 0 5 9 9 20 9 11 0 20
-2 20 -4z"/>
<path d="M6400 3270 l0 -41 63 7 c83 10 1905 11 2035 1 l102 -8 0 41 0 40
-1100 0 -1100 0 0 -40z"/>
<path d="M10659 1384 c19 -9 70 -19 115 -25 97 -11 366 -12 366 -1 0 4 -71 8
-158 9 -91 0 -196 8 -250 17 -110 19 -118 19 -73 0z"/>
<path d="M10607 1363 c-21 -20 22 -48 59 -39 27 7 32 31 8 40 -21 8 -59 8 -67
-1z"/>
<path d="M11220 1360 c-12 -8 -12 -10 2 -15 24 -10 71 -2 76 13 4 14 -55 17
-78 2z"/>
<path d="M3588 1313 c17 -2 47 -2 65 0 17 2 3 4 -33 4 -36 0 -50 -2 -32 -4z"/>
<path d="M8958 1313 c17 -2 47 -2 65 0 17 2 3 4 -33 4 -36 0 -50 -2 -32 -4z"/>
</g>
</svg>
