<svg width="395" height="456" viewBox="0 0 395 456" fill="none" xmlns="http://www.w3.org/2000/svg">
<path d="M394.335 261.655C394.335 362.82 289.805 455.146 173.321 455.146C56.8367 455.146 0 353.345 0 252.181C0 151.016 83.3047 104.729 199.789 104.729C316.273 104.729 394.335 160.491 394.335 261.655Z" fill="#9A0E6E"/>
<path d="M328.264 277.069L302.599 264.574C298.277 262.47 293.52 262.202 289.226 263.436L287.368 262.579L303.902 257.957C320.926 253.198 332.669 237.493 331.225 220.243C330.826 215.468 329.462 210.692 327.049 206.179V206.179C320.715 194.339 308.726 187.262 296.014 186.458L317.13 136.924H250.141L244.789 112.907H244.769C242.626 102.639 220.557 94.2222 191.455 91.9856L193.275 77.8907C194.277 77.5952 195.253 77.212 196.203 76.7549C200.449 79.8522 205.586 81.8056 211.151 82.1089C213.642 82.2446 216.06 82.0401 218.364 81.5387V81.5392L218.369 81.538C218.485 81.5123 218.602 81.4869 218.718 81.4601C220.305 81.1588 227.043 80.4383 234.678 87.8288C234.942 88.1043 235.211 88.3741 235.486 88.639L235.527 88.6807C235.688 88.8483 235.857 89.0037 236.03 89.1484C240.675 93.3961 246.742 96.137 253.425 96.5012C264.155 97.0862 273.557 91.3857 278.144 82.621L278.145 82.6191C278.266 82.3861 278.386 82.1514 278.5 81.9139C279.656 79.8118 283.699 73.7835 291.809 74.4144C291.997 74.4351 292.187 74.4519 292.376 74.4683L292.41 74.4716V74.4712C292.687 74.4946 292.965 74.5155 293.244 74.5307C308.227 75.3475 320.622 63.9127 320.929 48.9908C321.237 34.0686 309.34 21.3101 294.357 20.4931C291.151 20.3186 288.065 20.7062 285.189 21.5678L285.188 21.5671L285.182 21.5695C285.026 21.6162 284.872 21.6641 284.718 21.7135C283.293 22.0578 278.796 22.4173 273.6 15.4666C273.37 15.1308 273.133 14.8007 272.888 14.4758L272.875 14.4561L272.873 14.4564C268.029 8.01674 260.477 3.64992 251.916 3.18315C239.641 2.51444 229.104 10.0708 225.528 21.0308C224.665 23.2163 221.626 28.9433 213.675 28.1842C213.207 28.1349 212.737 28.0969 212.264 28.071C212.142 28.0644 212.022 28.0653 211.901 28.0603C211.975 27.4517 212.025 26.8354 212.025 26.207C212.025 18.6125 206.442 12.3024 199.072 10.9571C197.076 4.61265 191.035 0 183.89 0C176.285 0 169.936 5.22798 168.38 12.206C141.483 18.3502 138.687 41.7298 153.04 57.2975C151.974 58.1878 151.228 59.3323 150.972 60.6636C150.251 64.4219 153.656 68.201 158.578 69.1041C160.979 69.5448 163.294 69.2149 165.123 68.3298L162.049 91.8724C140.662 93.351 122.898 98.1569 113.751 104.607C112.275 105.521 110.913 106.665 109.737 108.052L59.9282 166.767C53.9145 173.856 54.9186 184.368 62.1712 190.246L62.1715 190.246C65.7677 193.161 70.2248 194.384 74.5382 194.018C75.1099 194.072 75.6879 194.101 76.2716 194.101H123.149L124.122 197.999C121.819 200.395 119.802 203.124 118.168 206.179C115.754 210.691 114.39 215.468 113.991 220.242C112.548 237.493 124.29 253.197 141.314 257.956L157.848 262.579L155.99 263.436C151.696 262.202 146.939 262.469 142.617 264.574L116.952 277.068C107.862 281.493 104.163 292.283 108.691 301.168C113.218 310.053 124.257 313.669 133.347 309.243L159.012 296.749C163.393 294.616 166.506 290.999 168.065 286.834L181.467 280.649L186.834 290.683L221.231 281.067C221.623 281.177 222.015 281.286 222.407 281.396C222.876 281.527 223.211 281.236 223.311 280.879L258.381 290.683L263.749 280.649L277.151 286.834C278.71 290.999 281.823 294.616 286.204 296.749L311.869 309.243C320.959 313.669 331.998 310.053 336.525 301.168C341.053 292.284 337.354 281.494 328.264 277.069ZM115.295 153.748C115.465 153.916 115.699 153.993 115.926 153.942L119.642 170.493C119.362 170.559 119.163 170.78 119.091 171.037L103.727 167.384L115.295 153.748Z" fill="#F39A84"/>
<path d="M331.225 220.243C330.826 215.469 329.462 210.692 327.049 206.18C320.715 194.339 308.726 187.262 296.014 186.458L317.13 136.924H250.141L244.788 112.908H244.769C242.626 102.64 220.557 94.2226 191.454 91.986L190.158 102.02L190.118 102.008L190.084 102.229C189.356 104.273 182.47 103.79 174.703 101.148C167.387 98.6589 161.904 95.1442 161.901 93.0358L161.897 93.0344L162.049 91.873C140.662 93.3517 122.897 98.1575 113.751 104.608C112.274 105.521 110.913 106.666 109.737 108.052L59.9277 166.768C53.914 173.857 54.9181 184.369 62.1707 190.247L62.171 190.247C65.7672 193.162 70.2243 194.385 74.5379 194.018C75.1094 194.073 75.6877 194.102 76.2713 194.102H123.149L124.122 198C121.819 200.395 119.801 203.124 118.167 206.179V206.18C115.754 210.692 114.39 215.468 113.991 220.243C112.547 237.493 124.29 253.198 141.314 257.957L157.848 262.579L173.551 266.969C173.451 267.326 173.585 267.748 174.053 267.879C174.282 267.943 174.51 268.007 174.739 268.071L181.467 280.649L186.834 290.683L221.231 281.067C221.623 281.177 222.015 281.287 222.407 281.396C222.876 281.527 223.211 281.236 223.311 280.879L258.382 290.683L263.749 280.649L275.845 258.035C276.14 258.123 276.472 258.057 276.664 257.711L276.696 257.654L287.368 262.579L303.902 257.957C320.926 253.198 332.669 237.493 331.225 220.243ZM115.294 153.748C115.465 153.916 115.698 153.993 115.926 153.942L119.641 170.493C119.362 170.559 119.163 170.78 119.091 171.037L103.727 167.384L115.294 153.748ZM137.312 189.143V178.666C137.668 178.666 138.012 178.447 138.053 178.027L148.341 179.081C150.512 176.713 153.655 175.214 157.164 175.214C163.606 175.214 168.837 180.241 169.002 186.499H169.007V186.587L169.018 186.801H169.007L169.002 190.547C158.769 185.347 147.218 185.185 137.312 189.143Z" fill="#EB5E3D"/>
<path d="M250.141 136.924H237.512H237.416H211.009L186.226 195.063C186.548 195.201 186.814 195.591 186.67 195.93C186.551 196.211 186.432 196.492 186.313 196.773C186.009 197.49 185.705 198.208 185.401 198.925L197.443 205.079H247.774L276.135 190.586C282.486 187.34 289.35 186.037 296.014 186.458L317.13 136.924L250.141 136.924Z" fill="#BCCBE9"/>
<path d="M123.149 194.102L124.122 198C125.871 196.18 127.788 194.559 129.838 193.146L122.83 192.823L123.149 194.102Z" fill="#BCCBE9"/>
<path d="M184.063 198.242C184.423 197.393 184.783 196.545 185.142 195.696L178.482 195.389L184.063 198.242Z" fill="#BCCBE9"/>
<path d="M331.225 220.243C330.826 215.469 329.462 210.692 327.049 206.18C320.715 194.339 308.726 187.262 296.014 186.458C289.349 186.037 282.486 187.34 276.134 190.586L247.773 205.08L223.424 217.523C223.279 217.449 223.135 217.375 222.99 217.301C222.559 217.081 222.152 217.29 221.96 217.609L197.443 205.08L185.4 198.925C185.705 198.208 186.008 197.49 186.312 196.773C186.431 196.492 186.551 196.211 186.67 195.93C186.813 195.591 186.547 195.201 186.226 195.063L186.141 195.02C185.706 194.903 185.367 195.166 185.21 195.537L185.142 195.696C184.782 196.545 184.423 197.393 184.063 198.242L178.481 195.389L169.082 190.586L169.002 190.548C158.769 185.347 147.218 185.186 137.312 189.143C134.685 190.193 132.177 191.534 129.838 193.147C127.788 194.559 125.871 196.18 124.122 198C121.819 200.395 119.801 203.124 118.167 206.18C115.754 210.692 114.39 215.468 113.991 220.243C112.547 237.493 124.29 253.198 141.314 257.957L157.848 262.579L173.551 266.969C173.451 267.326 173.585 267.748 174.053 267.879C174.282 267.943 174.51 268.007 174.739 268.071L181.467 280.649L186.834 290.683L221.231 281.068C221.623 281.177 222.015 281.287 222.407 281.396C222.876 281.527 223.211 281.236 223.311 280.879L258.381 290.683L263.749 280.649L275.845 258.035C276.14 258.123 276.472 258.057 276.664 257.711L276.696 257.654L287.368 262.579L303.902 257.957C320.926 253.198 332.669 237.493 331.225 220.243Z" fill="#1F1A3C"/>
<path d="M226.772 140.054C222.8 140.107 218.828 140.161 214.856 140.215C214.278 139.592 213.7 138.968 213.123 138.345L212.844 138.045C212.578 137.757 212.041 137.76 211.773 138.045C211.485 138.352 211.489 138.785 211.773 139.091C212.401 139.769 213.03 140.446 213.657 141.123C211.121 147.718 208.584 154.313 206.048 160.907C201.931 171.612 197.814 182.317 193.697 193.021C192.751 195.48 191.805 197.94 190.859 200.399C190.516 201.291 191.979 201.677 192.319 200.792C194.902 194.077 197.484 187.362 200.067 180.647C204.184 169.943 208.301 159.238 212.418 148.534C213.296 146.253 214.173 143.973 215.05 141.692C226.057 141.543 237.064 141.394 248.07 141.245C265.887 141.003 283.703 140.761 301.519 140.52C305.601 140.465 309.684 140.41 313.766 140.354C314.739 140.341 314.742 138.861 313.766 138.874C302.584 139.026 291.403 139.177 280.222 139.329C262.405 139.57 244.589 139.812 226.772 140.054Z" fill="#1F1A3C"/>
<path d="M259.699 164.123C258.462 160.769 255.414 156.62 251.193 157.95C246.079 159.562 244.701 166.512 244.657 171.002C244.7 175.318 245.839 181.061 249.961 183.503C253.648 185.687 257.252 182.899 258.919 179.667C261.315 175.02 261.494 168.99 259.699 164.123ZM258.478 176.79C257.6 179.542 255.131 183.919 251.476 182.588C247.209 181.035 246.208 174.784 246.171 171.002C246.208 167.272 247.067 162.204 250.5 159.919C253.689 157.797 256.572 160.819 257.837 163.546C259.709 167.581 259.817 172.592 258.478 176.79Z" fill="#1F1A3C"/>
<path d="M139.268 285.638C136.108 279.097 138.972 271.29 145.664 268.201L155.99 263.436C151.696 262.202 146.939 262.47 142.617 264.574L116.952 277.068C107.862 281.493 104.163 292.284 108.691 301.169C113.218 310.054 124.257 313.669 133.347 309.244L159.011 296.749C163.393 294.616 166.506 290.999 168.065 286.834L157.107 291.891C150.414 294.98 142.428 292.18 139.268 285.638Z" fill="#EB5E3D"/>
<path d="M328.264 277.068L302.599 264.574C298.277 262.47 293.52 262.202 289.226 263.436L299.551 268.201C306.244 271.29 309.108 279.097 305.948 285.638C302.789 292.18 294.802 294.979 288.109 291.891L277.152 286.834C278.71 290.999 281.823 294.616 286.204 296.749L311.869 309.243C320.959 313.669 331.998 310.053 336.525 301.168C341.052 292.284 337.354 281.493 328.264 277.068Z" fill="#EB5E3D"/>
<path d="M189.571 46.9394C189.326 46.0187 187.865 46.409 188.112 47.3328C189.224 51.5053 190.336 55.6777 191.448 59.8502C191.608 60.447 191.767 61.0436 191.926 61.6404C192.171 62.5614 193.632 62.1708 193.386 61.247C192.273 57.0745 191.161 52.9018 190.049 48.7293C189.889 48.133 189.73 47.5362 189.571 46.9394Z" fill="#1F1A3C"/>
<path d="M198.146 46.3757C197.468 46.0378 196.638 46.3014 196.292 46.9645C195.946 47.6275 196.216 48.4391 196.895 48.7767C197.573 49.1146 198.403 48.8512 198.749 48.188C199.094 47.525 198.825 46.7136 198.146 46.3757Z" fill="#1F1A3C"/>
<path d="M178.598 50.1249C179.276 50.4628 180.106 50.1992 180.452 49.5359C180.797 48.8731 180.528 48.0618 179.849 47.7239C179.171 47.3859 178.341 47.6496 177.995 48.3126C177.649 48.9756 177.919 49.787 178.598 50.1249Z" fill="#1F1A3C"/>
<path d="M184.634 65.846C180.877 65.8206 177.807 62.8197 177.781 59.1475C177.774 58.1954 176.26 58.1933 176.267 59.1475C176.282 61.3064 177.152 63.4004 178.718 64.9305C180.283 66.4606 182.425 67.3108 184.634 67.3258C185.609 67.3324 185.61 65.8526 184.634 65.846Z" fill="#1F1A3C"/>
<path d="M161.191 55.4937C162.094 55.6594 162.944 55.9233 163.729 56.2647C163.83 51.7164 162.894 46.2945 158.823 42.5077C158.823 42.5077 180.063 42.9697 193.392 28.2625C196.701 30.8232 199.708 34.0906 202.148 37.979C211.042 52.1497 209.074 69.1411 197.752 75.9303C197.247 76.2336 196.727 76.5027 196.202 76.7554C200.448 79.8527 205.586 81.8061 211.15 82.1094C213.641 82.2451 216.06 82.0406 218.364 81.5392V81.5396L218.368 81.5384C218.485 81.5128 218.601 81.4874 218.717 81.4606C220.305 81.1592 227.042 80.4388 234.677 87.8293C234.941 88.1048 235.21 88.3746 235.485 88.6394L235.526 88.6812C235.687 88.8487 235.856 89.0042 236.029 89.1489C240.674 93.3966 246.741 96.1374 253.424 96.5017C264.154 97.0866 273.557 91.3862 278.143 82.6215L278.144 82.6196C278.265 82.3866 278.385 82.1519 278.499 81.9143C279.655 79.8123 283.699 73.7839 291.808 74.4149C291.997 74.4356 292.186 74.4524 292.376 74.4688L292.409 74.4721V74.4716C292.686 74.4951 292.964 74.516 293.244 74.5312C308.227 75.348 320.621 63.9132 320.928 48.9912C321.236 34.069 309.339 21.3106 294.357 20.4935C291.15 20.3191 288.065 20.7066 285.188 21.5683L285.187 21.5676L285.181 21.5699C285.026 21.6167 284.872 21.6646 284.717 21.714C283.292 22.0583 278.796 22.4178 273.599 15.467C273.369 15.1313 273.132 14.8012 272.888 14.4763L272.874 14.4566L272.873 14.4569C268.028 8.01722 260.476 3.65041 251.916 3.18364C239.641 2.51493 229.103 10.0713 225.527 21.0313C224.665 23.2168 221.625 28.9438 213.674 28.1847C213.207 28.1353 212.737 28.0974 212.263 28.0715C212.141 28.0649 212.022 28.0658 211.9 28.0608C211.975 27.4522 212.024 26.8359 212.024 26.2075C212.024 18.6129 206.442 12.3029 199.071 10.9576C197.076 4.61314 191.035 0.000488281 183.89 0.000488281C176.284 0.000488281 169.935 5.22846 168.379 12.2065C141.482 18.3507 138.687 41.7303 153.04 57.2979C154.985 55.6748 158.012 54.9107 161.191 55.4937Z" fill="#FDD552"/>
<path d="M138.053 178.027L138.069 177.951C138.069 177.09 138.069 176.23 138.069 175.369C138.069 175.052 137.835 174.732 137.513 174.656C132.396 173.439 127.278 172.222 122.161 171.005C121.442 170.834 120.722 170.663 120.003 170.492C119.87 170.46 119.751 170.467 119.642 170.493C119.362 170.558 119.164 170.78 119.091 171.036C118.991 171.393 119.127 171.806 119.6 171.919C124.718 173.136 129.835 174.352 134.953 175.57C135.487 175.696 136.021 175.824 136.555 175.951C136.555 176.617 136.555 177.284 136.555 177.95C136.555 178.426 136.934 178.665 137.312 178.665C137.667 178.666 138.011 178.447 138.053 178.027Z" fill="#1F1A3C"/>
<path d="M237.512 136.924C237.872 136.905 238.208 136.675 238.185 136.219C237.915 130.758 237.645 125.298 237.374 119.838C237.335 119.052 237.297 118.266 237.258 117.48C237.211 116.532 235.696 116.526 235.744 117.48C236.014 122.94 236.284 128.4 236.555 133.86C236.594 134.647 236.633 135.432 236.671 136.219C236.694 136.672 237.053 136.904 237.416 136.924H237.512Z" fill="#1F1A3C"/>
<path d="M281.641 247.275C275.033 243.898 268.425 240.521 261.817 237.143C251.287 231.762 240.758 226.381 230.228 221C227.96 219.841 225.692 218.682 223.424 217.523C223.28 217.449 223.135 217.375 222.99 217.301C222.559 217.081 222.152 217.29 221.96 217.609C221.769 217.928 221.794 218.358 222.226 218.579C228.834 221.956 235.442 225.333 242.051 228.71C252.58 234.092 263.11 239.472 273.639 244.854C275.835 245.976 278.031 247.098 280.227 248.22C278.604 251.134 276.98 254.05 275.357 256.964C275.083 257.456 275.425 257.908 275.846 258.034C276.14 258.123 276.473 258.056 276.665 257.711L276.697 257.654C278.435 254.531 280.174 251.409 281.913 248.287C282.101 247.948 282.013 247.465 281.641 247.275Z" fill="#BCCBE9"/>
<path d="M222.809 279.969C208.689 276.022 194.568 272.074 180.447 268.127C178.45 267.568 176.453 267.01 174.456 266.452C173.987 266.321 173.652 266.612 173.552 266.969C173.451 267.326 173.585 267.748 174.053 267.879C174.282 267.943 174.51 268.007 174.739 268.07C188.631 271.954 202.523 275.838 216.416 279.721C218.021 280.17 219.626 280.619 221.231 281.068C221.623 281.177 222.015 281.287 222.406 281.396C222.876 281.527 223.211 281.236 223.311 280.879C223.412 280.523 223.278 280.1 222.809 279.969Z" fill="#BCCBE9"/>
<path d="M115.926 153.942C116.055 153.914 116.183 153.855 116.295 153.723C121.085 148.077 125.875 142.43 130.665 136.784C131.346 135.981 132.026 135.179 132.707 134.377C133.325 133.648 132.259 132.596 131.637 133.33C126.847 138.976 122.057 144.623 117.267 150.269C116.586 151.072 115.905 151.874 115.224 152.676C114.916 153.04 115.028 153.486 115.295 153.748C115.465 153.916 115.698 153.992 115.926 153.942Z" fill="#1F1A3C"/>
</svg>
