<svg width="427" height="275" viewBox="0 0 427 275" fill="none" xmlns="http://www.w3.org/2000/svg">
<path d="M402.274 196.738C411.921 162.042 414.472 123.675 405.476 88.7199C399.924 67.1478 389.53 46.6152 373.706 34.8362C355.323 21.1531 331.879 20.9892 311.169 28.1956C290.46 35.4023 271.799 49.2377 253.244 62.5707C234.689 75.9037 215.593 89.0618 194.555 94.6786C161.356 103.542 126.148 92.8889 93.0565 102.334C47.0134 115.477 -5.10626 134.685 12.6908 212.822C17.6833 234.742 38.5744 267.107 44.6431 274.508H368.27C382.359 250.452 394.507 224.672 402.274 196.738Z" fill="#E5ECFF"/>
<path d="M58.7998 52.3303C54.289 64.0262 57.2052 80.2777 66.7407 85.9185C72.5581 89.3599 79.4687 88.4254 85.7158 86.3922C91.9629 84.359 98.0515 81.2955 104.496 80.6532C111.418 79.9634 119.055 81.919 124.838 77.228C130.29 72.8048 132.007 63.3654 129.836 55.831C127.664 48.2966 122.319 42.6289 116.394 39.2295C110.468 35.8303 103.933 34.4044 97.4854 33.0114C82.9891 29.8799 65.7136 34.5298 58.7998 52.3303Z" fill="#E5ECFF"/>
<path d="M75.6468 88.6059C72.2214 88.6059 69.2237 87.8301 66.5983 86.277C62.0151 83.5659 58.6729 78.317 57.1873 71.4976C55.7787 65.0315 56.2589 57.9835 58.5044 52.1611L58.5049 52.1599C61.7257 43.867 67.4958 37.7416 75.191 34.4457C81.8512 31.5929 89.7891 30.9443 97.5427 32.6191C103.927 33.9984 110.529 35.4245 116.533 38.8691C123.301 42.7518 128.135 48.7287 130.144 55.699C132.502 63.8789 130.299 73.2771 125.019 77.5597C120.8 80.9827 115.575 80.9371 110.521 80.8913C108.534 80.8739 106.479 80.8554 104.523 81.0505C100.041 81.4971 95.6418 83.1585 91.3875 84.765C89.562 85.4544 87.6742 86.1673 85.8003 86.7772C82.0559 87.9957 78.6831 88.6059 75.6468 88.6059ZM59.0952 52.5011C56.9143 58.1563 56.4491 65.0056 57.8187 71.2931C59.2547 77.885 62.474 82.9518 66.8833 85.5602C71.689 88.403 77.8218 88.5493 85.6316 86.0074C87.4933 85.4014 89.3747 84.691 91.1941 84.0038C95.4821 82.3845 99.916 80.71 104.469 80.2562C106.454 80.0583 108.523 80.0768 110.525 80.0946C115.48 80.1391 120.604 80.1843 124.657 76.8964C129.695 72.8093 131.789 63.81 129.528 55.963C127.577 49.196 122.864 43.3813 116.255 39.5899C110.329 36.1905 103.771 34.7737 97.4285 33.4037C89.7842 31.7524 81.9633 32.3894 75.4074 35.1974C67.8805 38.4214 62.2397 44.4047 59.0952 52.5011Z" fill="#E5ECFF"/>
<path d="M229.242 265.898V267.214C229.242 271.251 226.539 274.548 223.229 274.548H165.887C162.577 274.548 159.873 271.251 159.873 267.214V265.898C159.873 261.861 162.577 258.564 165.887 258.564H223.229C226.539 258.564 229.242 261.861 229.242 265.898Z" fill="#FBC343"/>
<path d="M239.142 249.915V251.23C239.142 255.267 236.439 258.564 233.129 258.564H175.787C172.477 258.564 169.774 255.267 169.774 251.23V249.915C169.774 245.878 172.477 242.581 175.787 242.581H233.129C233.863 242.581 234.567 242.746 235.218 243.038C237.502 244.079 239.142 246.773 239.142 249.915Z" fill="#FBC343"/>
<path d="M242.475 234.389V235.704C242.475 239.741 239.764 243.038 236.462 243.038H179.112C178.386 243.038 177.682 242.873 177.03 242.581C174.739 241.54 173.099 238.846 173.099 235.704V234.389C173.099 230.352 175.81 227.055 179.112 227.055H236.462C239.764 227.055 242.475 230.352 242.475 234.389Z" fill="#FBC343"/>
<path d="M239.02 218.405V219.721C239.02 223.758 236.309 227.055 233.007 227.055H175.657C172.355 227.055 169.644 223.758 169.644 219.721V218.405C169.644 214.369 172.355 211.072 175.657 211.072H233.007C236.309 211.072 239.02 214.369 239.02 218.405Z" fill="#FBC343"/>
<path d="M233.007 226.598H213.765V227.512H233.007V226.598Z" fill="#E49B31"/>
<path d="M223.229 258.108H210.395V259.021H223.229V258.108Z" fill="#E49B31"/>
<path opacity="0.3" d="M205.353 227.055V227.274C205.353 232.388 204.836 237.53 203.765 242.581C203.751 242.682 203.728 242.791 203.706 242.892C203.698 242.937 203.683 242.992 203.676 243.038C202.447 248.673 200.613 253.888 198.276 258.564C195.056 265.012 190.9 270.437 186.092 274.547H165.887C162.577 274.547 159.874 271.25 159.874 267.213V265.898C159.874 261.861 162.577 258.564 165.887 258.564H175.787C172.477 258.564 169.774 255.267 169.774 251.23V249.915C169.774 245.878 172.477 242.581 175.787 242.581H177.03C174.739 241.54 173.099 238.846 173.099 235.704V234.388C173.099 230.352 175.81 227.054 179.112 227.054H170.665C167.362 227.054 164.651 223.757 164.651 219.721V218.405C164.651 214.368 167.362 211.071 170.665 211.071H203.578C204.731 216.232 205.338 221.62 205.353 227.055Z" fill="#B25834"/>
<path d="M197.215 238.17C194.639 248.975 189.914 258.007 184.087 264.373C178.261 270.739 171.334 274.42 164.339 274.52L116.598 274.329C100.594 274.255 86.066 262.921 79.2887 245.239L78.9516 244.362C75.4468 235.22 74.361 225.292 75.4992 215.775C76.8322 204.569 81.2431 193.956 88.425 185.901L113.498 157.77L160.857 156.839L186.745 188.421C187.367 189.179 187.974 189.965 188.543 190.769C197.859 203.665 201.184 221.529 197.215 238.17Z" fill="#FF9064"/>
<path d="M113.495 157.883L107.56 129.149C122.08 134.72 143.174 124.283 164.391 128.222L160.854 157.188L113.495 157.883Z" fill="#FF9064"/>
<path d="M133.308 246.731V237.774C128.124 237.489 123.094 235.791 120.155 233.717L122.476 222.677C125.724 224.844 130.291 226.826 135.318 226.826C139.727 226.826 142.745 224.751 142.745 220.979C142.745 217.392 140.269 215.125 134.546 212.766C126.266 209.371 120.618 204.654 120.618 195.504C120.618 187.199 125.415 180.691 133.693 178.709V169.744H141.274V178.049C146.458 178.333 149.942 179.647 152.493 181.16L150.251 191.824C148.238 190.787 144.679 188.612 139.11 188.612C134.08 188.612 132.455 191.255 132.455 193.898C132.455 197.01 135.164 198.992 141.74 202.011C150.947 205.975 154.66 211.161 154.66 219.658C154.66 228.055 149.785 235.223 140.89 237.113V246.732L133.308 246.731Z" fill="white"/>
<path d="M162.534 161.155H110.932C109.355 161.155 108.065 159.581 108.065 157.658V156.643C108.065 154.719 109.355 153.146 110.932 153.146H162.534C164.111 153.146 165.401 154.719 165.401 156.643V157.658C165.401 159.582 164.11 161.155 162.534 161.155Z" fill="#B25834"/>
<path opacity="0.3" d="M197.215 238.17C194.639 248.974 189.914 258.007 184.087 264.373C178.261 270.739 171.334 274.42 164.339 274.52L116.598 274.328C100.594 274.255 86.066 262.921 79.2887 245.239L78.9516 244.362C75.4468 235.22 74.361 225.292 75.4992 215.775C92.6961 257.271 125.817 273.805 156.101 258.488C182.29 245.245 185.877 206.341 188.543 190.768C197.859 203.665 201.184 221.529 197.215 238.17Z" fill="#B25834"/>
<path d="M312.359 274.546H253.489C250.601 274.546 248.238 271.665 248.238 268.143V264.967C248.238 261.445 250.601 258.563 253.489 258.563H312.359C315.247 258.563 317.61 261.445 317.61 264.967V268.143C317.61 271.664 315.247 274.546 312.359 274.546Z" fill="#FBC343"/>
<path d="M314.855 258.563H255.985C253.097 258.563 250.734 255.681 250.734 252.159V248.983C250.734 245.461 253.097 242.58 255.985 242.58H314.856C317.744 242.58 320.106 245.461 320.106 248.983V252.159C320.106 255.681 317.744 258.563 314.855 258.563Z" fill="#FBC343"/>
<path d="M310.777 242.58H251.907C249.019 242.58 246.656 239.698 246.656 236.176V233C246.656 229.478 249.019 226.597 251.907 226.597H310.777C313.665 226.597 316.028 229.478 316.028 233V236.176C316.028 239.698 313.665 242.58 310.777 242.58Z" fill="#FBC343"/>
<path d="M316.654 217.949V219.264C316.654 223.301 313.943 226.598 310.641 226.598H253.291C250.4 226.598 247.967 224.077 247.397 220.735C247.323 220.26 247.278 219.766 247.278 219.264V217.949C247.278 213.912 249.989 210.615 253.291 210.615H310.641C313.943 210.615 316.654 213.912 316.654 217.949Z" fill="#FBC343"/>
<path d="M312.618 201.966V203.281C312.618 207.318 309.914 210.615 306.604 210.615H249.262C245.952 210.615 243.249 207.318 243.249 203.281V201.966C243.249 197.929 245.952 194.632 249.262 194.632H306.604C309.914 194.632 312.618 197.929 312.618 201.966Z" fill="#FBC343"/>
<path d="M317.65 185.983V187.298C317.65 191.335 314.947 194.632 311.636 194.632H254.295C250.985 194.632 248.281 191.335 248.281 187.298V185.983C248.281 181.946 250.985 178.649 254.295 178.649H311.636C314.947 178.649 317.65 181.946 317.65 185.983Z" fill="#FBC343"/>
<path d="M317.65 169.999V171.315C317.65 175.352 314.947 178.649 311.636 178.649H254.295C250.985 178.649 248.281 175.352 248.281 171.315V169.999C248.281 165.963 250.985 162.666 254.295 162.666H311.636C314.947 162.666 317.65 165.963 317.65 169.999Z" fill="#FBC343"/>
<path d="M298.264 178.196L298.255 179.109L312.857 179.339L312.867 178.426L298.264 178.196Z" fill="#E49B31"/>
<path d="M306.604 194.174H265.275V195.087H306.604V194.174Z" fill="#E49B31"/>
<path d="M306.604 210.157H289.402V211.07H306.604V210.157Z" fill="#E49B31"/>
<path d="M298.014 226.14H266.773V227.053H298.014V226.14Z" fill="#E49B31"/>
<path d="M284.535 178.191H254.292V179.104H284.535V178.191Z" fill="#E49B31"/>
<path d="M310.015 242.123H294.02V243.037H310.015V242.123Z" fill="#E49B31"/>
<path d="M311.597 258.106H272.677V259.02H311.597V258.106Z" fill="#E49B31"/>
<path opacity="0.15" d="M280.918 162.666V220.735H247.398C247.323 220.26 247.278 219.766 247.278 219.264V217.949C247.278 213.912 249.989 210.615 253.292 210.615H249.263C245.952 210.615 243.249 207.318 243.249 203.281V201.966C243.249 197.929 245.952 194.632 249.263 194.632H254.295C250.985 194.632 248.281 191.335 248.281 187.298V185.982C248.281 181.946 250.985 178.649 254.295 178.649C250.985 178.649 248.281 175.352 248.281 171.315V169.999C248.281 165.962 250.985 162.665 254.295 162.665H280.918V162.666Z" fill="#102048"/>
<path d="M240.912 238.645H180.785V247.248H240.912V238.645Z" fill="#1F3C88"/>
<path d="M191.823 238.645L189.981 247.248H180.785V238.645H191.823Z" fill="#102048"/>
<path d="M240.912 238.645V247.248H231.709L229.866 238.645H240.912Z" fill="#102048"/>
<path d="M192.819 206.468L188.723 223.401L176.359 274.511H169.866L180.276 223.401L183.72 206.468H192.819Z" fill="#1F3C88"/>
<path d="M183.72 206.468H192.819L188.723 223.401H180.276L183.72 206.468Z" fill="#102048"/>
<path d="M251.329 274.511H244.829L232.473 223.401L228.376 206.468H237.468L240.92 223.401L251.329 274.511Z" fill="#1F3C88"/>
<path d="M240.92 223.401H232.473L228.376 206.468H237.468L240.92 223.401Z" fill="#102048"/>
<path d="M273.921 4.35693H147.273V214.545H273.921V4.35693Z" fill="#7D69ED"/>
<path d="M277.197 0H143.998V14.5716H277.197V0Z" fill="#1F3C88"/>
<path d="M277.197 4.47375H143.997V7.2598H277.197V4.47375Z" fill="#102048"/>
<path d="M216.338 183.9H204.857C198.416 183.9 193.195 177.533 193.195 169.678V167.613H228V169.678C228 177.533 222.779 183.9 216.338 183.9Z" fill="#102048"/>
<path d="M247.169 83.5851C247.169 58.3536 229.99 38.0155 209.119 39.0183C190.507 39.9127 175.235 58.1057 174.096 80.78C173.612 90.4144 175.64 99.4357 179.455 106.969C185.688 119.276 189.254 133.31 189.254 147.774V148.281H231.941V147.771C231.941 133.39 235.382 119.37 241.633 107.177C245.141 100.336 247.169 92.2506 247.169 83.5851Z" fill="#FBC343"/>
<path d="M199.928 144.103L196.181 98.8437V98.8208C196.181 96.6804 197.609 94.9392 199.364 94.9392C201.119 94.9392 202.547 96.6804 202.547 98.8208V106.284C202.547 107.921 203.639 109.253 204.981 109.253C206.323 109.253 207.415 107.921 207.415 106.284V98.8208C207.415 96.6804 208.842 94.9392 210.597 94.9392C212.352 94.9392 213.78 96.6804 213.78 98.8208V106.557C213.78 108.194 214.872 109.526 216.214 109.526C217.556 109.526 218.648 108.194 218.648 106.557V98.8208C218.648 96.6804 220.076 94.9392 221.831 94.9392C223.586 94.9392 225.013 96.6804 225.013 98.8208L225.011 98.8761L220.517 143.884L219.774 143.773L224.264 98.7941C224.253 97.1696 223.165 95.8525 221.831 95.8525C220.489 95.8525 219.397 97.1842 219.397 98.821V106.558C219.397 108.698 217.969 110.439 216.214 110.439C214.459 110.439 213.031 108.698 213.031 106.558V98.821C213.031 97.1842 211.939 95.8525 210.597 95.8525C209.255 95.8525 208.163 97.1842 208.163 98.821V106.285C208.163 108.425 206.736 110.166 204.981 110.166C203.226 110.166 201.798 108.425 201.798 106.285V98.821C201.798 97.1842 200.706 95.8525 199.364 95.8525C198.028 95.8525 196.94 97.1721 196.93 98.7987L200.673 144.011L199.928 144.103Z" fill="#102048"/>
<path d="M233.212 153.761H187.983C186.005 153.761 184.387 151.787 184.387 149.374V148.1C184.387 145.688 186.005 143.714 187.983 143.714H233.212C235.19 143.714 236.808 145.688 236.808 148.1V149.375C236.808 151.787 235.19 153.761 233.212 153.761Z" fill="#1F3C88"/>
<path d="M233.212 163.807H187.983C186.005 163.807 184.387 161.833 184.387 159.421V158.147C184.387 155.734 186.005 153.761 187.983 153.761H233.212C235.19 153.761 236.809 155.734 236.809 158.147V159.421C236.808 161.833 235.19 163.807 233.212 163.807Z" fill="#1F3C88"/>
<path d="M233.212 173.854H187.983C186.005 173.854 184.387 171.88 184.387 169.467V168.193C184.387 165.781 186.005 163.807 187.983 163.807H233.212C235.19 163.807 236.808 165.781 236.808 168.193V169.468C236.808 171.88 235.19 173.854 233.212 173.854Z" fill="#1F3C88"/>
<path d="M232.689 153.304H221.816V154.217H232.689V153.304Z" fill="#3A6BEA"/>
<path d="M212.08 153.304H188.505V154.217H212.08V153.304Z" fill="#3A6BEA"/>
<path d="M232.689 163.35H206.745V164.264H232.689V163.35Z" fill="#3A6BEA"/>
<path d="M198.039 163.35H188.505V164.264H198.039V163.35Z" fill="#3A6BEA"/>
<path d="M88.3325 244.196L90.6369 266.86L115.172 261.238C112.262 256.522 106.886 254.284 100.582 252.978L99.7482 240.07L88.3325 244.196Z" fill="#102048"/>
<path d="M95.1386 254.246L94.4789 249.107L100.292 246.97L100.508 247.845L95.3198 249.752L95.7666 253.232L100.537 252.525L100.627 253.432L95.1386 254.246Z" fill="white"/>
<path d="M104.663 258.663L104.039 258.159C105.315 255.804 106.956 254.616 107.026 254.567L107.404 255.355C107.389 255.366 105.84 256.493 104.663 258.663Z" fill="white"/>
<path d="M55.5019 249.62L52.1943 274.508H77.8435C76.0268 269.038 71.3028 265.19 65.4869 261.95L67.7336 250.305L55.5019 249.62Z" fill="#102048"/>
<path d="M65.4349 262.402L59.9594 261.467L60.4058 256.294L66.4732 256.053L66.4976 256.966L61.0822 257.181L60.7798 260.685L65.5389 261.498L65.4349 262.402Z" fill="white"/>
<path d="M68.232 268.724L67.7345 268.041C69.4649 266.166 71.3011 265.533 71.3784 265.507L71.5776 266.387L71.478 265.947L71.5781 266.387C71.5607 266.393 69.8262 266.996 68.232 268.724Z" fill="white"/>
<path d="M100.787 242.999L86.6523 247.798C85.5134 248.185 84.3755 247.179 84.3223 245.739L82.9809 209.428L82.2321 199.472L81.4532 189.143C81.4532 189.143 78.2181 185.152 73.3578 177.763C70.9538 174.109 68.1456 169.616 65.1426 164.355C62.5591 159.852 61.2185 155.916 60.627 152.592C59.7283 147.605 60.5072 143.988 61.286 141.878C61.8102 140.444 62.342 139.705 62.342 139.705L75.2227 132.097L77.5218 130.736L84.3667 144.335L84.5315 144.673L99.2096 173.826C101.876 178.119 103.388 183.307 103.546 188.695L103.053 239.406C103.036 241.085 102.113 242.548 100.787 242.999Z" fill="#1F3C88"/>
<path d="M82.9808 209.428L82.2319 199.472L81.4531 189.143C81.4531 189.143 78.2179 185.152 73.3576 177.763L73.7246 172.639C73.7246 172.639 93.6673 187.234 82.9808 209.428Z" fill="#102048"/>
<path d="M82.2319 199.472C82.1346 200.212 82.0148 200.952 81.8725 201.683L72.2701 250.256C71.9505 251.872 70.7645 253.011 69.401 253.011H55.3009C53.458 253.011 52.0659 250.974 52.398 248.764L60.4921 194.86C60.4921 194.86 55.5046 183.9 50.2624 165.634C48.7721 160.437 48.3528 156.199 48.5176 152.802C48.9146 144.253 53.0035 140.974 53.0035 140.974L61.286 141.879L66.9851 142.5L69.7484 151.076L80.9817 185.937C82.3668 190.248 82.7937 194.915 82.2319 199.472Z" fill="#1F3C88"/>
<path d="M81.9624 201.025C81.9357 201.025 81.9085 201.02 81.8815 201.011C81.733 200.956 81.6486 200.765 81.6931 200.584C83.7652 192.16 79.6249 180.703 75.2415 168.573C74.9414 167.742 74.6405 166.91 74.3409 166.076L74.2675 165.872L78.3848 160.38C78.4895 160.24 78.6672 160.231 78.7816 160.358C78.8961 160.486 78.904 160.702 78.7994 160.842L74.9287 166.005C75.2038 166.77 75.4799 167.535 75.7554 168.297C80.1819 180.546 84.3628 192.116 82.2311 200.782C82.1948 200.929 82.0832 201.025 81.9624 201.025Z" fill="#3A6BEA"/>
<path d="M58.1857 253.427C58.1658 253.427 58.1457 253.424 58.1253 253.419C57.9739 253.379 57.8778 253.196 57.911 253.011L66.3904 205.737C67.6186 198.889 66.8568 191.691 64.2453 185.467C60.397 176.295 55.634 162.895 54.7973 151.145C54.2928 144.059 55.4479 140.958 55.4974 140.829C55.5631 140.658 55.73 140.584 55.8709 140.664C56.0112 140.744 56.0716 140.948 56.0062 141.119C55.9948 141.149 54.8573 144.24 55.3637 151.179C56.2115 162.8 60.9334 176.069 64.7453 185.155C67.4159 191.52 68.1949 198.881 66.9391 205.883L58.4597 253.158C58.431 253.318 58.3148 253.427 58.1857 253.427Z" fill="#3A6BEA"/>
<path opacity="0.6" d="M84.5837 144.627C84.5837 144.627 84.5686 144.645 84.5312 144.673C84.0071 145.093 79.1992 148.765 69.7483 151.075C67.0824 151.724 64.0419 152.263 60.627 152.591C57.0175 152.938 52.9885 153.048 48.5177 152.801C48.9146 144.253 53.0035 140.974 53.0035 140.974L61.2861 141.878C61.8103 140.444 62.3421 139.704 62.3421 139.704L75.2228 132.096L84.3666 144.335L84.5837 144.627Z" fill="#102048"/>
<path d="M113.43 73.8815C112.779 75.2514 112.03 76.7767 111.161 78.4847L105.417 78.028L104.848 76.2196L103.425 71.7169C103.425 71.7169 103.62 71.1872 103.927 70.3561C103.935 70.3561 103.935 70.347 103.935 70.347C105.148 67.123 108.143 59.3687 108.787 59.9168C109.604 60.6019 109.349 63.1133 109.349 63.1133C109.349 63.1133 113.033 53.5966 113.408 57.5605C113.408 57.5605 116.216 55.1219 115.407 59.5332C115.407 59.5332 117.901 58.2454 116.463 62.6569C116.463 62.6569 120.14 59.8712 113.43 73.8815Z" fill="#F9B384"/>
<path d="M113.43 73.8814C112.779 75.2514 112.03 76.7767 111.161 78.4846L105.417 78.028L104.848 76.2196L103.927 70.356V70.3469H103.934L113.43 73.8814Z" fill="#E28B6D"/>
<path d="M28.6046 74.7582L26.6051 81.0784L20.8687 81.5351C20.2171 80.2563 19.633 79.0783 19.1014 77.9913C11.7024 62.7846 15.5592 65.698 15.5592 65.698C14.1287 61.2867 16.6226 62.5836 16.6226 62.5836C15.8138 58.1631 18.622 60.6016 18.622 60.6016C18.9965 56.647 22.6735 66.1546 22.6735 66.1546C22.6735 66.1546 22.4264 63.643 23.2353 62.9579C24.0514 62.273 28.6046 74.7582 28.6046 74.7582Z" fill="#F9B384"/>
<path d="M28.6045 74.7582L26.6051 81.0784L20.8687 81.5351C20.2171 80.2563 19.633 79.0783 19.1013 77.9913L28.6045 74.7582Z" fill="#E28B6D"/>
<path d="M112.794 78.4116C110.023 87.3804 101.523 98.6965 94.9255 106.578C90.2075 112.214 86.4557 116.086 86.4557 116.086C86.4557 116.086 86.3584 116.89 86.2161 118.178C85.6619 123.137 84.4038 135.33 85.1452 137.321C86.0812 139.832 88.5152 141.887 85.7068 144.171C82.8985 146.454 66.0487 146.911 55.1899 145.769C44.3311 144.627 48.0755 141.659 50.135 137.777C52.1943 133.896 52.9432 116.086 52.9432 116.086C37.7784 115.553 18.6819 83.587 18.6819 83.587L28.6045 74.7582C45.6415 103.299 68.2952 98.0479 68.2952 98.0479L70.9163 98.8516C70.9163 98.8516 82.0223 102.313 103.927 70.3469L112.794 78.4116Z" fill="#86A7FF"/>
<path d="M69.0363 109.243C66.3328 109.243 64.2182 107.174 64.1855 107.142C64.0657 107.022 64.0481 106.806 64.1463 106.66C64.2446 106.514 64.4215 106.492 64.5416 106.612C64.7326 106.802 69.2678 111.219 73.4011 106.178C73.5108 106.044 73.6888 106.044 73.7982 106.178C73.9079 106.312 73.9079 106.529 73.7983 106.662C72.1994 108.612 70.528 109.243 69.0363 109.243Z" fill="#1F3C88"/>
<path opacity="0.6" d="M52.9432 116.086C52.9432 116.086 55.1898 116.733 56.8748 116.847C56.8748 116.847 54.3472 121.338 52.5688 121.909L52.9432 116.086Z" fill="#1F3C88"/>
<path opacity="0.6" d="M94.9255 106.578C90.2075 112.214 86.4557 116.086 86.4557 116.086L86.8974 110.743C88.6125 110.214 91.3682 109.063 94.9255 106.578Z" fill="#1F3C88"/>
<path d="M33.5402 103.862C33.408 103.862 33.2904 103.748 33.2648 103.584C33.2358 103.398 33.3357 103.219 33.4881 103.183C35.9421 102.613 37.644 99.4254 37.661 99.3932C37.7448 99.2341 37.9184 99.1879 38.0489 99.2897C38.1794 99.3917 38.2176 99.6033 38.1339 99.7624C38.0599 99.9038 36.2878 103.23 33.5932 103.856C33.5753 103.86 33.5576 103.862 33.5402 103.862Z" fill="#1F3C88"/>
<path d="M102.49 96.7172C102.464 96.7172 102.439 96.713 102.413 96.7041C99.7745 95.7901 98.2508 92.2853 98.1872 92.1363C98.1155 91.9687 98.1689 91.762 98.3063 91.6746C98.4438 91.5866 98.6133 91.6521 98.6851 91.8195C98.6996 91.8534 100.163 95.2127 102.566 96.0452C102.716 96.0968 102.802 96.2863 102.76 96.4681C102.725 96.619 102.612 96.7172 102.49 96.7172Z" fill="#1F3C88"/>
<path d="M73.0811 87.1431V100.165C73.0811 102.931 71.0889 105.176 68.635 105.176C66.181 105.176 64.1888 102.931 64.1888 100.165V87.1431H73.0811Z" fill="#F9B384"/>
<path d="M73.0811 90.2666V97.7904C69.3711 96.8549 66.8956 91.21 66.8956 91.21L73.0811 90.2666Z" fill="#102048"/>
<path d="M74.3869 76.8431C74.3869 76.8431 77.4809 92.9349 72.0526 93.5176C65.1053 94.2632 63.1601 86.875 63.1601 86.875L62.9377 78.7411L67.106 74.3353L74.3869 76.8431Z" fill="#F9B384"/>
<path d="M64.8785 84.1484C66.9847 83.8916 64.8083 81.6653 66.1317 80.7066C66.6501 80.3311 67.581 80.7749 67.9676 80.2096C68.5753 79.321 68.2674 78.8162 68.8803 77.9264C69.3718 77.213 70.4228 77.6914 70.8525 78.1605C72.1342 79.56 74.2411 79.6037 75.6062 78.3278C76.9713 77.0517 77.4965 74.6292 76.8975 72.6607C76.5782 71.611 75.9434 70.671 75.0911 70.2586C74.2389 69.8461 73.1719 70.0465 72.5574 70.8775C72.2495 71.2938 72.0495 71.8538 71.6468 72.1236C71.0446 72.5273 70.2968 72.0947 69.7597 71.5712C69.1497 70.9766 68.6176 70.2507 67.9362 69.7857C67.2549 69.3209 66.343 69.175 65.7292 69.7636C65.113 70.3544 64.9337 71.5368 64.2095 71.9011C63.782 72.1161 63.2989 71.9681 62.8406 71.8933C62.3823 71.8186 61.8414 71.863 61.5678 72.3183C60.9885 73.2824 62.2313 74.7651 61.6795 75.7528C61.3305 76.3773 60.5725 76.2563 59.9538 76.2306C59.1213 76.196 58.2389 76.5067 57.6944 77.2769C57.1499 78.047 57.0635 79.3257 57.6429 80.0569C58.0799 80.6084 58.8337 80.8406 59.0116 81.5766C59.1649 82.2115 58.7915 82.8322 58.5853 83.4444C58.1724 84.6698 58.4678 86.1756 59.2406 87.1057C60.0134 88.0358 61.2017 88.3808 62.2554 88.0657C63.1596 87.7953 64.1161 86.9954 64.5563 85.9691C64.7941 85.415 64.5261 85.0562 64.345 84.5447C64.1336 83.947 64.3451 84.2135 64.8785 84.1484Z" fill="#102048"/>
<path d="M64.6996 89.4675C65.9281 88.8296 66.4197 86.8676 65.7975 85.0852C65.1753 83.3027 63.6749 82.3749 62.4464 83.0127C61.2178 83.6505 60.7263 85.6125 61.3485 87.395C61.9707 89.1774 63.471 90.1053 64.6996 89.4675Z" fill="#F9B384"/>
<path d="M64.4418 87.3952C64.3487 87.3952 64.2678 87.3104 64.2562 87.1946C64.1808 86.4435 63.9922 85.936 63.6798 85.6423C63.3844 85.3646 62.9682 85.2751 62.4083 85.3682C62.3061 85.3845 62.2116 85.2976 62.1974 85.1729C62.1835 85.048 62.2552 84.9328 62.3576 84.9158C63.0228 84.8052 63.5295 84.9245 63.9083 85.2806C64.3041 85.6527 64.5395 86.2607 64.6277 87.1394C64.6402 87.2645 64.5672 87.3784 64.4646 87.3937C64.4571 87.3947 64.4494 87.3952 64.4418 87.3952Z" fill="#102048"/>
<path d="M74.4708 83.6432C74.4708 84.0011 74.233 84.2912 73.9395 84.2912C73.6461 84.2912 73.4082 84.0011 73.4082 83.6432C73.4082 83.2854 73.6461 82.9952 73.9395 82.9952C74.233 82.9952 74.4708 83.2854 74.4708 83.6432Z" fill="#102048"/>
<path d="M71.1169 84.008C71.1169 84.3658 70.879 84.6559 70.5855 84.6559C70.2921 84.6559 70.0542 84.3658 70.0542 84.008C70.0542 83.6501 70.2921 83.36 70.5855 83.36C70.879 83.3598 71.1169 83.6501 71.1169 84.008Z" fill="#102048"/>
<path d="M72.9875 88.0978C72.9525 88.0978 72.9208 88.0973 72.8933 88.0965C72.79 88.0935 72.7082 87.9888 72.7105 87.8628C72.713 87.7368 72.8023 87.6436 72.9022 87.6399C73.2149 87.6482 73.5561 87.596 73.6579 87.5259C73.5803 86.9998 73.0282 86.2945 72.4938 85.6117L72.376 85.4609C72.3046 85.3695 72.3076 85.2251 72.3825 85.138C72.4575 85.0516 72.5759 85.0546 72.6472 85.146L72.7647 85.2963C73.3843 86.0881 73.9696 86.836 74.0354 87.5178C74.046 87.6264 74.0173 87.7322 73.9547 87.816C73.772 88.0609 73.272 88.0978 72.9875 88.0978Z" fill="#102048"/>
<path d="M72.0997 89.9738C71.6067 89.9738 71.0943 89.7495 70.6779 89.3169C70.5992 89.2352 70.5897 89.0912 70.6568 88.995C70.7238 88.8989 70.842 88.8877 70.9207 88.9693C71.5 89.5713 72.2946 89.6924 72.8527 89.2637C72.9402 89.1964 73.0556 89.2285 73.1109 89.3353C73.166 89.442 73.1397 89.583 73.0522 89.6502C72.7689 89.8676 72.4388 89.9738 72.0997 89.9738Z" fill="#102048"/>
<path opacity="0.4" d="M68.209 88.2647C68.9126 88.2221 69.4544 87.4919 69.4191 86.6338C69.3839 85.7757 68.785 85.1146 68.0815 85.1573C67.378 85.1999 66.8362 85.9301 66.8714 86.7881C66.9066 87.6462 67.5055 88.3073 68.209 88.2647Z" fill="#EB5D60"/>
<path d="M69.1377 83.3777C69.0877 83.3777 69.0379 83.3535 69.0011 83.3056C68.9304 83.2134 68.9343 83.069 69.0097 82.9827C70.2244 81.5944 71.4711 82.5181 71.4838 82.5274C71.5715 82.5942 71.598 82.7352 71.5434 82.8421C71.4885 82.9487 71.3732 82.9812 71.2858 82.915C71.2431 82.883 70.2649 82.1735 69.2659 83.3158C69.2296 83.3573 69.1835 83.3777 69.1377 83.3777Z" fill="#102048"/>
<path d="M73.046 82.7209C72.9979 82.7209 72.9498 82.6984 72.9134 82.6535C72.8406 82.5642 72.8406 82.4204 72.9135 82.3314C72.923 82.3201 73.8652 81.1977 75.1175 81.9454C75.2103 82.001 75.2488 82.1376 75.2033 82.2508C75.1578 82.364 75.0458 82.4111 74.9528 82.3555C73.945 81.7531 73.2087 82.6178 73.1778 82.6549C73.1413 82.6989 73.0937 82.7209 73.046 82.7209Z" fill="#102048"/>
<path d="M357.5 253.577C349.282 262.741 344.2 264.851 341.509 265.116C339.215 270.89 336.956 274.547 336.956 274.547C349.687 275.004 354.368 264.501 354.368 264.501L356.989 274.776H360.546L357.5 253.577Z" fill="#102048"/>
<path d="M341.51 265.113C342.708 262.09 343.921 258.5 344.82 254.527C340.911 236.425 338.222 220.844 336.425 207.491C335.901 203.637 335.451 199.975 335.077 196.486C334.523 191.399 334.103 186.686 333.811 182.339L348.377 177.051C348.377 177.051 350.062 223.63 357.363 252.628L357.498 253.578C349.283 262.738 344.198 264.848 341.51 265.113Z" fill="#F9B384"/>
<path d="M392.751 164.827C401.612 172.305 404.341 177.697 405.127 180.737C410.088 182.13 413.405 183.94 413.405 183.94C411.011 169.193 401.876 166.074 401.876 166.074L409.259 160.841L408.492 156.748L392.751 164.827Z" fill="#102048"/>
<path d="M405.127 180.74C402.528 180.009 399.488 179.388 396.223 179.215C387.843 187.225 381.777 191.572 377.635 193.919C377.276 194.12 376.917 194.294 376.55 194.44C373.584 195.627 370.349 195.015 367.855 192.896C366.956 192.138 366.148 191.188 365.489 190.056C363.564 186.759 361.864 182.96 360.299 178.877C360.299 178.877 371.188 179.845 392.044 165.186L392.748 164.83C401.615 172.301 404.341 177.699 405.127 180.74Z" fill="#F9B384"/>
<path d="M376.557 174.383C371.39 177.909 366.26 180.201 361.4 181.644C356.862 183.005 352.563 183.608 348.699 183.772C342.168 184.065 336.889 183.097 333.811 182.338C331.459 147.86 336.395 135.951 336.395 135.951L350.309 129.713L355.791 130.9L367.473 133.439C367.78 135.859 368.11 138.17 368.447 140.381C371.764 162.008 376.258 173.616 376.542 174.347C376.55 174.374 376.557 174.383 376.557 174.383Z" fill="#ED7545"/>
<path d="M368.447 140.38C351.844 145.267 336.395 135.951 336.395 135.951L355.791 130.9L367.473 133.439C367.78 135.859 368.11 138.17 368.447 140.38Z" fill="#BA5C36"/>
<path d="M344.992 178.52C338.223 178.52 333.467 177.551 333.415 177.54C333.262 177.508 333.159 177.332 333.185 177.145C333.211 176.959 333.358 176.833 333.509 176.865C333.568 176.877 339.451 178.074 347.446 177.792C354.813 177.532 365.533 175.925 374.765 169.748C374.9 169.657 375.072 169.717 375.146 169.884C375.221 170.049 375.171 170.258 375.035 170.349C365.702 176.593 354.882 178.216 347.449 178.477C346.606 178.507 345.785 178.52 344.992 178.52Z" fill="#BA5C36"/>
<path d="M351.185 150.907C351.053 150.907 350.935 150.793 350.909 150.629C349.979 144.728 349.968 138.299 349.968 138.234C349.968 138.045 350.094 137.892 350.249 137.892C350.404 137.892 350.53 138.045 350.53 138.234C350.53 138.298 350.541 144.665 351.461 150.499C351.49 150.685 351.391 150.865 351.238 150.9C351.22 150.905 351.202 150.907 351.185 150.907Z" fill="#BA5C36"/>
<path opacity="0.4" d="M376.55 194.44C373.584 195.627 370.349 195.015 367.855 192.897C368.604 191.024 370.184 189.746 372.004 189.746C374.295 189.745 376.19 191.773 376.55 194.44Z" fill="#EB5D60"/>
<path opacity="0.4" d="M339.652 202.121C339.652 204.642 338.297 206.77 336.425 207.491C335.9 203.637 335.451 199.975 335.077 196.486C337.615 196.522 339.652 199.025 339.652 202.121Z" fill="#EB5D60"/>
<path d="M366.697 96.9006C369.014 94.8189 370.807 91.882 371.778 88.5786C372.064 87.6062 372.27 86.4804 371.859 85.5775C371.429 84.636 370.466 84.2645 369.583 84.211C368.701 84.1572 367.805 84.3346 366.939 84.1188C366.074 83.9031 365.202 83.1276 365.155 82.0515C365.105 80.8966 366.002 79.9222 365.965 78.7664C365.932 77.7286 365.148 76.9476 364.346 76.5979C363.544 76.2482 362.67 76.181 361.882 75.7855C361.095 75.3899 360.147 73.3942 360.234 72.3611L350.32 83.3325C350.32 83.3325 354.853 100.825 355.025 100.825C355.197 100.825 366.697 96.9006 366.697 96.9006Z" fill="#102048"/>
<path d="M404.753 84.6223C404.026 85.426 403.24 86.2846 402.378 87.1979L395.796 85.0059L394.493 80.1105L393.991 78.2107C393.991 78.2107 400.349 71.0228 402.79 68.6026C403.607 67.7898 402.955 71.525 402.903 71.8265C403.187 71.452 408.774 63.9172 408.542 67.7349C408.542 67.7349 412.211 66.2461 410.519 70.2465C410.519 70.2465 413.634 69.7624 411.223 73.5801C411.223 73.5801 416.278 71.9179 404.753 84.6223Z" fill="#F9B384"/>
<path d="M404.753 84.6222C404.026 85.426 403.24 86.2846 402.379 87.1978L395.796 85.0058L394.493 80.1105L395.676 76.6581L404.753 84.6222Z" fill="#E28B6D"/>
<path d="M402.379 87.1977C402.379 87.1977 388.247 101.162 373.584 108.158C370.319 109.711 367.032 110.926 363.871 111.565C362.141 111.912 360.441 112.095 358.809 112.058L351.185 92.7963C371.405 96.6778 395.676 76.6577 395.676 76.6577L402.379 87.1977Z" fill="#1F3C88"/>
<path d="M373.584 108.158C370.319 109.711 367.031 110.926 363.871 111.565L365.286 107.181C365.286 107.181 368.679 108.478 373.584 108.158Z" fill="#102048"/>
<path d="M367.473 133.439C350.249 142.116 336.395 135.951 336.395 135.951C334.732 131.704 333.833 125.192 333.347 118.945C333.084 115.529 332.95 112.186 332.882 109.337C332.755 104.505 332.837 101.09 332.837 101.09L351.185 92.7966L366.537 101.702C368.784 116.314 367.473 133.439 367.473 133.439Z" fill="#1F3C88"/>
<path d="M310.371 69.5067L309.315 71.8083L307.383 76.0188L300.456 76.4936C299.752 75.3063 299.115 74.192 298.531 73.1691C289.343 56.985 294.061 60.0628 294.061 60.0628C292.331 55.478 295.341 56.8205 295.341 56.8205C294.36 52.2448 297.266 55.5785 297.266 55.5785C297.391 50.8597 302.643 60.5378 302.643 60.5378C302.643 60.5378 302.62 56.1173 303.317 57.2134C304.702 59.3963 307.541 64.4378 309.158 67.3421C309.892 68.639 310.371 69.5067 310.371 69.5067Z" fill="#F9B384"/>
<path d="M309.315 71.8081L307.383 76.0186L300.456 76.4934C299.752 75.3061 299.115 74.1919 298.531 73.169L309.158 67.342L309.315 71.8081Z" fill="#E28B6D"/>
<path d="M336.896 111.593C336.896 111.593 335.796 115.967 333.347 118.945C333.085 115.529 332.95 112.186 332.882 109.337L336.896 111.593Z" fill="#102048"/>
<path d="M300.458 76.4909C300.458 76.4909 320.762 113.346 339.39 113.917L351.747 92.3398C331.683 98.0862 309.154 67.3376 309.154 67.3376L300.458 76.4909Z" fill="#1F3C88"/>
<path d="M350.904 103.509C350.099 103.509 349.395 103.342 348.81 103.117C347.117 102.466 345.958 101.127 345.864 100.782C345.815 100.603 345.894 100.409 346.042 100.349C346.179 100.293 346.328 100.375 346.386 100.532C346.509 100.755 347.702 102.218 349.702 102.687C351.744 103.165 353.857 102.434 355.979 100.513C356.104 100.4 356.28 100.432 356.372 100.584C356.465 100.736 356.439 100.95 356.314 101.063C354.252 102.928 352.405 103.509 350.904 103.509Z" fill="#3A6BEA"/>
<path d="M355.711 80.2535V93.0582C355.711 96.1145 353.687 98.583 351.181 98.583C348.675 98.583 346.651 96.1145 346.651 93.0582V80.2535H355.711Z" fill="#F9B384"/>
<path d="M352.385 84.4517C352.385 84.4517 349.845 89.5902 346.65 90.8917V83.8134L352.385 84.4517Z" fill="#102048"/>
<path d="M344.353 70.8774C344.353 70.8774 341.026 84.0317 344.583 85.5712C348.14 87.1105 352.385 84.4517 352.385 84.4517L355.713 79.8335L356.057 70.1776L344.353 70.8774Z" fill="#F9B384"/>
<path d="M360.335 74.9867L356.402 79.5539C356.402 79.5539 352.074 76.4138 352.87 73.6739C349.032 68.879 346.996 74.1305 344.164 71.6189C344.164 71.6189 345.103 61.9646 354.623 64.86C359.891 66.4624 360.418 73.6063 360.418 73.6063L360.335 74.9867Z" fill="#102048"/>
<path d="M357.71 80.5273C357.161 81.95 355.899 82.6343 354.893 82.0562C353.887 81.4779 353.516 79.8557 354.066 78.4331C354.616 77.0106 355.877 76.3259 356.883 76.9042C357.89 77.4825 358.26 79.1047 357.71 80.5273Z" fill="#F9B384"/>
<path d="M344.314 75.3063C344.27 75.6345 344.452 75.9443 344.721 75.9982C344.99 76.0521 345.244 75.83 345.288 75.5018C345.332 75.1737 345.15 74.8639 344.881 74.8099C344.612 74.7558 344.358 74.9782 344.314 75.3063Z" fill="#102048"/>
<path d="M347.344 76.2574C347.3 76.5856 347.482 76.8954 347.751 76.9493C348.02 77.0033 348.274 76.7811 348.318 76.4529C348.363 76.1248 348.18 75.815 347.911 75.7611C347.642 75.7071 347.388 75.9293 347.344 76.2574Z" fill="#102048"/>
<path d="M345.234 79.6816C345.226 79.6816 345.218 79.681 345.21 79.6795C344.979 79.6399 344.425 79.5169 344.271 79.2272C344.224 79.139 344.211 79.0366 344.234 78.939C344.379 78.3253 345.009 77.7466 345.676 77.134L345.8 77.0199C345.877 76.9491 345.986 76.968 346.044 77.0613C346.102 77.1548 346.086 77.2878 346.01 77.3586L345.885 77.4731C345.31 78.0017 344.716 78.5474 344.579 79.016C344.664 79.0989 344.968 79.2098 345.258 79.2596C345.353 79.2758 345.419 79.3831 345.406 79.4991C345.394 79.6049 345.319 79.6816 345.234 79.6816Z" fill="#102048"/>
<path d="M346.014 81.5775C345.588 81.5775 345.18 81.4085 344.872 81.075C344.8 80.9973 344.793 80.8631 344.857 80.7755C344.921 80.6877 345.031 80.6799 345.103 80.7573C345.561 81.2531 346.305 81.2881 346.91 80.8426C346.992 80.7819 347.099 80.8144 347.149 80.9147C347.199 81.015 347.172 81.1454 347.09 81.206C346.752 81.4547 346.376 81.5775 346.014 81.5775Z" fill="#102048"/>
<path opacity="0.4" d="M348.74 79.34C348.587 80.4787 349.219 81.5538 350.153 81.741C351.086 81.9283 351.968 81.1571 352.121 80.0185C352.275 78.8798 351.643 77.8047 350.709 77.6175C349.775 77.4302 348.894 78.2013 348.74 79.34Z" fill="#EB5D60"/>
<path d="M349.265 76.0466C349.213 76.0466 349.161 76.018 349.127 75.9637C348.346 74.7234 347.335 75.2192 347.325 75.2245C347.237 75.2699 347.135 75.2188 347.098 75.1106C347.061 75.0025 347.102 74.8782 347.191 74.833C347.204 74.8265 348.461 74.2094 349.403 75.7054C349.462 75.7985 349.447 75.9315 349.371 76.0031C349.339 76.0324 349.302 76.0466 349.265 76.0466Z" fill="#102048"/>
<path d="M345.763 74.7258C345.709 74.7258 345.656 74.6952 345.622 74.6376C345.596 74.5943 345.026 73.6712 344.031 74.0368C343.939 74.0705 343.842 74.0069 343.815 73.8947C343.787 73.7824 343.839 73.6642 343.931 73.6303C345.172 73.1748 345.897 74.3776 345.904 74.3897C345.96 74.4849 345.942 74.6176 345.864 74.6859C345.833 74.7128 345.798 74.7258 345.763 74.7258Z" fill="#102048"/>
<path d="M355.397 80.4004C355.312 80.4004 355.239 80.319 355.234 80.213C355.232 80.1765 355.192 79.3135 355.642 78.7161C355.904 78.3681 356.272 78.1856 356.736 78.1732C356.833 78.1766 356.902 78.2585 356.903 78.3692C356.906 78.4797 356.834 78.5715 356.743 78.5738C356.373 78.5836 356.084 78.722 355.885 78.9848C355.53 79.4543 355.561 80.1805 355.562 80.1878C355.567 80.2982 355.498 80.393 355.408 80.3998C355.404 80.4002 355.401 80.4004 355.397 80.4004Z" fill="#102048"/>
<path d="M426.504 274.052H0V274.965H426.504V274.052Z" fill="#102048"/>
</svg>
