<svg width="128" height="113" viewBox="0 0 128 113" fill="none" xmlns="http://www.w3.org/2000/svg">
<path d="M24.4209 6.22731C24.1275 6.42387 23.838 6.624 23.5524 6.82651C19.1151 9.97443 7.25155 14.8976 9.34941 21.7992C10.1813 24.535 13.1871 25.9797 15.9652 26.818C26.0322 29.856 31.0647 25.516 38.7082 19.1963C41.4081 16.9642 44.3127 14.361 44.6122 10.9069C44.996 6.48164 40.5454 2.7369 36.0383 2.38965C31.8826 2.07039 27.8912 3.90166 24.4209 6.22731Z" fill="#EEE8FF"/>
<path d="M104.539 91.9341C100.02 97.1068 97.5022 104.469 105.415 108.226C113.224 111.934 120.115 105.383 122.403 98.4833C123.727 94.4932 122.82 89.4574 119.194 87.239C115.956 85.2582 111.556 86.1302 108.473 88.3364C107.126 89.3002 105.76 90.5373 104.539 91.9341Z" fill="#EEE8FF"/>
<path d="M25.2284 103.256C22.2933 101.055 19.6388 98.4756 17.3721 95.6443C7.88473 83.7953 6.20189 66.0479 14.69 53.1983C21.1231 43.4597 32.0462 37.085 43.5753 34.5345C48.5644 33.4308 53.7345 32.9715 58.5101 31.1748C66.2934 28.2467 72.3399 22.0092 77.0016 15.2223C79.5181 11.5582 81.7709 7.61634 85.1793 4.7305C90.1178 0.549456 97.1874 -0.903888 103.538 0.545583C109.888 1.99506 115.447 6.18831 118.924 11.6059C121.037 14.8968 122.432 18.6665 122.695 22.5485C123.176 29.6509 119.87 36.5459 115.447 42.1839C111.024 47.8218 105.485 52.5041 100.539 57.7058C93.2551 65.3662 89.1564 74.9273 84.2438 84.0768C80.5937 90.8744 75.9569 97.2549 69.9477 102.176C63.9385 107.097 56.4756 110.495 48.6647 110.926C40.2345 111.393 31.9874 108.326 25.2284 103.256Z" fill="#EEE8FF"/>
<path d="M84.5647 85.5632V95.2015C84.5647 95.9936 85.2792 96.6357 86.1608 96.6357H91.7332" stroke="#C0A4FC" stroke-width="2" stroke-miterlimit="10" stroke-linecap="round"/>
<path d="M71.418 58.9357V69.3137C71.418 70.0642 72.037 70.6723 72.801 70.6723H88.2891" stroke="#C0A4FC" stroke-width="2" stroke-miterlimit="10" stroke-linecap="round"/>
<path d="M62.8841 56.4937V63.9685C62.8841 64.8403 62.1648 65.547 61.2774 65.547H25.6584C24.3751 65.547 23.335 66.5688 23.335 67.8294V76.6031" stroke="#C0A4FC" stroke-width="2" stroke-miterlimit="10" stroke-linecap="round"/>
<path d="M87.7545 6.83337H84.8044V9.18076H87.7545V6.83337Z" fill="#FF6363"/>
<path d="M98.0311 6.83337H90.3232V9.18076H98.0311V6.83337Z" fill="#FF6363"/>
<path d="M114.41 6.83337H104.775V9.18076H114.41V6.83337Z" fill="#FF6363"/>
<path d="M123.403 6.83337H116.658V9.18076H123.403V6.83337Z" fill="#FF6363"/>
<path d="M100.921 11.0062H96.425V13.3536H100.921V11.0062Z" fill="#FF6363"/>
<path d="M93.5351 11.0062H84.8044V13.3536H93.5351V11.0062Z" fill="#FF6363"/>
<path d="M121.155 11.0062H113.447V13.3536H121.155V11.0062Z" fill="#FF6363"/>
<path d="M123.877 5.58545C124.82 5.58545 125.585 6.3559 125.585 7.30593V8.52877C125.585 8.98502 125.765 9.42281 126.085 9.74535L126.599 10.263L126.245 10.6191C125.925 10.9417 125.745 11.3795 125.745 11.8357V12.8751C125.745 13.8254 124.98 14.5956 124.037 14.5956H123.755" stroke="#1C1C1B" stroke-miterlimit="10" stroke-linecap="round" stroke-linejoin="round"/>
<path d="M84.5665 5.58545C83.6231 5.58545 82.8585 6.3559 82.8585 7.30593V8.52877C82.8585 8.98502 82.6785 9.42281 82.3583 9.74535L81.8445 10.263L82.1983 10.6191C82.5187 10.9417 82.6985 11.3795 82.6985 11.8357V12.8751C82.6985 13.8254 83.463 14.5956 84.4065 14.5956H84.6881" stroke="#1C1C1B" stroke-miterlimit="10" stroke-linecap="round" stroke-linejoin="round"/>
<path d="M101.147 6.72827L105.001 13.4589" stroke="#1C1C1B" stroke-miterlimit="10" stroke-linecap="round" stroke-linejoin="round"/>
<path d="M91.5074 50.7726C93.2139 49.3068 93.8572 46.8665 93.8693 44.6016C93.8748 43.5804 93.7626 42.5478 93.4519 41.5701C93.1611 40.6546 92.8947 40.1617 92.0104 39.6483C92.4011 38.494 92.583 37.4069 92.0595 36.2672C91.6166 35.3035 90.765 34.5011 89.726 34.2242L89.7297 34.2715C89.6915 34.2471 89.653 34.2236 89.6139 34.2024C89.599 33.7736 89.5008 33.3468 89.3119 32.9626C89.0676 32.4668 88.7005 32.0388 88.2648 31.6945C87.7495 31.2871 87.1365 31.171 86.5108 30.9836C86.4131 30.9544 86.3137 30.9244 86.2288 30.8681C86.1051 30.7862 86.0242 30.6566 85.9399 30.5357C85.3963 29.7572 84.546 29.1914 83.6086 28.9847C83.5104 28.9629 83.4058 28.9424 83.3312 28.8757C83.2612 28.8131 83.23 28.7202 83.1966 28.6333C82.8404 27.7008 81.9182 27.0021 80.9096 26.9009C80.8314 26.8931 80.748 26.8866 80.6853 26.8401C80.6352 26.8029 80.6064 26.7454 80.5779 26.6906C80.0862 25.7394 79.2568 24.9612 78.267 24.5222C77.2771 24.0835 76.1342 23.9873 75.0829 24.2548C74.9028 23.2946 74.2334 22.4679 73.3916 21.9491C72.546 21.4279 71.5996 21.0121 70.5934 21.0071C69.5151 21.0017 68.7202 21.5765 67.9344 22.249C67.9632 21.9014 67.7771 21.5697 67.5488 21.3025C67.0373 20.7039 66.2782 20.3161 65.4858 20.2485C64.6933 20.1809 63.8775 20.4344 63.2688 20.9374L63.2764 20.9419C63.2673 20.9439 63.2582 20.9454 63.2491 20.9472C63.2291 20.9058 63.21 20.8638 63.1809 20.8269C63.0641 20.6795 62.8865 20.5928 62.7125 20.5178C59.76 19.2476 55.9954 20.1503 53.9706 22.6138C52.8422 21.9753 51.4356 21.8311 50.1975 22.2272C48.9594 22.6233 47.9086 23.5531 47.379 24.722C47.2098 24.44 46.853 24.3313 46.5244 24.2756C45.0001 24.0168 43.3716 24.4201 42.1544 25.3582C40.9372 26.2963 40.1508 27.7541 40.0441 29.2703C38.2448 29.2858 36.4771 30.1992 35.4446 31.6469C35.0047 32.2636 34.6979 33.0281 34.7809 33.7608C34.4311 34.038 34.1319 34.3522 33.9203 34.6676C33.4401 35.383 33.2321 36.2961 33.4643 37.1326C33.5677 37.5052 33.7742 37.8304 33.9833 38.1518C32.2562 38.5413 31.0566 40.2779 30.9742 42.0192C30.9157 43.2575 31.3346 44.4658 32.0131 45.5224L31.9807 45.5037C31.4074 46.6276 31.4044 48.0154 31.9728 49.1418C32.5409 50.2681 33.6674 51.1062 34.9246 51.3385C35.6716 51.4767 36.4704 51.4025 37.1435 51.0562C37.1529 51.0579 37.1623 51.0582 37.172 51.0597C37.4399 52.2546 38.3822 53.1989 39.5903 53.4997C40.3288 53.6838 41.107 53.6177 41.8609 53.5113C42.9126 53.363 43.983 53.1263 44.8601 52.5369C44.9271 52.4919 44.9922 52.4443 45.0559 52.3942C45.1105 52.4344 45.165 52.4755 45.2196 52.516C45.1247 53.8354 45.7316 55.186 46.7763 56.0279C47.9459 56.9711 49.121 57.3276 50.5819 56.9532C50.9032 58.0918 51.817 59.0221 52.9117 59.5112C54.0064 60.0002 55.2627 60.0749 56.4462 59.8653C57.4078 59.6949 58.4379 59.2455 58.779 58.3458C59.4954 58.8625 60.597 59.0999 61.4616 58.9194C62.1477 58.7761 62.8046 58.1623 63.4774 58.0831C63.7463 58.0513 64.0161 58.0236 64.2856 57.9935C65.4361 61.2403 69.1713 62.7833 72.4981 61.6286C74.1279 63.7857 76.7715 65.1289 79.4966 65.3549C82.2214 65.5809 84.9946 64.7298 87.2104 63.1555C89.3168 61.659 91.0269 59.0805 90.2538 56.6423C92.6176 55.7408 93.5704 52.5083 91.8412 50.6866L91.5074 50.7726Z" fill="#7A5CE0"/>
<path d="M90.3874 49.0121C92.0938 47.5463 92.7371 45.106 92.7493 42.8411C92.7547 41.8199 92.6426 40.7874 92.3318 39.8096C92.0408 38.8941 91.7746 38.4012 90.8903 37.8878C91.2811 36.7335 91.463 35.6465 90.9394 34.5067C90.4965 33.543 89.6449 32.7407 88.606 32.4637L88.6096 32.511C88.5714 32.4866 88.5329 32.4631 88.4938 32.4419C88.4793 32.0131 88.3807 31.5863 88.1919 31.2024C87.9475 30.7066 87.5804 30.2786 87.1448 29.9343C86.6294 29.5269 86.0164 29.4108 85.3907 29.2234C85.2931 29.1943 85.1936 29.1642 85.1088 29.1079C84.9851 29.026 84.9041 28.8964 84.8198 28.7755C84.2766 27.997 83.4259 27.4312 82.4886 27.2245C82.3903 27.2028 82.2857 27.1822 82.2112 27.1155C82.1411 27.053 82.1099 26.96 82.0766 26.8731C81.7203 25.9406 80.7981 25.2419 79.7895 25.1407C79.7113 25.1329 79.6279 25.1264 79.5652 25.0799C79.5152 25.0427 79.4864 24.9852 79.4579 24.9304C78.9661 23.9792 78.1367 23.201 77.1469 22.762C76.1571 22.3233 75.0142 22.2271 73.9628 22.4946C73.7827 21.5344 73.1134 20.7077 72.2715 20.1889C71.426 19.668 70.4795 19.2517 69.4733 19.2469C68.395 19.2415 67.6001 19.8163 66.8143 20.4888C66.8431 20.1412 66.657 19.8095 66.4287 19.5423C65.9173 18.9437 65.1582 18.556 64.3657 18.4884C63.5733 18.4208 62.7575 18.6742 62.1487 19.1772L62.1563 19.182C62.1472 19.1841 62.1381 19.1855 62.129 19.1873C62.109 19.1459 62.0899 19.1039 62.0605 19.067C61.9441 18.9193 61.7661 18.8329 61.5921 18.7579C58.6397 17.4877 54.875 18.3904 52.8502 20.8539C51.7216 20.2154 50.3152 20.0713 49.0768 20.4673C47.8384 20.8634 46.788 21.7932 46.2583 22.9622C46.0892 22.6798 45.7324 22.5714 45.4037 22.5157C43.8795 22.2566 42.2509 22.6602 41.0337 23.5983C39.8165 24.5364 39.0301 25.9942 38.9234 27.5104C37.1242 27.5259 35.3565 28.4393 34.3239 29.887C33.884 30.5038 33.5772 31.2683 33.6603 32.0009C33.3104 32.2781 33.0112 32.5923 32.7996 32.9077C32.3194 33.6234 32.1114 34.5362 32.344 35.3728C32.4473 35.7453 32.6538 36.0705 32.863 36.3919C31.1359 36.7814 29.9363 38.518 29.8538 40.2593C29.7953 41.4976 30.2143 42.7059 30.8927 43.7625L30.8603 43.7438C30.287 44.8677 30.284 46.2556 30.8524 47.3819C31.4205 48.5082 32.5471 49.3463 33.8043 49.5786C34.5513 49.7168 35.3501 49.6423 36.0231 49.2963C36.0325 49.2977 36.0419 49.2983 36.0516 49.2998C36.3196 50.4947 37.2618 51.439 38.4699 51.7398C39.2084 51.9239 39.9866 51.8578 40.7406 51.7515C41.7922 51.6031 42.8627 51.3664 43.7394 50.777C43.8064 50.732 43.8716 50.6844 43.9352 50.6344C43.9898 50.6746 44.0444 50.7157 44.0989 50.7562C44.0041 52.0755 44.611 53.4261 45.6557 54.268C46.8253 55.2112 48.0003 55.5677 49.4612 55.1933C49.7826 56.3316 50.6963 57.2622 51.791 57.7513C52.8857 58.2403 54.142 58.315 55.3255 58.1054C56.2871 57.935 57.3173 57.4856 57.6583 56.5859C58.3747 57.1029 59.4764 57.34 60.341 57.1595C61.0273 57.0163 61.684 56.4025 62.357 56.3232C62.6259 56.2914 62.8957 56.2634 63.1652 56.2336C64.3157 59.4804 68.0509 61.0234 71.3778 59.8684C73.0076 62.0255 75.6511 63.3687 78.3762 63.5947C81.101 63.8208 83.8743 62.9696 86.0901 61.3951C88.1964 59.8985 89.9065 57.32 89.1335 54.8821C91.4972 53.9806 92.45 50.7481 90.7208 48.9264L90.3874 49.0121Z" stroke="#1D1D1B" stroke-width="2" stroke-miterlimit="10" stroke-linecap="round" stroke-linejoin="round"/>
<path d="M48.7941 45.2759L48.2881 51.7573" stroke="black" stroke-miterlimit="10"/>
<path d="M57.5589 41.5608L56.8392 46.9108L57.9618 52.6479L52.7283 50.4041L48.288 51.7571L41.8389 47.1043" stroke="black" stroke-miterlimit="10"/>
<path d="M62.6772 49.0292L71.0757 51.8537" stroke="black" stroke-miterlimit="10"/>
<path d="M76.8054 38.6902L75.6152 47.3939" stroke="black" stroke-miterlimit="10"/>
<path d="M45.668 40.868L48.7938 45.2757L54.9386 35.9183" stroke="black" stroke-miterlimit="10"/>
<path d="M51.311 28.5931L54.4348 32.5529L64.5118 30.7708L72.1702 30.0781" stroke="black" stroke-miterlimit="10"/>
<path d="M76.1826 58.8032L59.9661 53.947" stroke="black" stroke-miterlimit="10"/>
<path d="M84.5432 54.8268L78.0744 52.7826L70.8613 52.2623" stroke="black" stroke-miterlimit="10"/>
<path d="M69.7515 42.9468L75.6152 47.3938L82.1598 47.3568" stroke="black" stroke-miterlimit="10"/>
<path d="M81.0501 30.2617L78.0239 38.2891" stroke="black" stroke-miterlimit="10"/>
<path d="M51.0259 27.6234L64.5058 29.9645L59.4998 23.3125" stroke="black" stroke-miterlimit="10"/>
<path d="M45.1624 40.0729L41.4927 46.948L48.5669 45.3499" stroke="black" stroke-miterlimit="10"/>
<path d="M85.035 54.7895L82.6895 47.2083" stroke="black" stroke-miterlimit="10"/>
<path d="M47.9858 33.7405L45.7676 39.4041" stroke="black" stroke-miterlimit="10"/>
<path d="M45.0867 40.7418L55.2249 34.4984" stroke="black" stroke-miterlimit="10"/>
<path d="M84.1268 54.6409L76.1826 58.8032L71.4915 51.8164L58.1755 54.1948L62.6771 49.0292" stroke="black" stroke-miterlimit="10"/>
<path d="M65.4391 30.113L57.6082 41.0762L67.633 41.4107L65.4391 30.113Z" stroke="black" stroke-miterlimit="10"/>
<path d="M77.242 37.2484C77.242 37.0253 72.9293 29.8158 72.9293 29.8158L68.314 42.5999L77.242 37.2484Z" stroke="black" stroke-miterlimit="10"/>
<path d="M40.32 31.6741L35.2888 41.5967" stroke="black" stroke-miterlimit="10"/>
<path d="M40.32 31.6741L45.8433 41.4109L34.8726 41.7826" stroke="black" stroke-miterlimit="10"/>
<path d="M59.4999 23.3125L51.5177 27.512L43.1951 26.0256L47.6833 33.5431L55.6031 33.6071L57.6081 41.0769C57.6081 41.0769 48.5667 45.2764 48.7938 45.2764C49.0209 45.2764 52.7282 50.4048 52.7282 50.4048L56.839 46.9115L62.791 49.4384L67.633 41.4111L71.0757 51.854L75.1235 47.4314L78.0741 52.7829L82.1598 47.357L76.7123 38.1405L85.0349 41.708L81.0502 30.2617L72.5511 30.1131L72.6645 24.2042L59.4999 23.3125Z" stroke="black" stroke-miterlimit="10"/>
<path d="M90.6262 37.8331C90.4759 37.6663 90.2976 37.5237 90.1015 37.4123C89.8486 37.2688 89.56 37.1767 89.2681 37.1836C88.6487 37.1979 88.0821 37.7122 88.0185 38.3177C87.9739 38.7418 88.1488 39.1587 88.3619 39.5301C88.5751 39.9015 88.8315 40.2535 88.9758 40.6555C89.1614 41.1728 89.1447 41.7577 88.9298 42.264" stroke="#1D1D1B" stroke-width="2" stroke-miterlimit="10" stroke-linecap="round"/>
<path d="M90.1041 45.1272L85.5643 41.5593L82.6895 47.2083L90.1041 45.1272Z" stroke="black" stroke-miterlimit="10"/>
<path d="M89.2708 54.5635C88.7793 54.732 88.2725 54.8568 87.7583 54.9355" stroke="#1D1D1B" stroke-width="2" stroke-miterlimit="10" stroke-linecap="round"/>
<path d="M34.6053 37.1449C33.7146 37.2194 32.8549 37.6086 32.2185 38.2254C31.5822 38.8421 31.1748 39.6817 31.0872 40.5555" stroke="#1D1D1B" stroke-width="2" stroke-miterlimit="10" stroke-linecap="round"/>
<path d="M35.5901 33.7548C35.9263 33.8757 36.3058 33.8284 36.6384 33.6985C36.971 33.5687 37.2656 33.3617 37.5567 33.1571" stroke="#1D1D1B" stroke-width="2" stroke-miterlimit="10" stroke-linecap="round"/>
<path d="M53.0134 20.3608C52.2446 21.1739 51.6556 22.1504 51.2991 23.2038" stroke="#1D1D1B" stroke-width="2" stroke-miterlimit="10" stroke-linecap="round" stroke-linejoin="round"/>
<path d="M46.1078 22.6064C45.8971 23.1815 45.7076 23.7644 45.5403 24.3531" stroke="#1D1D1B" stroke-width="2" stroke-miterlimit="10" stroke-linecap="round" stroke-linejoin="round"/>
<path d="M73.927 22.4565C73.9764 23.2553 73.8233 24.0656 73.4856 24.7941" stroke="#1D1D1B" stroke-width="2" stroke-miterlimit="10" stroke-linecap="round" stroke-linejoin="round"/>
<path d="M85.2268 29.1389C83.9423 28.8247 82.5841 29.2298 81.4021 29.8144" stroke="#1D1D1B" stroke-width="2" stroke-miterlimit="10" stroke-linecap="round"/>
<path d="M84.8292 55.7493C85.2121 56.8408 85.0639 58.0996 84.4375 59.0762C83.8112 60.053 82.7192 60.7279 81.5518 60.8598" stroke="#1D1D1B" stroke-width="2" stroke-miterlimit="10" stroke-linecap="round"/>
<path d="M81.05 32.0455C82.053 32.0455 82.866 31.2468 82.866 30.2616C82.866 29.2764 82.053 28.4777 81.05 28.4777C80.0471 28.4777 79.2341 29.2764 79.2341 30.2616C79.2341 31.2468 80.0471 32.0455 81.05 32.0455Z" fill="#FF6363"/>
<path d="M66.4815 32.4246C67.7798 31.8582 68.3649 30.365 67.7882 29.0895C67.2116 27.8141 65.6916 27.2394 64.3933 27.8058C63.095 28.3723 62.5099 29.8655 63.0866 31.1409C63.6632 32.4164 65.1832 32.9911 66.4815 32.4246Z" fill="#EEE8FF"/>
<path d="M74.2911 24.204C74.2911 25.0865 73.5629 25.8021 72.6643 25.8021C71.7661 25.8021 71.0376 25.0868 71.0376 24.204C71.0376 23.3213 71.7658 22.606 72.6643 22.606C73.5629 22.6063 74.2911 23.3216 74.2911 24.204Z" fill="#EEE8FF"/>
<path d="M74.2912 29.8531C74.2912 30.7767 73.529 31.5254 72.589 31.5254C71.6489 31.5254 70.8867 30.7767 70.8867 29.8531C70.8867 28.9296 71.6489 28.1809 72.589 28.1809C73.529 28.1806 74.2912 28.9293 74.2912 29.8531Z" fill="#C0A4FC"/>
<path d="M37.4628 42.1019C37.7469 40.9236 37.0049 39.7421 35.8054 39.463C34.606 39.1839 33.4033 39.9129 33.1192 41.0912C32.8351 42.2695 33.5771 43.451 34.7766 43.7301C35.976 44.0092 37.1787 43.2803 37.4628 42.1019Z" fill="#EEE8FF"/>
<path d="M41.6818 31.6738C41.6818 32.4127 41.0722 33.0116 40.32 33.0116C39.5679 33.0116 38.9583 32.4127 38.9583 31.6738C38.9583 30.935 39.5679 30.3361 40.32 30.3361C41.0722 30.3361 41.6818 30.935 41.6818 31.6738Z" fill="#EEE8FF"/>
<path d="M46.6109 42.8894C48.0288 42.187 48.5985 40.4884 47.8835 39.0956C47.1685 37.7027 45.4394 37.143 44.0216 37.8454C42.6037 38.5479 42.034 40.2464 42.749 41.6393C43.4641 43.0321 45.1931 43.5918 46.6109 42.8894Z" fill="#EEE8FF"/>
<path d="M77.1662 40.7419C78.7541 40.7419 80.0413 39.4773 80.0413 37.9174C80.0413 36.3575 78.7541 35.0929 77.1662 35.0929C75.5783 35.0929 74.291 36.3575 74.291 37.9174C74.291 39.4773 75.5783 40.7419 77.1662 40.7419Z" fill="#C0A4FC"/>
<path d="M41.4925 48.1744C42.182 48.1744 42.741 47.6253 42.741 46.948C42.741 46.2706 42.182 45.7216 41.4925 45.7216C40.8031 45.7216 40.2441 46.2706 40.2441 46.948C40.2441 47.6253 40.8031 48.1744 41.4925 48.1744Z" fill="#FF6363"/>
<path d="M51.0258 30.7078C52.7599 30.7078 54.1656 29.3268 54.1656 27.6233C54.1656 25.9198 52.7599 24.5388 51.0258 24.5388C49.2917 24.5388 47.886 25.9198 47.886 27.6233C47.886 29.3268 49.2917 30.7078 51.0258 30.7078Z" fill="#EEE8FF"/>
<path d="M49.5786 33.5949C49.5786 34.5059 48.8268 35.2445 47.8994 35.2445C46.972 35.2445 46.2202 34.5059 46.2202 33.5949C46.2202 32.6839 46.972 31.9453 47.8994 31.9453C48.8268 31.9453 49.5786 32.6839 49.5786 33.5949Z" fill="#C0A4FC"/>
<path d="M58.9023 33.672C59.0457 35.5411 57.6194 37.1705 55.7167 37.3114C53.8141 37.4522 52.1555 36.051 52.0121 34.1819C51.8687 32.3128 53.2951 30.6835 55.1977 30.5426C57.1003 30.4017 58.7589 31.8029 58.9023 33.672Z" fill="#FF6363"/>
<path d="M52.7284 51.6678C53.4389 51.6678 54.0147 51.102 54.0147 50.4041C54.0147 49.7063 53.4389 49.1405 52.7284 49.1405C52.018 49.1405 51.4421 49.7063 51.4421 50.4041C51.4421 51.102 52.018 51.6678 52.7284 51.6678Z" fill="#C0A4FC"/>
<path d="M58.79 46.9475C58.79 47.8898 58.0124 48.6537 57.0532 48.6537C56.094 48.6537 55.3164 47.8898 55.3164 46.9475C55.3164 46.0052 56.094 45.2413 57.0532 45.2413C58.0124 45.2416 58.79 46.0052 58.79 46.9475Z" fill="#EEE8FF"/>
<path d="M67.9356 46.3155C70.4424 46.3155 72.4745 44.3192 72.4745 41.8566C72.4745 39.394 70.4424 37.3977 67.9356 37.3977C65.4289 37.3977 63.3967 39.394 63.3967 41.8566C63.3967 44.3192 65.4289 46.3155 67.9356 46.3155Z" fill="#FF6363"/>
<path d="M64.3043 49.0291C64.3043 49.9115 63.5761 50.6272 62.6775 50.6272C61.779 50.6272 61.0508 49.9118 61.0508 49.0291C61.0508 48.1464 61.779 47.431 62.6775 47.431C63.5761 47.431 64.3043 48.1467 64.3043 49.0291Z" fill="#EEE8FF"/>
<path d="M73.2317 51.8537C73.2317 53.0235 72.2661 53.9721 71.0753 53.9721C69.8845 53.9721 68.9189 53.0235 68.9189 51.8537C68.9189 50.6839 69.8842 49.7354 71.0753 49.7354C72.2664 49.7354 73.2317 50.6839 73.2317 51.8537Z" fill="#EEE8FF"/>
<path d="M75.6152 48.6945C76.3463 48.6945 76.9391 48.1122 76.9391 47.3939C76.9391 46.6757 76.3463 46.0934 75.6152 46.0934C74.884 46.0934 74.2913 46.6757 74.2913 47.3939C74.2913 48.1122 74.884 48.6945 75.6152 48.6945Z" fill="#FF6363"/>
<path d="M57.6083 43.6838C59.0741 43.6838 60.2624 42.5164 60.2624 41.0764C60.2624 39.6364 59.0741 38.469 57.6083 38.469C56.1424 38.469 54.9541 39.6364 54.9541 41.0764C54.9541 42.5164 56.1424 43.6838 57.6083 43.6838Z" fill="#EEE8FF"/>
<path d="M85.035 43.7892C86.205 43.7892 87.1534 42.8575 87.1534 41.7081C87.1534 40.5587 86.205 39.627 85.035 39.627C83.865 39.627 82.9165 40.5587 82.9165 41.7081C82.9165 42.8575 83.865 43.7892 85.035 43.7892Z" fill="#EEE8FF"/>
<path d="M84.3025 47.171C84.3025 48.1899 83.4616 49.016 82.4245 49.016C81.3874 49.016 80.5464 48.1899 80.5464 47.171C80.5464 46.1522 81.3874 45.326 82.4245 45.326C83.4619 45.326 84.3025 46.1519 84.3025 47.171Z" fill="#FF6363"/>
<path d="M91.8443 45.1272C91.8443 46.0713 91.0652 46.8367 90.1041 46.8367C89.1431 46.8367 88.364 46.0713 88.364 45.1272C88.364 44.1831 89.1431 43.4177 90.1041 43.4177C91.0652 43.4177 91.8443 44.1828 91.8443 45.1272Z" fill="#EEE8FF"/>
<path d="M84.5431 56.9451C85.734 56.9451 86.6995 55.9967 86.6995 54.8267C86.6995 53.6568 85.734 52.7084 84.5431 52.7084C83.3522 52.7084 82.3867 53.6568 82.3867 54.8267C82.3867 55.9967 83.3522 56.9451 84.5431 56.9451Z" fill="#EEE8FF"/>
<path d="M78.0741 53.8232C78.6591 53.8232 79.1334 53.3573 79.1334 52.7826C79.1334 52.2079 78.6591 51.7421 78.0741 51.7421C77.4891 51.7421 77.0149 52.2079 77.0149 52.7826C77.0149 53.3573 77.4891 53.8232 78.0741 53.8232Z" fill="#EEE8FF"/>
<path d="M76.107 60.884C77.5276 60.884 78.6793 59.7527 78.6793 58.357C78.6793 56.9614 77.5276 55.8301 76.107 55.8301C74.6863 55.8301 73.5347 56.9614 73.5347 58.357C73.5347 59.7527 74.6863 60.884 76.107 60.884Z" fill="#FF6363"/>
<path d="M61.0772 24.863C61.9488 24.0067 61.9488 22.6185 61.0772 21.7623C60.2056 20.9061 58.7925 20.9061 57.9209 21.7623C57.0493 22.6185 57.0493 24.0067 57.9209 24.863C58.7925 25.7192 60.2056 25.7192 61.0772 24.863Z" fill="#FF6363"/>
<path d="M45.2379 26.3969C45.2379 27.4232 44.3912 28.255 43.3465 28.255C42.3018 28.255 41.4551 27.4232 41.4551 26.3969C41.4551 25.3706 42.3018 24.5388 43.3465 24.5388C44.3912 24.5385 45.2379 25.3706 45.2379 26.3969Z" fill="#FF6363"/>
<path d="M50.4969 45.2758C50.4969 46.1999 49.7344 46.9489 48.7937 46.9489C47.853 46.9489 47.0906 46.1999 47.0906 45.2758C47.0906 44.3517 47.853 43.6027 48.7937 43.6027C49.7344 43.6027 50.4969 44.3517 50.4969 45.2758Z" fill="#FF6363"/>
<path d="M47.8104 53.7489C49.1058 53.7489 50.1559 52.7173 50.1559 51.4447C50.1559 50.1721 49.1058 49.1405 47.8104 49.1405C46.515 49.1405 45.4648 50.1721 45.4648 51.4447C45.4648 52.7173 46.515 53.7489 47.8104 53.7489Z" fill="#EEE8FF"/>
<path d="M59.7244 55.4199C60.6847 54.4765 60.6847 52.9471 59.7244 52.0037C58.7641 51.0604 57.2073 51.0604 56.247 52.0037C55.2867 52.9471 55.2867 54.4765 56.247 55.4199C57.2073 56.3632 58.7642 56.3632 59.7244 55.4199Z" fill="#FF6363"/>
<path d="M66.8259 20.4257C66.7692 21.029 66.6525 21.6271 66.4785 22.2084" stroke="#1D1D1B" stroke-width="2" stroke-miterlimit="10" stroke-linecap="round" stroke-linejoin="round"/>
<path d="M61.8962 19.0345C62.3416 19.3681 62.7615 19.7344 63.151 20.1293" stroke="#1D1D1B" stroke-width="2" stroke-miterlimit="10" stroke-linecap="round" stroke-linejoin="round"/>
<path d="M36.0748 49.3817C36.0628 48.868 36.1043 48.3527 36.1984 47.847" stroke="#1D1D1B" stroke-width="2" stroke-miterlimit="10" stroke-linecap="round" stroke-linejoin="round"/>
<path d="M40.0374 50.4804C40.5473 50.7738 41.1997 50.6106 41.7381 50.3711C42.2853 50.1275 42.7997 49.8127 43.263 49.4369" stroke="#1D1D1B" stroke-width="2" stroke-miterlimit="10" stroke-linecap="round" stroke-linejoin="round"/>
<path d="M38.2739 43.9146C38.7948 44.3491 39.0145 45.0594 38.9821 45.7297C38.9497 46.4001 38.6953 47.0407 38.4016 47.6468" stroke="#1D1D1B" stroke-width="2" stroke-miterlimit="10" stroke-linecap="round"/>
<path d="M31.9501 44.5771C31.7637 45.3542 31.9437 46.2083 32.4288 46.8483" stroke="#1D1D1B" stroke-width="2" stroke-miterlimit="10" stroke-linecap="round"/>
<path d="M90.7211 48.9258C90.1375 48.7358 88.3568 48.1709 87.7996 47.9156" stroke="#1D1D1B" stroke-width="2" stroke-miterlimit="10" stroke-linecap="round"/>
<path d="M79.7091 25.4392C79.4144 25.1354 78.9012 25.3025 78.5183 25.4886C77.5573 25.9553 76.5963 26.422 75.6353 26.8886" stroke="#1D1D1B" stroke-width="2" stroke-miterlimit="10" stroke-linecap="round"/>
<path d="M78.8918 105.355C78.3146 104.901 78.2216 104.074 78.6836 103.507C79.1456 102.94 79.9881 102.848 80.5653 103.302C80.6135 103.34 80.6532 103.384 80.6944 103.427C80.9606 102.964 81.1755 102.482 81.3392 101.989C81.2738 101.989 81.2083 101.989 81.1416 101.979C80.4107 101.87 79.9086 101.199 80.0205 100.481C80.1321 99.7627 80.8151 99.2695 81.546 99.3794C81.613 99.3895 81.6757 99.4092 81.7385 99.4282C81.7321 98.8996 81.6727 98.3728 81.5612 97.8554C81.5005 97.8903 81.4393 97.9248 81.3717 97.9504C80.6829 98.2146 79.9065 97.8799 79.6379 97.2032C79.3693 96.5266 79.7098 95.7639 80.3985 95.5C80.4658 95.4744 80.5341 95.4589 80.6023 95.4443C80.3294 94.9931 80.0087 94.5643 79.6403 94.1655C79.6049 94.228 79.5673 94.2903 79.52 94.3481C79.058 94.9151 78.2155 95.0065 77.6383 94.5524C77.0611 94.0985 76.968 93.2709 77.43 92.7038C77.4752 92.6484 77.5267 92.6017 77.5786 92.5552C77.1005 92.2925 76.6033 92.082 76.0946 91.9227C76.0955 91.9938 76.0946 92.0653 76.0834 92.138C75.9718 92.856 75.2888 93.3492 74.5579 93.2393C73.827 93.1297 73.3252 92.4587 73.4368 91.7407C73.4474 91.6731 73.4674 91.6096 73.4877 91.5465C72.9496 91.5557 72.4139 91.6183 71.8883 91.7312C71.9225 91.7892 71.9565 91.8473 71.9822 91.9116C72.2511 92.5883 71.9104 93.3507 71.2216 93.6148C70.5328 93.8787 69.7568 93.5443 69.4879 92.8676C69.4642 92.8083 69.4512 92.7479 69.4369 92.6877C68.9849 92.9555 68.5553 93.2694 68.1555 93.6288C68.2097 93.6604 68.2646 93.6908 68.3152 93.7304C68.8925 94.1843 68.9855 95.0119 68.5232 95.5789C68.0612 96.146 67.2187 96.2374 66.6415 95.7832C66.5969 95.7481 66.5606 95.7073 66.5221 95.668C66.2625 96.1293 66.054 96.6079 65.8954 97.0978C65.9518 97.099 66.0079 97.0978 66.0652 97.1064C66.7961 97.2163 67.2981 97.887 67.1863 98.605C67.0747 99.3231 66.3917 99.816 65.6608 99.7064C65.6105 99.6989 65.5638 99.6823 65.5159 99.6697C65.5265 100.186 65.588 100.7 65.699 101.204C65.7438 101.18 65.7866 101.154 65.8354 101.135C66.5242 100.871 67.3003 101.206 67.5692 101.883C67.8381 102.559 67.4973 103.322 66.8085 103.586C66.7637 103.603 66.7182 103.611 66.6727 103.623C66.9392 104.058 67.2514 104.472 67.6074 104.858C67.6334 104.817 67.6556 104.776 67.6865 104.737C68.1485 104.171 68.991 104.079 69.5682 104.533C70.1454 104.987 70.2385 105.815 69.7765 106.381C69.7474 106.417 69.7128 106.445 69.681 106.477C70.1436 106.731 70.6241 106.936 71.1158 107.093C71.1179 107.045 71.1158 106.997 71.1234 106.947C71.235 106.229 71.918 105.737 72.6489 105.846C73.3798 105.956 73.8818 106.627 73.77 107.345C73.7624 107.393 73.7463 107.437 73.7336 107.483C74.259 107.476 74.7828 107.419 75.297 107.313C75.2721 107.267 75.2442 107.223 75.2245 107.174C74.9559 106.497 75.2964 105.734 75.9852 105.47C76.6739 105.206 77.45 105.541 77.7189 106.218C77.7389 106.268 77.7489 106.32 77.7626 106.371C78.2128 106.109 78.6408 105.801 79.0401 105.449C78.9901 105.42 78.9388 105.393 78.8918 105.355ZM76.8479 102.317C75.2733 104.064 72.5458 104.226 70.7675 102.679C68.9895 101.132 68.8239 98.4529 70.3988 96.7062C71.9735 94.9595 74.7013 94.7969 76.4793 96.3437C78.2573 97.8906 78.4226 100.57 76.8479 102.317Z" fill="#7A5CE0"/>
<path d="M73.8379 103.044C75.8232 102.927 77.3359 101.251 77.2166 99.3006C77.0973 97.3503 75.3911 95.8642 73.4058 95.9815C71.4205 96.0987 69.9078 97.7748 70.0271 99.7251C70.1464 101.675 71.8526 103.161 73.8379 103.044Z" stroke="black" stroke-miterlimit="10"/>
<path d="M53.1364 82.7181C53.0855 82.6779 53.0439 82.6312 52.9997 82.5862C52.7029 83.1139 52.464 83.6622 52.2824 84.223C52.347 84.2245 52.4112 84.2227 52.4767 84.2328C53.3131 84.3582 53.8879 85.1263 53.76 85.9482C53.6324 86.7699 52.8505 87.3346 52.0138 87.2089C51.9559 87.2003 51.9028 87.1815 51.8477 87.1669C51.8598 87.7572 51.9301 88.3453 52.0571 88.9228C52.1087 88.896 52.1575 88.8659 52.2133 88.8445C53.0015 88.5422 53.89 88.9252 54.1977 89.6995C54.5051 90.4741 54.1156 91.3467 53.3271 91.649C53.2758 91.6687 53.2237 91.6776 53.1719 91.6913C53.4768 92.1896 53.8343 92.6631 54.2417 93.1051C54.2714 93.0589 54.2969 93.0109 54.3323 92.9675C54.8614 92.3185 55.8257 92.2137 56.486 92.7334C57.1466 93.2531 57.2533 94.2004 56.7243 94.8491C56.6909 94.8899 56.6515 94.9223 56.6148 94.9587C57.1444 95.249 57.6944 95.4843 58.257 95.6642C58.2595 95.6085 58.257 95.5534 58.2658 95.4974C58.3938 94.6754 59.1753 94.1111 60.012 94.2368C60.8484 94.3624 61.4232 95.1302 61.2953 95.9522C61.2868 96.0073 61.268 96.0579 61.2538 96.1106C61.8552 96.1026 62.4546 96.0371 63.0433 95.9158C63.0145 95.8631 62.9827 95.8131 62.9602 95.7562C62.6528 94.9819 63.0424 94.109 63.8309 93.8067C64.6194 93.5047 65.508 93.8874 65.8154 94.662C65.8384 94.7198 65.85 94.7791 65.8651 94.8377C66.3805 94.5378 66.8704 94.1858 67.3275 93.7826C67.2699 93.7486 67.2114 93.7171 67.1578 93.6745C66.4972 93.1548 66.3905 92.2074 66.9195 91.5585C67.4485 90.9095 68.4129 90.8047 69.0734 91.3244C69.1286 91.3676 69.1738 91.4179 69.2214 91.4668C69.5264 90.9367 69.7719 90.3854 69.9596 89.821C69.8847 89.8207 69.8095 89.821 69.7334 89.8097C68.8967 89.684 68.3222 88.9163 68.4501 88.0943C68.5781 87.2726 69.3596 86.708 70.1963 86.8336C70.273 86.845 70.3449 86.8676 70.4167 86.8893C70.4098 86.2842 70.3416 85.6811 70.2136 85.089C70.1442 85.1289 70.0742 85.1682 69.9969 85.198C69.2084 85.5003 68.3201 85.1173 68.0124 84.343C67.7047 83.5684 68.0945 82.6958 68.8828 82.3935C68.9598 82.364 69.038 82.3464 69.1159 82.3298C68.8036 81.8134 68.4368 81.3226 68.0151 80.8663C67.9745 80.9381 67.9314 81.0089 67.8775 81.0754C67.3485 81.7243 66.3841 81.8291 65.7235 81.3094C65.063 80.7897 64.9562 79.8424 65.4853 79.1938C65.5371 79.1303 65.5959 79.0767 65.655 79.0237C65.1078 78.7229 64.5385 78.482 63.9564 78.2994C63.9573 78.3807 63.9564 78.4626 63.9437 78.5457C63.8158 79.3674 63.0339 79.932 62.1975 79.8064C61.3611 79.681 60.7866 78.9129 60.9142 78.0909C60.9264 78.0138 60.9494 77.9411 60.9724 77.8688C60.3567 77.8795 59.7434 77.951 59.1417 78.0802C59.1808 78.1466 59.2199 78.2133 59.2493 78.2869C59.557 79.0615 59.1671 79.9341 58.3786 80.2364C57.5904 80.5387 56.7018 80.1557 56.3941 79.3814C56.3671 79.3135 56.3523 79.2444 56.3356 79.1756C55.8181 79.482 55.3264 79.8415 54.8689 80.2528C54.9311 80.2888 54.9938 80.3234 55.0517 80.3692C55.7123 80.8889 55.819 81.8363 55.29 82.4852C54.7613 83.133 53.797 83.2378 53.1364 82.7181ZM63.1646 82.7527C65.5422 83.8537 66.5645 86.6499 65.4437 88.9857C64.3229 91.3214 61.4769 92.326 59.0992 91.2249C56.7215 90.1239 55.699 87.3277 56.8198 84.9922C57.9405 82.6565 60.7869 81.6516 63.1646 82.7527Z" fill="#7A5CE0"/>
<path d="M64.1806 89.6593C62.6957 91.3062 60.1331 91.459 58.4566 90.0003C56.7802 88.5416 56.6246 86.0242 58.1095 84.3773C59.5944 82.7303 62.157 82.5775 63.8335 84.0363C65.5099 85.495 65.6651 88.0124 64.1806 89.6593Z" stroke="black" stroke-miterlimit="10"/>
<path d="M30.0555 76.6709V71.3796C30.0555 70.2837 29.1512 69.3953 28.0356 69.3953H23.3994H19.2173C18.0274 69.3953 17.0627 68.4476 17.0627 67.2787V42.6865" stroke="#C0A4FC" stroke-width="2" stroke-miterlimit="10" stroke-linecap="round"/>
<path d="M38.0836 78.004H6.00244V85.7502H38.0836V78.004Z" fill="#7A5CE0"/>
<path d="M29.7566 82.5851H8.19385V83.0014H29.7566V82.5851Z" fill="#1D1D1B"/>
<path d="M29.7566 80.6691H8.19385V81.835H29.7566V80.6691Z" fill="#E5DBFF"/>
<path d="M35.4913 82.5851H32.7371V83.0014H35.4913V82.5851Z" fill="#1D1D1B"/>
<path d="M35.4913 80.6691H32.7371V81.835H35.4913V80.6691Z" fill="#E5DBFF"/>
<path d="M39.0991 78.4862H6.76416V86.2324H39.0991V78.4862Z" stroke="black" stroke-miterlimit="10"/>
<path d="M38.0836 86.5833H6.00244V94.3295H38.0836V86.5833Z" fill="#C0A4FC"/>
<path d="M29.7566 91.1642H8.19385V91.5805H29.7566V91.1642Z" fill="#1D1D1B"/>
<path d="M29.7566 89.2483H8.19385V90.4142H29.7566V89.2483Z" fill="#E5DBFF"/>
<path d="M35.4913 91.1642H32.7371V91.5805H35.4913V91.1642Z" fill="#1D1D1B"/>
<path d="M35.4913 89.2483H32.7371V90.4142H35.4913V89.2483Z" fill="#E5DBFF"/>
<path d="M39.0991 87.0653H6.76416V94.8115H39.0991V87.0653Z" stroke="black" stroke-miterlimit="10"/>
<path d="M38.0836 95.1621H6.00244V102.908H38.0836V95.1621Z" fill="#7A5CE0"/>
<path d="M29.7566 99.7434H8.19385V100.16H29.7566V99.7434Z" fill="#1D1D1B"/>
<path d="M29.7566 97.8276H8.19385V98.9936H29.7566V97.8276Z" fill="#E5DBFF"/>
<path d="M35.4913 99.7434H32.7371V100.16H35.4913V99.7434Z" fill="#1D1D1B"/>
<path d="M35.4913 97.8276H32.7371V98.9936H35.4913V97.8276Z" fill="#E5DBFF"/>
<path d="M39.0991 95.6445H6.76416V103.391H39.0991V95.6445Z" stroke="black" stroke-miterlimit="10"/>
<path d="M38.0836 103.741H6.00244V111.488H38.0836V103.741Z" fill="#C0A4FC"/>
<path d="M29.7566 108.323H8.19385V108.739H29.7566V108.323Z" fill="#1D1D1B"/>
<path d="M29.7566 106.407H8.19385V107.573H29.7566V106.407Z" fill="#E5DBFF"/>
<path d="M35.4913 108.323H32.7371V108.739H35.4913V108.323Z" fill="#1D1D1B"/>
<path d="M35.4913 106.407H32.7371V107.573H35.4913V106.407Z" fill="#E5DBFF"/>
<path d="M39.0991 104.224H6.76416V111.97H39.0991V104.224Z" stroke="black" stroke-miterlimit="10"/>
<path d="M29.5895 16.5017C26.2708 16.5017 23.5806 13.5569 23.5806 13.5569C23.5806 13.5569 26.2708 10.6121 29.5895 10.6121C32.9082 10.6121 35.5984 13.5569 35.5984 13.5569C35.5984 13.5569 32.9082 16.5017 29.5895 16.5017Z" stroke="black" stroke-miterlimit="10"/>
<path d="M27.7613 11.4885C28.7569 10.344 30.3712 10.344 31.3668 11.4885C32.3624 12.633 32.3624 14.4884 31.3668 15.6329C30.3712 16.7774 28.7569 16.7774 27.7613 15.6329C26.7658 14.4884 26.7658 12.633 27.7613 11.4885Z" fill="#7A5CE0"/>
<path d="M44.6368 12.7257C41.3182 12.7257 38.6279 9.78087 38.6279 9.78087C38.6279 9.78087 41.3182 6.83606 44.6368 6.83606C47.9555 6.83606 50.6458 9.78087 50.6458 9.78087C50.6458 9.78087 47.9552 12.7257 44.6368 12.7257Z" stroke="black" stroke-miterlimit="10"/>
<path d="M44.6118 12.7153C46.0197 12.7153 47.161 11.4032 47.161 9.78476C47.161 8.16628 46.0197 6.85425 44.6118 6.85425C43.2038 6.85425 42.0625 8.16628 42.0625 9.78476C42.0625 11.4032 43.2038 12.7153 44.6118 12.7153Z" fill="#7A5CE0"/>
<path d="M92.4794 85.486H82.2611C81.3889 85.486 80.6816 84.91 80.6816 84.1997V70.5258" stroke="#C0A4FC" stroke-width="2" stroke-miterlimit="10"/>
<path d="M119.254 77.4282H92.8776C91.8365 77.4282 90.9849 76.6143 90.9561 75.5919L90.7764 69.1721C90.7467 68.1095 91.6155 67.2322 92.6975 67.2322H119.253C120.315 67.2322 121.175 68.0777 121.175 69.1203V75.5401C121.176 76.583 120.315 77.4282 119.254 77.4282Z" fill="#FF6363"/>
<path d="M114.828 72.2587C114.709 73.2993 113.75 74.1656 112.73 74.1534C111.71 74.1412 110.77 73.2519 110.675 72.2084C110.64 71.8167 110.756 71.3548 111.108 71.1997C111.46 71.0445 111.889 71.2997 112.037 71.6628C112.185 72.0255 112.11 72.4469 111.958 72.8082C111.495 73.9065 110.293 74.6239 109.135 74.4935C107.977 74.3631 106.955 73.3958 106.735 72.2206C106.66 71.8185 106.703 71.334 107.033 71.1035C107.441 70.8179 108.051 71.1547 108.194 71.6404C108.336 72.1264 108.129 72.6536 107.83 73.058C107.209 73.8996 106.155 74.3297 105.141 74.2847C104.686 74.2645 104.091 74.1558 103.712 73.8865C103.157 73.4913 102.601 72.2212 103.038 71.5826C103.124 71.4567 103.263 71.3578 103.413 71.3643C103.515 71.3685 103.611 71.4206 103.688 71.4891C103.887 71.6648 103.977 71.9439 103.985 72.2131C104.001 72.7688 103.683 73.3901 103.326 73.7972C102.662 74.5551 101.508 74.7815 100.592 74.3863C99.6769 73.9911 99.0375 73.0294 98.9475 72.0139C98.9138 71.6333 99.0724 71.1258 99.444 71.1454C99.7181 71.1597 99.8809 71.4671 99.9412 71.742C100.116 72.5354 99.8688 73.413 99.3091 73.9887C98.7498 74.5644 97.8958 74.8199 97.123 74.6427" stroke="black" stroke-miterlimit="10" stroke-linecap="round"/>
<path d="M92.8308 79.5482H119.12C120.1 79.5482 120.893 80.3002 120.893 81.2279V85.6544C120.893 86.566 120.126 87.3114 119.164 87.3334L93.1792 87.9318C92.2233 87.9538 91.4212 87.2533 91.3663 86.3489L91.0616 81.3238C91.0028 80.3604 91.8119 79.5482 92.8308 79.5482Z" fill="#FF6363"/>
<path d="M95.5042 84.9204C95.6327 84.0037 96.3248 83.1856 97.2188 82.8937C98.1128 82.6022 99.1657 82.8509 99.8269 83.5099C100.137 83.8194 100.371 84.2661 100.243 84.6821C100.115 85.0982 99.4849 85.326 99.2075 84.9877C99.0496 84.795 99.066 84.5162 99.132 84.2774C99.3421 83.518 100.001 82.8958 100.782 82.7201C101.563 82.5441 102.432 82.822 102.958 83.4155C103.183 83.6699 103.351 84.029 103.217 84.3393C103.082 84.6497 102.53 84.7194 102.425 84.3983C102.372 84.2348 102.455 84.06 102.547 83.9144C103.518 82.3886 105.955 82.0408 107.328 83.2315C107.634 83.4968 107.902 83.8751 107.831 84.27C107.759 84.6646 107.174 84.9228 106.922 84.6074C106.692 84.3197 106.933 83.9028 107.198 83.6454C107.828 83.0331 108.635 82.5977 109.499 82.4032C110.203 82.2448 110.994 82.2609 111.584 82.6713C112.173 83.0817 112.436 83.9742 111.989 84.5311C111.915 84.6229 111.82 84.7051 111.705 84.7322C111.257 84.8364 111.102 84.1371 111.292 83.7252C111.975 82.2448 114.327 81.8889 115.431 83.0992" stroke="black" stroke-miterlimit="10" stroke-linecap="round"/>
<path d="M91.2 91.9296V98.9C91.2 99.8229 91.9903 100.573 92.9698 100.58L118.957 100.75C119.959 100.756 120.77 99.9822 120.751 99.0372L120.615 92.4933C120.596 91.5945 119.83 90.869 118.877 90.847L93.0259 90.2508C92.0245 90.2272 91.2 90.9858 91.2 91.9296Z" fill="#FF6363"/>
<path d="M95.5339 93.8925C95.2938 95.1615 96.334 96.5196 97.6415 96.645C98.9493 96.7703 100.237 95.6354 100.251 94.3446C100.253 94.216 100.242 94.0843 100.191 93.9661C99.9755 93.4708 99.1324 93.5617 98.8729 94.0364C98.6134 94.5111 98.8123 95.1151 99.1542 95.5362C99.7542 96.2754 100.791 96.6444 101.734 96.4544C102.676 96.2644 103.481 95.5243 103.737 94.613C103.822 94.3104 103.77 93.8806 103.455 93.8282C103.195 93.785 102.994 94.0534 102.916 94.3012C102.566 95.4183 103.48 96.6887 104.651 96.8936C105.823 97.0985 107.042 96.357 107.547 95.2991C107.714 94.9495 107.834 93.9694 107.151 94.121C106.38 94.2919 106.804 95.6461 107.139 96.0243C107.648 96.5979 108.477 96.8108 109.251 96.7745C109.996 96.7397 110.756 96.4815 111.257 95.9385C111.57 95.5996 112.216 94.1779 111.432 94.0316C110.658 93.8872 110.564 95.0552 110.784 95.5475C111.545 97.2463 113.993 97.0277 114.962 95.6622C115.151 95.3953 115.41 94.7928 115.253 94.4608C115.015 93.9616 114.437 94.2371 114.252 94.5757C113.955 95.1187 113.964 95.7569 114.325 96.2673C114.875 97.0455 116.033 97.338 116.897 96.9166" stroke="black" stroke-miterlimit="10" stroke-linecap="round"/>
<path d="M112.62 69.043C112.726 66.9217 113.571 64.8861 114.728 63.092C115.886 61.298 117.35 59.7181 118.819 58.1593C116.866 61.2229 116.047 64.9686 116.549 68.5501" fill="#FF6363"/>
<path d="M95.1476 98.5911C96.1259 101.872 95.6778 105.539 93.9368 108.499C96.8089 106.341 98.6612 102.924 98.8807 99.3779" fill="#FF6363"/>
<path d="M112.192 18.4137V27.9736C112.192 29.3546 111.053 30.4741 109.647 30.4741H88.0615" stroke="#C0A4FC" stroke-width="2" stroke-miterlimit="10" stroke-linecap="round"/>
<path d="M105.024 17.8573V23.3452C105.024 24.5275 106 25.4862 107.203 25.4862H114.194C115.398 25.4862 116.374 24.5275 116.374 23.3452V13.3153" stroke="#C0A4FC" stroke-width="2" stroke-miterlimit="10" stroke-linecap="round"/>
<path d="M3.76788 19.8139V15.8539C3.60084 15.8086 3.42652 15.8762 3.32496 16.018C2.99027 16.4855 2.44701 16.7896 1.83312 16.7878C0.869073 16.7852 0.0535749 16.0022 0.0026442 15.0265C-0.0534402 13.9523 0.789948 13.0633 1.83797 13.0633C2.45005 13.0633 2.99088 13.3668 3.32466 13.8332C3.42622 13.9753 3.60053 14.0429 3.76788 13.9976V10.0372H13.4174V13.9973C13.5845 14.0426 13.7588 13.975 13.8606 13.8329C14.1944 13.3668 14.7356 13.063 15.3473 13.063C16.3953 13.063 17.2387 13.952 17.1827 15.0262C17.1317 16.0016 16.3165 16.7849 15.3522 16.7875C14.7383 16.7893 14.195 16.4852 13.8603 16.0177C13.7588 15.8759 13.5845 15.8083 13.4174 15.8536V19.8136L3.76788 19.8139Z" fill="#7A5CE0"/>
<path d="M12.8861 25.7492C12.5254 26.245 11.926 26.5569 11.2551 26.5152C10.3129 26.4568 9.54563 25.6741 9.50743 24.7342C9.46408 23.6704 10.3166 22.7945 11.3746 22.7945C11.9967 22.7945 12.5469 23.098 12.8861 23.5644C12.9895 23.7062 13.1666 23.7741 13.3366 23.7288V19.7684H9.47105C9.42558 19.599 9.49349 19.4224 9.63597 19.3196C10.1037 18.9813 10.4084 18.4333 10.4084 17.8133C10.4084 16.7513 9.51653 15.8971 8.43849 15.9537C7.45959 16.0052 6.67381 16.8314 6.67108 17.8082C6.66926 18.4303 6.97454 18.9807 7.44353 19.3199C7.58601 19.4227 7.65361 19.5996 7.60844 19.7687H3.63434V23.7291C3.80411 23.7744 3.98145 23.7068 4.08483 23.565C4.42497 23.0974 4.97733 22.7934 5.60153 22.7951C6.58165 22.7978 7.41079 23.5811 7.46232 24.5564C7.51932 25.6306 6.66198 26.5196 5.59638 26.5196C4.9743 26.5196 4.42407 26.2159 4.08453 25.7498C3.98115 25.608 3.80411 25.5401 3.63403 25.5854V29.5457H13.3363V25.5854C13.1669 25.5398 12.9895 25.6074 12.8861 25.7492Z" fill="#FF6363"/>
<path d="M11.7106 34.4477C12.3327 34.4477 12.8829 34.7512 13.2222 35.2176C13.3255 35.3594 13.5026 35.4273 13.6726 35.382V31.4216H17.6468C17.6468 31.2531 17.5425 31.0238 17.4103 30.9183C16.6669 30.3251 16.3877 29.1797 17.2081 28.1028C18.7496 26.9318 20.4464 28.0015 20.4464 29.4662C20.4464 30.0862 20.1418 30.6345 19.674 30.9725C19.5315 31.0756 19.4636 31.2522 19.5091 31.4213H23.4832V41.1981H13.6726V37.238C13.5026 37.1927 13.3255 37.2603 13.2222 37.4024C12.8753 37.8786 12.3087 38.1853 11.67 38.1719C10.6902 38.1511 9.87013 37.3398 9.84254 36.3636C9.81313 35.3105 10.6608 34.4477 11.7106 34.4477Z" fill="#7A5CE0"/>
<path d="M18.6311 41.8649C18.6311 42.6913 17.9493 43.3611 17.108 43.3611C16.2668 43.3611 15.585 42.6913 15.585 41.8649C15.585 41.0384 16.2668 40.3687 17.108 40.3687C17.9493 40.3687 18.6311 41.0384 18.6311 41.8649Z" fill="#C0A4FC"/>
<path d="M24.7043 77.2493C24.7043 78.0757 24.0225 78.7455 23.1813 78.7455C22.34 78.7455 21.6582 78.0757 21.6582 77.2493C21.6582 76.4228 22.34 75.7531 23.1813 75.7531C24.0225 75.7528 24.7043 76.4228 24.7043 77.2493Z" fill="#C0A4FC"/>
<path d="M31.3992 77.2493C31.3992 78.0757 30.7174 78.7455 29.8761 78.7455C29.0348 78.7455 28.353 78.0757 28.353 77.2493C28.353 76.4228 29.0348 75.7531 29.8761 75.7531C30.7174 75.7531 31.3992 76.4228 31.3992 77.2493Z" fill="#C0A4FC"/>
<path d="M90.0898 70.5189C90.0898 71.3454 89.408 72.0152 88.5668 72.0152C87.7255 72.0152 87.0437 71.3454 87.0437 70.5189C87.0437 69.6925 87.7255 69.0227 88.5668 69.0227C89.4077 69.0227 90.0898 69.6925 90.0898 70.5189Z" fill="#C0A4FC"/>
<path d="M91.6086 85.7062C91.6086 86.5326 90.9268 87.2024 90.0856 87.2024C89.2443 87.2024 88.5625 86.5326 88.5625 85.7062C88.5625 84.8797 89.2443 84.21 90.0856 84.21C90.9268 84.21 91.6086 84.8797 91.6086 85.7062Z" fill="#C0A4FC"/>
<path d="M93.1272 96.6447C93.1272 97.4711 92.4454 98.1409 91.6041 98.1409C90.7629 98.1409 90.0811 97.4711 90.0811 96.6447C90.0811 95.8182 90.7629 95.1484 91.6041 95.1484C92.4451 95.1484 93.1272 95.8185 93.1272 96.6447Z" fill="#C0A4FC"/>
<path d="M106.547 17.8573C106.547 18.6838 105.865 19.3535 105.024 19.3535C104.183 19.3535 103.501 18.6838 103.501 17.8573C103.501 17.0309 104.183 16.3611 105.024 16.3611C105.865 16.3611 106.547 17.0312 106.547 17.8573Z" fill="#C0A4FC"/>
<path d="M113.715 17.8573C113.715 18.6838 113.034 19.3535 112.192 19.3535C111.351 19.3535 110.669 18.6838 110.669 17.8573C110.669 17.0309 111.351 16.3611 112.192 16.3611C113.033 16.3611 113.715 17.0312 113.715 17.8573Z" fill="#C0A4FC"/>
<path d="M118.289 13.0426C118.289 13.8691 117.607 14.5388 116.766 14.5388C115.924 14.5388 115.243 13.8691 115.243 13.0426C115.243 12.2162 115.924 11.5464 116.766 11.5464C117.607 11.5464 118.289 12.2162 118.289 13.0426Z" fill="#C0A4FC"/>
<path d="M105.454 42.5183H104.017V52.427H105.454V42.5183Z" fill="#FF6363"/>
<path d="M108.196 47.094H106.76V52.427H108.196V47.094Z" fill="#FF6363"/>
<path d="M110.939 43.4854H109.502V52.4273H110.939V43.4854Z" fill="#FF6363"/>
<path d="M113.681 39.6067H112.245V52.4271H113.681V39.6067Z" fill="#FF6363"/>
<path d="M116.424 46.0486H114.987V52.4269H116.424V46.0486Z" fill="#FF6363"/>
<path d="M119.287 52.3001H102.55V40.229" stroke="#1D1D1B" stroke-miterlimit="10"/>
<path d="M49.1708 71.9568L46.4111 74.6678" stroke="#1C1C1B" stroke-miterlimit="10" stroke-linecap="round" stroke-linejoin="round"/>
<path d="M51.2246 71.9568L48.4646 74.6678" stroke="#1C1C1B" stroke-miterlimit="10" stroke-linecap="round" stroke-linejoin="round"/>
<path d="M55.7565 71.9568L52.9966 74.6678" stroke="#1C1C1B" stroke-miterlimit="10" stroke-linecap="round" stroke-linejoin="round"/>
<path d="M101.384 58.49L103.974 60.8392L101.384 63.1883" stroke="#1C1C1B" stroke-miterlimit="10" stroke-linecap="round" stroke-linejoin="round"/>
<path d="M99.6338 58.49L102.224 60.8392L99.6338 63.1883" stroke="#1C1C1B" stroke-miterlimit="10" stroke-linecap="round" stroke-linejoin="round"/>
<path d="M96.215 60.6327C96.215 61.1706 95.7711 61.6069 95.2233 61.6069C94.6758 61.6069 94.2317 61.1709 94.2317 60.6327C94.2317 60.0949 94.6755 59.6586 95.2233 59.6586C95.7711 59.6589 96.215 60.0949 96.215 60.6327Z" stroke="#1C1C1B" stroke-miterlimit="10" stroke-linecap="round" stroke-linejoin="round"/>
<path d="M97.7017 60.7659H100.614" stroke="#1C1C1B" stroke-miterlimit="10" stroke-linecap="round" stroke-linejoin="round"/>
<path d="M9.62536 53.8601L7.25708 56.0077L9.62536 58.1555" stroke="#1C1C1B" stroke-miterlimit="10" stroke-linecap="round" stroke-linejoin="round"/>
<path d="M11.2247 53.8601L8.85645 56.0077L11.2247 58.1555" stroke="#1C1C1B" stroke-miterlimit="10" stroke-linecap="round" stroke-linejoin="round"/>
<path d="M22.6777 53.8601L25.0418 56.0077L22.6777 58.1555" stroke="#1C1C1B" stroke-miterlimit="10" stroke-linecap="round" stroke-linejoin="round"/>
<path d="M13.1111 55.9978C13.1111 56.4839 12.71 56.8782 12.2149 56.8782C11.7202 56.8782 11.3191 56.4842 11.3191 55.9978C11.3191 55.5118 11.7202 55.1178 12.2149 55.1178C12.7097 55.1175 13.1111 55.5118 13.1111 55.9978Z" stroke="#1C1C1B" stroke-miterlimit="10" stroke-linecap="round" stroke-linejoin="round"/>
<path d="M14.6689 55.9979H18.1783" stroke="#1C1C1B" stroke-miterlimit="10" stroke-linecap="round" stroke-linejoin="round"/>
<path d="M19.6716 55.9979H21.7625" stroke="#1C1C1B" stroke-miterlimit="10" stroke-linecap="round" stroke-linejoin="round"/>
<path d="M77.7127 7.36408C77.7127 7.83612 77.3231 8.21851 76.8429 8.21851C76.3624 8.21851 75.9731 7.83582 75.9731 7.36408C75.9731 6.89234 76.3627 6.50964 76.8429 6.50964C77.3231 6.50964 77.7127 6.89204 77.7127 7.36408Z" stroke="#1C1C1B" stroke-miterlimit="10" stroke-linecap="round" stroke-linejoin="round"/>
<path d="M63.7247 5.16284L60.825 8.72324" stroke="#1C1C1B" stroke-miterlimit="10" stroke-linecap="round" stroke-linejoin="round"/>
<path d="M66.6243 5.16284L63.7249 8.72324" stroke="#1C1C1B" stroke-miterlimit="10" stroke-linecap="round" stroke-linejoin="round"/>
<path d="M68.3638 5.16284L65.4644 8.72324" stroke="#1C1C1B" stroke-miterlimit="10" stroke-linecap="round" stroke-linejoin="round"/>
<path d="M69.1255 7.43726H74.5017" stroke="#1C1C1B" stroke-miterlimit="10" stroke-linecap="round" stroke-linejoin="round"/>
<path d="M45.7903 104.42C45.7903 104.892 46.185 105.275 46.6719 105.275C47.1587 105.275 47.5535 104.892 47.5535 104.42C47.5535 103.949 47.1587 103.566 46.6719 103.566C46.1853 103.566 45.7903 103.949 45.7903 104.42Z" stroke="#1C1C1B" stroke-miterlimit="10" stroke-linecap="round" stroke-linejoin="round"/>
<path d="M57.0295 102.219L59.9684 105.78" stroke="#1C1C1B" stroke-miterlimit="10" stroke-linecap="round" stroke-linejoin="round"/>
<path d="M55.2661 102.219L58.2052 105.78" stroke="#1C1C1B" stroke-miterlimit="10" stroke-linecap="round" stroke-linejoin="round"/>
<path d="M54.4942 104.494H49.0449" stroke="#1C1C1B" stroke-miterlimit="10" stroke-linecap="round" stroke-linejoin="round"/>
</svg>
