<svg width="173" height="160" viewBox="0 0 173 160" fill="none" xmlns="http://www.w3.org/2000/svg">
<path d="M16.128 43.856H20.064C23.808 43.856 26.304 42.992 27.648 41.168C28.992 39.344 29.664 35.792 29.664 30.416C29.664 25.232 28.992 21.68 27.648 19.856C26.304 18.032 23.808 17.072 20.064 17.072H16.128V43.856ZM14.016 74H6.624C5.088 74 4.416 73.328 4.416 71.888V8.528C4.416 7.184 5.088 6.41599 6.624 6.41599H20.064C27.936 6.41599 33.504 8.144 36.768 11.6C39.936 15.056 41.568 21.392 41.568 30.512C41.568 39.536 39.936 45.776 36.672 49.232C33.408 52.688 27.936 54.416 20.064 54.416H16.128V71.888C16.128 73.328 15.36 74 14.016 74ZM60.9405 8.528V63.152H75.9165C77.2605 63.152 78.0285 63.92 78.0285 65.264V71.888C78.0285 73.328 77.2605 74 75.9165 74H51.4365C49.9005 74 49.2285 73.328 49.2285 71.888V8.528C49.2285 7.088 49.9005 6.32 51.4365 6.32H58.8285C60.1725 6.32 60.9405 7.088 60.9405 8.528ZM85.6148 71.888V8.528C85.6148 7.088 86.2868 6.32 87.8228 6.32H95.2148C96.5588 6.32 97.3268 7.088 97.3268 8.528V71.888C97.3268 73.328 96.5588 74 95.2148 74H87.8228C86.2868 74 85.6148 73.328 85.6148 71.888ZM146.153 8.528V71.888C146.153 73.328 145.385 74 144.041 74H137.321C135.881 74 134.921 73.424 134.441 72.176L118.121 32.048V71.888C118.121 73.328 117.353 74 115.913 74H108.905C107.369 74 106.697 73.328 106.697 71.888V8.528C106.697 7.088 107.369 6.32 108.905 6.32H115.625C117.065 6.32 118.025 6.992 118.505 8.144L134.825 48.368V8.528C134.825 7.088 135.497 6.32 136.937 6.32H144.041C145.385 6.32 146.153 7.088 146.153 8.528ZM155.651 71.888V63.056C155.651 61.712 156.323 61.04 157.763 61.04H165.443C166.787 61.04 167.555 61.712 167.555 63.056V71.888C167.555 73.328 166.787 74 165.443 74H157.763C156.323 74 155.651 73.328 155.651 71.888ZM164.099 53.84H159.011C157.763 53.84 157.091 53.168 156.995 51.728L155.267 8.528C155.075 7.088 155.747 6.32 157.283 6.32H165.923C167.267 6.32 167.939 7.088 167.843 8.528L166.211 51.728C166.211 53.168 165.443 53.84 164.099 53.84ZM16.128 123.856H20.064C23.808 123.856 26.304 122.992 27.648 121.168C28.992 119.344 29.664 115.792 29.664 110.416C29.664 105.232 28.992 101.68 27.648 99.856C26.304 98.032 23.808 97.072 20.064 97.072H16.128V123.856ZM14.016 154H6.624C5.088 154 4.416 153.328 4.416 151.888V88.528C4.416 87.184 5.088 86.416 6.624 86.416H20.064C27.936 86.416 33.504 88.144 36.768 91.6C39.936 95.056 41.568 101.392 41.568 110.512C41.568 119.536 39.936 125.776 36.672 129.232C33.408 132.688 27.936 134.416 20.064 134.416H16.128V151.888C16.128 153.328 15.36 154 14.016 154ZM60.9405 88.528V143.152H75.9165C77.2605 143.152 78.0285 143.92 78.0285 145.264V151.888C78.0285 153.328 77.2605 154 75.9165 154H51.4365C49.9005 154 49.2285 153.328 49.2285 151.888V88.528C49.2285 87.088 49.9005 86.32 51.4365 86.32H58.8285C60.1725 86.32 60.9405 87.088 60.9405 88.528ZM85.6148 151.888V88.528C85.6148 87.088 86.2868 86.32 87.8228 86.32H95.2148C96.5588 86.32 97.3268 87.088 97.3268 88.528V151.888C97.3268 153.328 96.5588 154 95.2148 154H87.8228C86.2868 154 85.6148 153.328 85.6148 151.888ZM146.153 88.528V151.888C146.153 153.328 145.385 154 144.041 154H137.321C135.881 154 134.921 153.424 134.441 152.176L118.121 112.048V151.888C118.121 153.328 117.353 154 115.913 154H108.905C107.369 154 106.697 153.328 106.697 151.888V88.528C106.697 87.088 107.369 86.32 108.905 86.32H115.625C117.065 86.32 118.025 86.992 118.505 88.144L134.825 128.368V88.528C134.825 87.088 135.497 86.32 136.937 86.32H144.041C145.385 86.32 146.153 87.088 146.153 88.528ZM155.651 151.888V143.056C155.651 141.712 156.323 141.04 157.763 141.04H165.443C166.787 141.04 167.555 141.712 167.555 143.056V151.888C167.555 153.328 166.787 154 165.443 154H157.763C156.323 154 155.651 153.328 155.651 151.888ZM164.099 133.84H159.011C157.763 133.84 157.091 133.168 156.995 131.728L155.267 88.528C155.075 87.088 155.747 86.32 157.283 86.32H165.923C167.267 86.32 167.939 87.088 167.843 88.528L166.211 131.728C166.211 133.168 165.443 133.84 164.099 133.84Z" fill="white"/>
</svg>
