<svg width="361" height="322" viewBox="0 0 361 322" fill="none" xmlns="http://www.w3.org/2000/svg">
<path d="M185.634 0.0737733C93.4593 -2.43 13.6168 59.0915 1.55381 139.816C-11.6351 228.076 60.9552 307.49 150.275 320.209C261.373 336.03 369.132 244.505 359.457 145.216C352.167 70.4091 279.331 2.61872 185.634 0.0737733Z" fill="#F4F7FA"/>
<path d="M341.357 281.815L22.0512 279.311V286.719C22.0512 288.729 23.4439 290.439 25.3301 290.744L115.62 305.331C116.692 305.504 117.779 305.55 118.86 305.468L337.887 288.836C339.843 288.688 341.357 286.973 341.357 284.907V281.815Z" fill="#26264F"/>
<path d="M225.482 269.943L25.3531 283.495C21.7719 283.738 18.8601 281.161 18.8601 277.739V140.652C18.8601 137.23 21.7718 134.456 25.3531 134.456H225.482C228.433 134.456 230.818 136.964 230.818 140.057V263.981C230.818 267.074 228.433 269.744 225.482 269.943Z" fill="#26264F"/>
<path d="M228.673 269.943L28.5442 283.495C24.9629 283.737 22.0512 281.161 22.0512 277.739V140.652C22.0512 137.23 24.9629 134.456 28.5442 134.456H228.673C231.624 134.456 234.009 136.964 234.009 140.057V263.981C234.009 267.074 231.624 269.744 228.673 269.943Z" fill="url(#paint0_linear_9_99)"/>
<path d="M222.439 261.206L36.0393 272.978C33.1251 273.162 30.7568 271.047 30.7568 268.254V148.234C30.7568 145.44 33.125 143.166 36.0393 143.155L222.439 142.416C224.873 142.406 226.841 144.461 226.841 147.005V256.322C226.841 258.866 224.873 261.053 222.439 261.206Z" fill="url(#paint1_linear_9_99)"/>
<path d="M135.677 138.206C135.677 139.48 134.647 140.515 133.375 140.519C132.101 140.523 131.068 139.491 131.068 138.214C131.068 136.938 132.101 135.902 133.375 135.901C134.647 135.9 135.677 136.932 135.677 138.206Z" fill="white"/>
<path opacity="0.48" d="M28.5434 283.495L227.66 270.012L228.673 269.943C230.027 269.852 231.258 269.236 232.198 268.302C217.87 267.581 208.97 262.904 203.229 258.071C191.7 248.365 193.699 238.794 181.266 232.412C165.759 224.453 153.566 234.538 141.799 224.587C134.665 218.554 138.167 214.056 129.389 205.04C119.666 195.055 113.336 198.411 103.565 189.424C91.2101 178.061 97.3892 169.22 86.747 161.061C73.8364 151.164 59.9129 160.324 47.623 150.832C42.3222 146.738 39.4136 140.786 37.8949 134.457H28.5443C24.963 134.457 22.0513 137.23 22.0513 140.652V277.739C22.0512 281.16 24.9624 283.737 28.5434 283.495Z" fill="white"/>
<path d="M236.65 269.192L22.0512 283.456L115.62 298.573C116.692 298.746 117.779 298.792 118.86 298.71L341.357 281.815L240.064 269.289C238.931 269.149 237.788 269.116 236.65 269.192Z" fill="url(#paint2_linear_9_99)"/>
<path d="M53.3645 283.579L232.024 271.526L287.318 278.309L110.197 291.192L53.3645 283.579Z" fill="#26264F"/>
<g opacity="0.67">
<path d="M100.134 194.734C103.942 187.927 111.054 182.975 119.363 181.86L119.943 148.87C96.1955 149.959 75.571 164.111 66.2798 184.015L100.134 194.734Z" fill="white"/>
<path d="M146.447 208.269C144.447 219.24 134.436 227.973 122.268 228.521C118.66 228.683 115.222 228.11 112.109 226.939L93.4613 256.154C102.098 260.053 111.919 261.961 122.268 261.345C152.805 259.526 177.286 236.298 180.031 208.36L146.447 208.269Z" fill="white"/>
<path d="M87.6758 253.139L106.417 223.877C100.784 219.776 97.1764 213.328 97.1764 205.943C97.1764 204.159 97.3888 202.415 97.7885 200.73L63.8641 190.089C62.0654 195.519 61.0954 201.266 61.0954 207.192C61.0954 226.816 71.6802 243.621 87.6758 253.139Z" fill="white"/>
</g>
<path d="M125.978 181.801C137.084 183.109 145.683 191.462 146.708 202.08L202.058 202.383C202.058 202.36 202.058 202.337 202.058 202.314C202.058 162.11 169.445 129.291 126.936 127.047L125.978 181.801Z" fill="url(#paint3_linear_9_99)"/>
<path d="M19.146 35.7599V118.619C19.146 121.37 21.618 123.599 24.6658 123.599H210.035C212.969 123.599 215.347 121.413 215.347 118.716V37.4774L19.146 35.7599Z" fill="#EBEFF2"/>
<path d="M210.035 27.1126L24.6658 25.2955C21.618 25.2656 19.146 27.4714 19.146 30.2222V38.7125L215.347 40.3723V32.0481C215.347 29.3509 212.969 27.1413 210.035 27.1126Z" fill="#D8DEE8"/>
<path d="M64.4131 80.0441L74.6294 47.8169C90.0881 52.4469 101.264 65.6298 101.347 81.1214L64.4131 80.0441Z" fill="#D8DEE8"/>
<path d="M91.7988 83.1168C91.2257 90.4857 87.3186 97.0105 81.4325 101.463L65.3994 82.3218L91.7988 83.1168Z" fill="white"/>
<path d="M62.1292 78.93C55.9442 73.5381 48.4838 67.0204 42.5532 61.8156C47.8135 57.3192 54.9241 54.5882 62.7406 54.6421C65.1106 54.6585 67.4135 54.9303 69.6179 55.4278L62.1292 78.93Z" fill="white"/>
<path d="M60.8392 80.9465L38.4073 95.7725C35.2697 91.5408 33.4379 86.452 33.4379 80.9823C33.4379 74.2371 36.2231 68.0951 40.8076 63.4414C42.45 64.8821 44.276 66.4817 46.2772 68.2324C52.3388 73.5358 58.4297 78.8465 60.8392 80.9465Z" fill="white"/>
<path d="M61.4892 83.3317L61.0553 107.525C52.5158 107.072 44.9441 103.3 39.8975 97.6083L61.4892 83.3317Z" fill="white"/>
<path d="M63.9756 84.3655L79.4514 102.835C74.9323 105.697 69.4686 107.425 63.5597 107.563L63.9756 84.3655Z" fill="white"/>
<path d="M201.57 63.7733L106.578 63.1965V55.0012L201.57 55.6564V63.7733Z" fill="white"/>
<path d="M201.57 78.4611L106.578 78.0259V69.8307L201.57 70.3442V78.4611Z" fill="white"/>
<path d="M201.57 93.149L106.578 92.8553V84.6602L201.57 85.0321V93.149Z" fill="white"/>
<path d="M201.57 107.837L106.578 107.685V99.4895L201.57 99.7199V107.837Z" fill="white"/>
<path d="M31.8198 32.0007C31.8198 33.2221 30.7231 34.2025 29.3699 34.1904C28.0165 34.1783 26.9189 33.1779 26.9189 31.9558C26.9189 30.7337 28.0165 29.7533 29.3699 29.766C30.7231 29.7788 31.8198 30.7791 31.8198 32.0007Z" fill="white"/>
<path d="M263.95 143.824L257.042 153.541L291.573 174.313L298.481 164.597L263.95 143.824Z" fill="white"/>
<path d="M263.192 159.772C270.399 159.772 276.241 154.398 276.241 147.768C276.241 141.139 270.399 135.764 263.192 135.764C255.984 135.764 250.142 141.139 250.142 147.768C250.142 154.398 255.984 159.772 263.192 159.772Z" fill="url(#paint4_linear_9_99)"/>
<path d="M286.923 175.954C292.84 175.954 297.638 171.541 297.638 166.098C297.638 160.654 292.84 156.242 286.923 156.242C281.005 156.242 276.208 160.654 276.208 166.098C276.208 171.541 281.005 175.954 286.923 175.954Z" fill="url(#paint5_linear_9_99)"/>
<path d="M286.397 118.783C295.476 118.783 302.836 109.27 302.836 97.534C302.836 85.7983 295.476 76.2845 286.397 76.2845C277.319 76.2845 269.959 85.7983 269.959 97.534C269.959 109.27 277.319 118.783 286.397 118.783Z" fill="url(#paint6_linear_9_99)"/>
<path d="M236.156 46.0433H205.217C173.494 46.0433 147.776 69.6996 147.776 98.881V98.8814C147.776 114.453 161.499 127.076 178.427 127.076H262.946C279.875 127.076 293.597 114.453 293.597 98.8813C293.597 69.6997 267.88 46.0433 236.156 46.0433Z" fill="url(#paint7_linear_9_99)"/>
<path d="M230.723 184.853H210.651C190.069 184.853 173.385 169.505 173.385 150.573V150.573C173.385 140.47 182.288 132.281 193.27 132.281H248.104C259.086 132.281 267.989 140.471 267.989 150.573C267.989 169.505 251.305 184.853 230.723 184.853Z" fill="url(#paint8_linear_9_99)"/>
<path d="M264.24 115.679H205.429C197.459 115.679 190.92 110.06 190.92 103.128V92.498C190.92 85.566 197.459 80.1384 205.429 80.3723L264.24 82.0981C271.357 82.3069 277.063 87.6963 277.063 94.1379V104.016C277.063 110.457 271.357 115.679 264.24 115.679Z" fill="url(#paint9_linear_9_99)"/>
<path d="M224.272 97.2486C224.272 101.878 219.987 105.581 214.659 105.519C209.284 105.457 204.89 101.591 204.89 96.8862C204.89 92.181 209.284 88.48 214.659 88.6186C219.987 88.756 224.272 92.6193 224.272 97.2486Z" fill="white"/>
<path d="M264.016 97.9917C264.016 102.466 260.015 106.046 255.04 105.988C250.023 105.93 245.923 102.198 245.923 97.6534C245.923 93.1087 250.023 89.5302 255.04 89.6595C260.015 89.7879 264.016 93.5178 264.016 97.9917Z" fill="white"/>
<path opacity="0.3" d="M242.029 119.665C233.283 110.211 237.169 102.651 225.734 89.841C210.001 72.2144 191.646 74.2089 187.442 62.254C186.277 58.9413 186.144 54.3945 189.268 48.1091C165.304 54.4675 147.776 74.7905 147.776 98.881V98.8815C147.776 114.453 161.499 127.076 178.427 127.076H252.084C247.673 124.864 244.448 122.28 242.029 119.665Z" fill="white"/>
<path d="M156.042 118.636C165.121 118.636 172.481 109.122 172.481 97.3862C172.481 85.6504 165.121 76.1367 156.042 76.1367C146.964 76.1367 139.604 85.6504 139.604 97.3862C139.604 109.122 146.964 118.636 156.042 118.636Z" fill="url(#paint10_linear_9_99)"/>
<path d="M143.039 106.678C147.009 106.678 150.227 102.518 150.227 97.3862C150.227 92.2544 147.009 88.0942 143.039 88.0942C139.069 88.0942 135.85 92.2544 135.85 97.3862C135.85 102.518 139.069 106.678 143.039 106.678Z" fill="url(#paint11_linear_9_99)"/>
<path opacity="0.4" d="M235.666 165.981C232.913 154.084 202.451 154.371 201.623 146.596C200.984 140.601 218.474 134.666 220.671 133.92C222.551 133.283 224.416 132.743 226.263 132.281H193.27C182.288 132.281 173.385 140.47 173.385 150.573V150.573C173.385 169.505 190.069 184.853 210.651 184.853H230.723C232.652 184.853 234.546 184.718 236.396 184.458C234.649 182.466 233.51 180.288 233.235 177.91C232.624 172.64 236.733 170.591 235.666 165.981Z" fill="url(#paint12_linear_9_99)"/>
<path d="M221.181 136.83C238.689 136.83 252.882 135.249 252.882 133.299C252.882 131.349 238.689 129.769 221.181 129.769C203.673 129.769 189.48 131.349 189.48 133.299C189.48 135.249 203.673 136.83 221.181 136.83Z" fill="url(#paint13_linear_9_99)"/>
<path d="M180.473 143.824L173.565 153.541L208.096 174.313L215.004 164.596L180.473 143.824Z" fill="white"/>
<path d="M179.711 159.772C186.918 159.772 192.761 154.398 192.761 147.768C192.761 141.139 186.918 135.764 179.711 135.764C172.504 135.764 166.661 141.139 166.661 147.768C166.661 154.398 172.504 159.772 179.711 159.772Z" fill="url(#paint14_linear_9_99)"/>
<path d="M209.519 162.818H239.745L238.545 174.323L208.92 173.41L209.519 162.818Z" fill="white"/>
<path d="M203.442 175.954C209.36 175.954 214.157 171.541 214.157 166.098C214.157 160.654 209.36 156.242 203.442 156.242C197.524 156.242 192.727 160.654 192.727 166.098C192.727 171.541 197.524 175.954 203.442 175.954Z" fill="url(#paint15_linear_9_99)"/>
<path d="M242.381 162.499C240.549 161.556 237.963 160.892 234.323 161.014C232.594 161.072 231.166 162.28 230.964 163.86L229.91 172.086H245.502L246.011 170.121C246.788 167.121 245.306 164.006 242.381 162.499Z" fill="url(#paint16_linear_9_99)"/>
<path d="M269.914 172.282L213.664 171.388C212.89 171.375 212.159 171.713 211.707 172.291L209.992 174.488C209.137 175.581 209.96 177.108 211.423 177.146L270.963 178.67L269.914 172.282Z" fill="url(#paint17_linear_9_99)"/>
<path d="M330.291 147.101L272.291 144.617C270.575 144.543 268.944 145.307 267.998 146.626L245.61 177.872L306.948 179.344C308.632 179.384 310.224 178.641 311.182 177.367L331.816 149.935C332.694 148.767 331.833 147.167 330.291 147.101Z" fill="url(#paint18_linear_9_99)"/>
<path opacity="0.3" d="M267.998 146.627C268.944 145.307 270.575 144.543 272.291 144.617L273.562 144.671C273.628 146.403 274.089 148.011 275.142 149.351C278.429 153.534 284.539 151.448 288.661 155.913C293.189 160.818 288.307 166.034 292.343 170.589C296.591 175.383 304.249 172.154 312.541 175.56L311.182 177.367C310.224 178.641 308.632 179.384 306.948 179.344L245.611 177.872L267.998 146.627Z" fill="url(#paint19_linear_9_99)"/>
<path opacity="0.68" d="M194.298 213.38V282.501C194.298 284.796 196.162 286.566 198.457 286.455L330.562 280.074C332.541 279.979 334.142 278.179 334.142 276.055V212.064L194.298 213.38Z" fill="white"/>
<path d="M330.562 203.958L198.458 204.586C196.163 204.597 194.298 206.466 194.298 208.761V215.844L334.142 214.345V207.788C334.142 205.663 332.541 203.949 330.562 203.958Z" fill="url(#paint20_linear_9_99)"/>
<path d="M203.828 210.074C203.828 211.09 203.006 211.919 201.992 211.928C200.976 211.937 200.151 211.12 200.151 210.103C200.151 209.086 200.976 208.256 201.992 208.249C203.006 208.242 203.828 209.059 203.828 210.074Z" fill="white"/>
<path d="M222.819 276.333L212.424 276.785V225.407L222.819 225.241V276.333Z" fill="white"/>
<path d="M222.819 276.333L212.424 276.785V252.392L222.819 252.076V276.333Z" fill="url(#paint21_linear_9_99)"/>
<path d="M237.091 275.713L226.855 276.158V225.177L237.091 225.013V275.713Z" fill="white"/>
<path d="M237.091 275.713L226.855 276.158V264.055L237.091 263.677V275.713Z" fill="url(#paint22_linear_9_99)"/>
<path d="M251.144 275.102L241.065 275.54V224.95L251.144 224.789V275.102Z" fill="white"/>
<path d="M251.144 275.102L241.065 275.54V269.235L251.144 268.831V275.102Z" fill="url(#paint23_linear_9_99)"/>
<path d="M264.985 274.5L255.058 274.932V224.727L264.985 224.568V274.5Z" fill="white"/>
<path d="M264.985 274.5L255.058 274.931V235.602L264.985 235.384V274.5Z" fill="url(#paint24_linear_9_99)"/>
<path d="M278.618 273.907L268.84 274.332V224.507L278.618 224.351V273.907Z" fill="white"/>
<path d="M278.618 273.907L268.84 274.332V239.735L278.618 239.497V273.907Z" fill="url(#paint25_linear_9_99)"/>
<path d="M292.047 273.323L282.415 273.742V224.29L292.047 224.137V273.323Z" fill="white"/>
<path d="M292.047 273.323L282.415 273.742V231.481L292.047 231.289V273.323Z" fill="url(#paint26_linear_9_99)"/>
<path d="M305.277 272.748L295.788 273.161V224.077L305.277 223.926V272.748Z" fill="white"/>
<path d="M305.277 272.748L295.788 273.161V243.011L305.277 242.759V272.748Z" fill="url(#paint27_linear_9_99)"/>
<path d="M318.313 272.181L308.963 272.588V223.867L318.313 223.718V272.181Z" fill="white"/>
<path d="M318.313 272.181L308.963 272.588V255.673L318.313 255.356V272.181Z" fill="url(#paint28_linear_9_99)"/>
<defs>
<linearGradient id="paint0_linear_9_99" x1="22.0512" y1="208.984" x2="234.009" y2="208.984" gradientUnits="userSpaceOnUse">
<stop stop-color="#444B8C"/>
<stop offset="0.9964" stop-color="#26264F"/>
</linearGradient>
<linearGradient id="paint1_linear_9_99" x1="30.7567" y1="207.702" x2="226.841" y2="207.702" gradientUnits="userSpaceOnUse">
<stop stop-color="#AA80F9"/>
<stop offset="0.9964" stop-color="#6165D7"/>
</linearGradient>
<linearGradient id="paint2_linear_9_99" x1="22.0512" y1="283.951" x2="341.357" y2="283.951" gradientUnits="userSpaceOnUse">
<stop stop-color="#444B8C"/>
<stop offset="0.9964" stop-color="#26264F"/>
</linearGradient>
<linearGradient id="paint3_linear_9_99" x1="157.998" y1="170.602" x2="238.894" y2="83.9907" gradientUnits="userSpaceOnUse">
<stop offset="0.0036" stop-color="#E38DDD"/>
<stop offset="1" stop-color="#9571F6"/>
</linearGradient>
<linearGradient id="paint4_linear_9_99" x1="250.142" y1="147.768" x2="276.241" y2="147.768" gradientUnits="userSpaceOnUse">
<stop stop-color="#40447E"/>
<stop offset="0.9964" stop-color="#3C3B6B"/>
</linearGradient>
<linearGradient id="paint5_linear_9_99" x1="276.208" y1="166.098" x2="297.638" y2="166.098" gradientUnits="userSpaceOnUse">
<stop stop-color="#40447E"/>
<stop offset="0.9964" stop-color="#3C3B6B"/>
</linearGradient>
<linearGradient id="paint6_linear_9_99" x1="269.959" y1="97.534" x2="302.836" y2="97.534" gradientUnits="userSpaceOnUse">
<stop stop-color="#FFC444"/>
<stop offset="0.9964" stop-color="#F36F56"/>
</linearGradient>
<linearGradient id="paint7_linear_9_99" x1="147.776" y1="86.5596" x2="293.598" y2="86.5596" gradientUnits="userSpaceOnUse">
<stop stop-color="#FCB148"/>
<stop offset="0.0521" stop-color="#FDBA46"/>
<stop offset="0.1424" stop-color="#FFC244"/>
<stop offset="0.3183" stop-color="#FFC444"/>
<stop offset="0.4849" stop-color="#FDB946"/>
<stop offset="0.7754" stop-color="#F99C4D"/>
<stop offset="0.8658" stop-color="#F8924F"/>
<stop offset="1" stop-color="#F8924F"/>
</linearGradient>
<linearGradient id="paint8_linear_9_99" x1="173.385" y1="158.567" x2="267.989" y2="158.567" gradientUnits="userSpaceOnUse">
<stop stop-color="#FCB148"/>
<stop offset="0.0521" stop-color="#FDBA46"/>
<stop offset="0.1424" stop-color="#FFC244"/>
<stop offset="0.3183" stop-color="#FFC444"/>
<stop offset="0.4849" stop-color="#FDB946"/>
<stop offset="0.7754" stop-color="#F99C4D"/>
<stop offset="0.8658" stop-color="#F8924F"/>
<stop offset="1" stop-color="#F8924F"/>
</linearGradient>
<linearGradient id="paint9_linear_9_99" x1="190.92" y1="98.0221" x2="277.063" y2="98.0221" gradientUnits="userSpaceOnUse">
<stop stop-color="#444B8C"/>
<stop offset="0.9964" stop-color="#26264F"/>
</linearGradient>
<linearGradient id="paint10_linear_9_99" x1="139.604" y1="97.3861" x2="172.481" y2="97.3861" gradientUnits="userSpaceOnUse">
<stop stop-color="#FFC444"/>
<stop offset="0.9964" stop-color="#F36F56"/>
</linearGradient>
<linearGradient id="paint11_linear_9_99" x1="135.85" y1="97.3862" x2="150.227" y2="97.3862" gradientUnits="userSpaceOnUse">
<stop stop-color="#FFC444"/>
<stop offset="0.9964" stop-color="#F36F56"/>
</linearGradient>
<linearGradient id="paint12_linear_9_99" x1="173.385" y1="158.567" x2="236.396" y2="158.567" gradientUnits="userSpaceOnUse">
<stop stop-color="#FCB148"/>
<stop offset="0.0521" stop-color="#FDBA46"/>
<stop offset="0.1424" stop-color="#FFC244"/>
<stop offset="0.3183" stop-color="#FFC444"/>
<stop offset="0.4849" stop-color="#FDB946"/>
<stop offset="0.7754" stop-color="#F99C4D"/>
<stop offset="0.8658" stop-color="#F8924F"/>
<stop offset="1" stop-color="#F8924F"/>
</linearGradient>
<linearGradient id="paint13_linear_9_99" x1="206.996" y1="234.253" x2="214.729" y2="169.214" gradientUnits="userSpaceOnUse">
<stop stop-color="#FCB148"/>
<stop offset="0.0521" stop-color="#FDBA46"/>
<stop offset="0.1424" stop-color="#FFC244"/>
<stop offset="0.3183" stop-color="#FFC444"/>
<stop offset="0.3975" stop-color="#FEC045"/>
<stop offset="0.7095" stop-color="#FAA34B"/>
<stop offset="0.8658" stop-color="#F8924F"/>
<stop offset="1" stop-color="#F8924F"/>
</linearGradient>
<linearGradient id="paint14_linear_9_99" x1="166.661" y1="147.768" x2="192.761" y2="147.768" gradientUnits="userSpaceOnUse">
<stop stop-color="#40447E"/>
<stop offset="0.9964" stop-color="#3C3B6B"/>
</linearGradient>
<linearGradient id="paint15_linear_9_99" x1="192.727" y1="166.098" x2="214.157" y2="166.098" gradientUnits="userSpaceOnUse">
<stop stop-color="#40447E"/>
<stop offset="0.9964" stop-color="#3C3B6B"/>
</linearGradient>
<linearGradient id="paint16_linear_9_99" x1="229.91" y1="166.543" x2="246.216" y2="166.543" gradientUnits="userSpaceOnUse">
<stop stop-color="#40447E"/>
<stop offset="0.9964" stop-color="#3C3B6B"/>
</linearGradient>
<linearGradient id="paint17_linear_9_99" x1="209.646" y1="175.029" x2="270.963" y2="175.029" gradientUnits="userSpaceOnUse">
<stop stop-color="#AA80F9"/>
<stop offset="0.9964" stop-color="#6165D7"/>
</linearGradient>
<linearGradient id="paint18_linear_9_99" x1="245.61" y1="161.979" x2="332.168" y2="161.979" gradientUnits="userSpaceOnUse">
<stop stop-color="#AA80F9"/>
<stop offset="0.9964" stop-color="#6165D7"/>
</linearGradient>
<linearGradient id="paint19_linear_9_99" x1="245.61" y1="161.979" x2="312.541" y2="161.979" gradientUnits="userSpaceOnUse">
<stop stop-color="#AA80F9"/>
<stop offset="0.9964" stop-color="#6165D7"/>
</linearGradient>
<linearGradient id="paint20_linear_9_99" x1="275.73" y1="193.616" x2="220.63" y2="291.541" gradientUnits="userSpaceOnUse">
<stop stop-color="#FF9085"/>
<stop offset="1" stop-color="#FB6FBB"/>
</linearGradient>
<linearGradient id="paint21_linear_9_99" x1="223.689" y1="246.948" x2="211.307" y2="288.954" gradientUnits="userSpaceOnUse">
<stop stop-color="#FF9085"/>
<stop offset="1" stop-color="#FB6FBB"/>
</linearGradient>
<linearGradient id="paint22_linear_9_99" x1="235.36" y1="260.162" x2="228.451" y2="283.602" gradientUnits="userSpaceOnUse">
<stop stop-color="#FF9085"/>
<stop offset="1" stop-color="#FB6FBB"/>
</linearGradient>
<linearGradient id="paint23_linear_9_99" x1="248.221" y1="266.093" x2="243.906" y2="280.733" gradientUnits="userSpaceOnUse">
<stop stop-color="#FF9085"/>
<stop offset="1" stop-color="#FB6FBB"/>
</linearGradient>
<linearGradient id="paint24_linear_9_99" x1="269.298" y1="228.422" x2="250.363" y2="292.66" gradientUnits="userSpaceOnUse">
<stop stop-color="#FF9085"/>
<stop offset="1" stop-color="#FB6FBB"/>
</linearGradient>
<linearGradient id="paint25_linear_9_99" x1="281.967" y1="233.172" x2="265.152" y2="290.218" gradientUnits="userSpaceOnUse">
<stop stop-color="#FF9085"/>
<stop offset="1" stop-color="#FB6FBB"/>
</linearGradient>
<linearGradient id="paint26_linear_9_99" x1="297.124" y1="224.004" x2="276.932" y2="292.507" gradientUnits="userSpaceOnUse">
<stop stop-color="#FF9085"/>
<stop offset="1" stop-color="#FB6FBB"/>
</linearGradient>
<linearGradient id="paint27_linear_9_99" x1="307.784" y1="237.062" x2="292.984" y2="287.273" gradientUnits="userSpaceOnUse">
<stop stop-color="#FF9085"/>
<stop offset="1" stop-color="#FB6FBB"/>
</linearGradient>
<linearGradient id="paint28_linear_9_99" x1="318.005" y1="251.39" x2="309.094" y2="281.621" gradientUnits="userSpaceOnUse">
<stop stop-color="#FF9085"/>
<stop offset="1" stop-color="#FB6FBB"/>
</linearGradient>
</defs>
</svg>
